<ttFont>
    <TTGlyph name=".notdef" xMin="228" yMin="0" xMax="1644" yMax="1416">
      <contour>
        <pt x="228" y="1416" on="1"/>
        <pt x="1644" y="1416" on="1"/>
        <pt x="1644" y="0" on="1"/>
        <pt x="228" y="0" on="1"/>
      </contour>
      <contour>
        <pt x="586" y="219" on="1"/>
        <pt x="933" y="587" on="1"/>
        <pt x="1295" y="219" on="1"/>
        <pt x="1417" y="341" on="1"/>
        <pt x="1054" y="709" on="1"/>
        <pt x="1417" y="1067" on="1"/>
        <pt x="1289" y="1191" on="1"/>
        <pt x="937" y="825" on="1"/>
        <pt x="580" y="1193" on="1"/>
        <pt x="457" y="1068" on="1"/>
        <pt x="816" y="705" on="1"/>
        <pt x="458" y="363" on="1"/>
      </contour>
    </TTGlyph>
    <TTGlyph name="A" xMin="-141" yMin="0" xMax="1368" yMax="1530">
      <contour>
        <pt x="687" y="1530" on="1"/>
        <pt x="960" y="1530" on="1"/>
        <pt x="1210" y="128" on="1"/>
        <pt x="1368" y="96" on="1"/>
        <pt x="1362" y="0" on="1"/>
        <pt x="773" y="0" on="1"/>
        <pt x="779" y="96" on="1"/>
        <pt x="925" y="125" on="1"/>
        <pt x="880" y="426" on="1"/>
        <pt x="349" y="426" on="1"/>
        <pt x="213" y="126" on="1"/>
        <pt x="381" y="96" on="1"/>
        <pt x="374" y="0" on="1"/>
        <pt x="-141" y="0" on="1"/>
        <pt x="-132" y="96" on="1"/>
        <pt x="7" y="125" on="1"/>
      </contour>
      <contour>
        <pt x="860" y="562" on="1"/>
        <pt x="768" y="1177" on="1"/>
        <pt x="758" y="1330" on="1"/>
        <pt x="410" y="562" on="1"/>
      </contour>
    </TTGlyph>
    <TTGlyph name="AE" xMin="-163" yMin="0" xMax="1886" yMax="1530">
      <contour>
        <pt x="740" y="1401" on="1"/>
        <pt x="426" y="1425" on="1"/>
        <pt x="441" y="1530" on="1"/>
        <pt x="1882" y="1530" on="1"/>
        <pt x="1860" y="1201" on="1"/>
        <pt x="1701" y="1201" on="1"/>
        <pt x="1660" y="1396" on="1"/>
        <pt x="1286" y="1416" on="1"/>
        <pt x="1217" y="868" on="1"/>
        <pt x="1636" y="883" on="1"/>
        <pt x="1619" y="696" on="1"/>
        <pt x="1201" y="717" on="1"/>
        <pt x="1125" y="126" on="1"/>
        <pt x="1621" y="156" on="1"/>
        <pt x="1728" y="397" on="1"/>
        <pt x="1886" y="374" on="1"/>
        <pt x="1818" y="0" on="1"/>
        <pt x="684" y="0" on="1"/>
        <pt x="696" y="96" on="1"/>
        <pt x="851" y="126" on="1"/>
        <pt x="890" y="446" on="1"/>
        <pt x="417" y="446" on="1"/>
        <pt x="247" y="126" on="1"/>
        <pt x="436" y="96" on="1"/>
        <pt x="429" y="0" on="1"/>
        <pt x="-163" y="0" on="1"/>
        <pt x="-152" y="96" on="1"/>
        <pt x="4" y="126" on="1"/>
      </contour>
      <contour>
        <pt x="906" y="582" on="1"/>
        <pt x="1005" y="1397" on="1"/>
        <pt x="923" y="1399" on="1"/>
        <pt x="489" y="582" on="1"/>
      </contour>
    </TTGlyph>
    <TTGlyph name="AEacute" xMin="-163" yMin="0" xMax="1886" yMax="2007">
      <component glyphName="acute.cap" x="1135" y="0" flags="0x4"/>
      <component glyphName="AE" x="0" y="0" flags="0x4"/>
    </TTGlyph>
    <TTGlyph name="Aacute" xMin="-141" yMin="0" xMax="1368" yMax="2007">
      <component glyphName="A" x="0" y="0" flags="0x204"/>
      <component glyphName="acute.cap" x="687" y="0" flags="0x4"/>
    </TTGlyph>
    <TTGlyph name="Abreve" xMin="-141" yMin="0" xMax="1368" yMax="1997">
      <component glyphName="A" x="0" y="0" flags="0x204"/>
      <component glyphName="breve.cap" x="471" y="0" flags="0x4"/>
    </TTGlyph>
    <TTGlyph name="Acircumflex" xMin="-141" yMin="0" xMax="1368" yMax="2007">
      <component glyphName="A" x="0" y="0" flags="0x204"/>
      <component glyphName="circumflex.cap" x="426" y="0" flags="0x4"/>
    </TTGlyph>
    <TTGlyph name="Adieresis" xMin="-141" yMin="0" xMax="1368" yMax="1972">
      <component glyphName="A" x="0" y="0" flags="0x204"/>
      <component glyphName="dieresis.cap" x="435" y="0" flags="0x4"/>
    </TTGlyph>
    <TTGlyph name="Agrave" xMin="-141" yMin="0" xMax="1368" yMax="2007">
      <component glyphName="A" x="0" y="0" flags="0x204"/>
      <component glyphName="grave.cap" x="447" y="0" flags="0x4"/>
    </TTGlyph>
    <TTGlyph name="Amacron" xMin="-141" yMin="0" xMax="1368" yMax="1897">
      <component glyphName="A" x="0" y="0" flags="0x204"/>
      <component glyphName="macron.cap" x="500" y="0" flags="0x4"/>
    </TTGlyph>
    <TTGlyph name="Aogonek" xMin="-120" yMin="-448" xMax="1389" yMax="1530">
      <contour>
        <pt x="-111" y="96" on="1"/>
        <pt x="28" y="125" on="1"/>
        <pt x="708" y="1530" on="1"/>
        <pt x="981" y="1530" on="1"/>
        <pt x="1231" y="128" on="1"/>
        <pt x="1389" y="96" on="1"/>
        <pt x="1383" y="0" on="1"/>
        <pt x="1177" y="0" on="1"/>
        <pt x="1139" y="-28" on="0"/>
        <pt x="1075" y="-82" on="0"/>
        <pt x="1028" y="-134" on="0"/>
        <pt x="1000" y="-184" on="0"/>
        <pt x="1000" y="-208" on="1"/>
        <pt x="999" y="-231" on="0"/>
        <pt x="1009" y="-261" on="0"/>
        <pt x="1026" y="-279" on="0"/>
        <pt x="1048" y="-287" on="0"/>
        <pt x="1060" y="-287" on="1"/>
        <pt x="1095" y="-287" on="0"/>
        <pt x="1160" y="-253" on="0"/>
        <pt x="1202" y="-220" on="1"/>
        <pt x="1233" y="-324" on="1"/>
        <pt x="1208" y="-348" on="0"/>
        <pt x="1145" y="-393" on="0"/>
        <pt x="1071" y="-428" on="0"/>
        <pt x="985" y="-448" on="0"/>
        <pt x="936" y="-448" on="1"/>
        <pt x="892" y="-448" on="0"/>
        <pt x="826" y="-423" on="0"/>
        <pt x="783" y="-381" on="0"/>
        <pt x="762" y="-325" on="0"/>
        <pt x="763" y="-293" on="1"/>
        <pt x="764" y="-265" on="0"/>
        <pt x="786" y="-195" on="0"/>
        <pt x="806" y="-169" on="1"/>
        <pt x="831" y="-134" on="0"/>
        <pt x="883" y="-82" on="0"/>
        <pt x="934" y="-43" on="0"/>
        <pt x="986" y="-13" on="0"/>
        <pt x="1011" y="0" on="1"/>
        <pt x="794" y="0" on="1"/>
        <pt x="800" y="96" on="1"/>
        <pt x="946" y="125" on="1"/>
        <pt x="901" y="426" on="1"/>
        <pt x="370" y="426" on="1"/>
        <pt x="234" y="126" on="1"/>
        <pt x="402" y="96" on="1"/>
        <pt x="395" y="0" on="1"/>
        <pt x="-120" y="0" on="1"/>
      </contour>
      <contour>
        <pt x="881" y="562" on="1"/>
        <pt x="789" y="1177" on="1"/>
        <pt x="779" y="1330" on="1"/>
        <pt x="431" y="562" on="1"/>
      </contour>
    </TTGlyph>
    <TTGlyph name="Aring" xMin="-141" yMin="0" xMax="1368" yMax="2007">
      <contour>
        <pt x="672" y="1500" on="1"/>
        <pt x="593" y="1526" on="0"/>
        <pt x="513" y="1643" on="0"/>
        <pt x="518" y="1731" on="1"/>
        <pt x="522" y="1809" on="0"/>
        <pt x="595" y="1915" on="0"/>
        <pt x="702" y="1980" on="0"/>
        <pt x="828" y="2007" on="0"/>
        <pt x="885" y="2007" on="1"/>
        <pt x="953" y="2007" on="0"/>
        <pt x="1062" y="1975" on="0"/>
        <pt x="1138" y="1913" on="0"/>
        <pt x="1176" y="1822" on="0"/>
        <pt x="1173" y="1763" on="1"/>
        <pt x="1170" y="1710" on="0"/>
        <pt x="1135" y="1626" on="0"/>
        <pt x="1080" y="1562" on="0"/>
        <pt x="1007" y="1516" on="0"/>
        <pt x="965" y="1502" on="1"/>
        <pt x="1210" y="128" on="1"/>
        <pt x="1368" y="96" on="1"/>
        <pt x="1362" y="0" on="1"/>
        <pt x="773" y="0" on="1"/>
        <pt x="779" y="96" on="1"/>
        <pt x="925" y="125" on="1"/>
        <pt x="880" y="426" on="1"/>
        <pt x="349" y="426" on="1"/>
        <pt x="213" y="126" on="1"/>
        <pt x="381" y="96" on="1"/>
        <pt x="374" y="0" on="1"/>
        <pt x="-141" y="0" on="1"/>
        <pt x="-132" y="96" on="1"/>
        <pt x="7" y="125" on="1"/>
      </contour>
      <contour>
        <pt x="830" y="1592" on="1"/>
        <pt x="863" y="1592" on="0"/>
        <pt x="925" y="1604" on="0"/>
        <pt x="973" y="1639" on="0"/>
        <pt x="1003" y="1699" on="0"/>
        <pt x="1006" y="1746" on="1"/>
        <pt x="1008" y="1780" on="0"/>
        <pt x="988" y="1835" on="0"/>
        <pt x="949" y="1874" on="0"/>
        <pt x="895" y="1895" on="0"/>
        <pt x="864" y="1895" on="1"/>
        <pt x="831" y="1895" on="0"/>
        <pt x="769" y="1881" on="0"/>
        <pt x="719" y="1845" on="0"/>
        <pt x="688" y="1786" on="0"/>
        <pt x="685" y="1742" on="1"/>
        <pt x="683" y="1710" on="0"/>
        <pt x="705" y="1655" on="0"/>
        <pt x="745" y="1615" on="0"/>
        <pt x="800" y="1592" on="0"/>
      </contour>
      <contour>
        <pt x="860" y="562" on="1"/>
        <pt x="768" y="1177" on="1"/>
        <pt x="758" y="1330" on="1"/>
        <pt x="410" y="562" on="1"/>
      </contour>
    </TTGlyph>
    <TTGlyph name="Atilde" xMin="-141" yMin="0" xMax="1368" yMax="1970">
      <component glyphName="A" x="0" y="0" flags="0x204"/>
      <component glyphName="tilde.cap" x="435" y="0" flags="0x4"/>
    </TTGlyph>
    <TTGlyph name="B" xMin="4" yMin="-17" xMax="1271" yMax="1546">
      <contour>
        <pt x="13" y="96" on="1"/>
        <pt x="157" y="126" on="1"/>
        <pt x="321" y="1400" on="1"/>
        <pt x="182" y="1425" on="1"/>
        <pt x="195" y="1530" on="1"/>
        <pt x="483" y="1530" on="1"/>
        <pt x="562" y="1531" on="0"/>
        <pt x="719" y="1546" on="0"/>
        <pt x="806" y="1546" on="1"/>
        <pt x="938" y="1546" on="0"/>
        <pt x="1113" y="1490" on="0"/>
        <pt x="1219" y="1398" on="0"/>
        <pt x="1265" y="1280" on="0"/>
        <pt x="1267" y="1218" on="1"/>
        <pt x="1271" y="1054" on="0"/>
        <pt x="1095" y="853" on="0"/>
        <pt x="930" y="807" on="1"/>
        <pt x="1004" y="803" on="0"/>
        <pt x="1125" y="752" on="0"/>
        <pt x="1211" y="668" on="0"/>
        <pt x="1258" y="558" on="0"/>
        <pt x="1259" y="495" on="1"/>
        <pt x="1260" y="357" on="0"/>
        <pt x="1159" y="162" on="0"/>
        <pt x="974" y="39" on="0"/>
        <pt x="715" y="-17" on="0"/>
        <pt x="558" y="-17" on="1"/>
        <pt x="525" y="-17" on="0"/>
        <pt x="450" y="-12" on="0"/>
        <pt x="373" y="-5" on="0"/>
        <pt x="300" y="0" on="0"/>
        <pt x="270" y="0" on="1"/>
        <pt x="4" y="0" on="1"/>
      </contour>
      <contour>
        <pt x="517" y="855" on="1"/>
        <pt x="554" y="853" on="0"/>
        <pt x="628" y="854" on="0"/>
        <pt x="667" y="854" on="1"/>
        <pt x="737" y="854" on="0"/>
        <pt x="861" y="893" on="0"/>
        <pt x="954" y="975" on="0"/>
        <pt x="1006" y="1103" on="0"/>
        <pt x="1004" y="1192" on="1"/>
        <pt x="1000" y="1307" on="0"/>
        <pt x="878" y="1424" on="0"/>
        <pt x="744" y="1424" on="1"/>
        <pt x="733" y="1424" on="0"/>
        <pt x="695" y="1423" on="0"/>
        <pt x="651" y="1420" on="0"/>
        <pt x="607" y="1415" on="0"/>
        <pt x="589" y="1412" on="1"/>
      </contour>
      <contour>
        <pt x="424" y="127" on="1"/>
        <pt x="441" y="122" on="0"/>
        <pt x="489" y="114" on="0"/>
        <pt x="539" y="109" on="0"/>
        <pt x="585" y="106" on="0"/>
        <pt x="601" y="106" on="1"/>
        <pt x="689" y="106" on="0"/>
        <pt x="828" y="147" on="0"/>
        <pt x="924" y="234" on="0"/>
        <pt x="973" y="371" on="0"/>
        <pt x="970" y="467" on="1"/>
        <pt x="968" y="531" on="0"/>
        <pt x="933" y="627" on="0"/>
        <pt x="862" y="691" on="0"/>
        <pt x="752" y="722" on="0"/>
        <pt x="676" y="722" on="1"/>
        <pt x="607" y="722" on="0"/>
        <pt x="527" y="718" on="0"/>
        <pt x="499" y="716" on="1"/>
      </contour>
    </TTGlyph>
    <TTGlyph name="C" xMin="75" yMin="-16" xMax="1282" yMax="1548">
      <contour>
        <pt x="635" y="-16" on="1"/>
        <pt x="534" y="-16" on="0"/>
        <pt x="373" y="34" on="0"/>
        <pt x="250" y="123" on="0"/>
        <pt x="161" y="245" on="0"/>
        <pt x="105" y="389" on="0"/>
        <pt x="77" y="549" on="0"/>
        <pt x="77" y="632" on="1"/>
        <pt x="75" y="842" on="0"/>
        <pt x="197" y="1181" on="0"/>
        <pt x="415" y="1419" on="0"/>
        <pt x="714" y="1548" on="0"/>
        <pt x="889" y="1548" on="1"/>
        <pt x="964" y="1548" on="0"/>
        <pt x="1076" y="1538" on="0"/>
        <pt x="1159" y="1524" on="0"/>
        <pt x="1220" y="1507" on="0"/>
        <pt x="1246" y="1501" on="1"/>
        <pt x="1282" y="1491" on="1"/>
        <pt x="1217" y="1107" on="1"/>
        <pt x="1032" y="1107" on="1"/>
        <pt x="1001" y="1392" on="1"/>
        <pt x="972" y="1406" on="0"/>
        <pt x="898" y="1424" on="0"/>
        <pt x="849" y="1424" on="1"/>
        <pt x="761" y="1424" on="0"/>
        <pt x="622" y="1354" on="0"/>
        <pt x="516" y="1235" on="0"/>
        <pt x="441" y="1079" on="0"/>
        <pt x="395" y="908" on="0"/>
        <pt x="375" y="732" on="0"/>
        <pt x="377" y="653" on="1"/>
        <pt x="380" y="540" on="0"/>
        <pt x="416" y="347" on="0"/>
        <pt x="490" y="204" on="0"/>
        <pt x="605" y="123" on="0"/>
        <pt x="686" y="123" on="1"/>
        <pt x="712" y="123" on="0"/>
        <pt x="778" y="130" on="0"/>
        <pt x="845" y="149" on="0"/>
        <pt x="906" y="184" on="0"/>
        <pt x="928" y="212" on="1"/>
        <pt x="935" y="220" on="0"/>
        <pt x="956" y="273" on="0"/>
        <pt x="979" y="337" on="0"/>
        <pt x="998" y="397" on="0"/>
        <pt x="1002" y="411" on="1"/>
        <pt x="1163" y="411" on="1"/>
        <pt x="1122" y="103" on="1"/>
        <pt x="1095" y="87" on="0"/>
        <pt x="1009" y="46" on="0"/>
        <pt x="889" y="9" on="0"/>
        <pt x="732" y="-16" on="0"/>
      </contour>
    </TTGlyph>
    <TTGlyph name="Cacute" xMin="75" yMin="-16" xMax="1282" yMax="2007">
      <component glyphName="C" x="0" y="0" flags="0x204"/>
      <component glyphName="acute.cap" x="736" y="0" flags="0x4"/>
    </TTGlyph>
    <TTGlyph name="Ccaron" xMin="75" yMin="-16" xMax="1282" yMax="2007">
      <component glyphName="C" x="0" y="0" flags="0x204"/>
      <component glyphName="caron.cap" x="475" y="0" flags="0x4"/>
    </TTGlyph>
    <TTGlyph name="Ccedilla" xMin="75" yMin="-472" xMax="1282" yMax="1548">
      <contour>
        <pt x="364" y="-302" on="1"/>
        <pt x="377" y="-309" on="0"/>
        <pt x="416" y="-317" on="0"/>
        <pt x="439" y="-317" on="1"/>
        <pt x="473" y="-317" on="0"/>
        <pt x="534" y="-299" on="0"/>
        <pt x="581" y="-257" on="0"/>
        <pt x="611" y="-187" on="0"/>
        <pt x="615" y="-135" on="1"/>
        <pt x="619" y="-64" on="0"/>
        <pt x="613" y="-15" on="1"/>
        <pt x="468" y="-11" on="0"/>
        <pt x="265" y="101" on="0"/>
        <pt x="137" y="281" on="0"/>
        <pt x="78" y="510" on="0"/>
        <pt x="77" y="632" on="1"/>
        <pt x="75" y="842" on="0"/>
        <pt x="197" y="1181" on="0"/>
        <pt x="415" y="1419" on="0"/>
        <pt x="714" y="1548" on="0"/>
        <pt x="889" y="1548" on="1"/>
        <pt x="964" y="1548" on="0"/>
        <pt x="1076" y="1538" on="0"/>
        <pt x="1159" y="1524" on="0"/>
        <pt x="1220" y="1507" on="0"/>
        <pt x="1246" y="1501" on="1"/>
        <pt x="1282" y="1491" on="1"/>
        <pt x="1217" y="1107" on="1"/>
        <pt x="1032" y="1107" on="1"/>
        <pt x="1001" y="1392" on="1"/>
        <pt x="972" y="1406" on="0"/>
        <pt x="898" y="1424" on="0"/>
        <pt x="849" y="1424" on="1"/>
        <pt x="761" y="1424" on="0"/>
        <pt x="622" y="1354" on="0"/>
        <pt x="516" y="1235" on="0"/>
        <pt x="441" y="1079" on="0"/>
        <pt x="395" y="908" on="0"/>
        <pt x="375" y="732" on="0"/>
        <pt x="377" y="653" on="1"/>
        <pt x="380" y="540" on="0"/>
        <pt x="416" y="347" on="0"/>
        <pt x="490" y="204" on="0"/>
        <pt x="605" y="123" on="0"/>
        <pt x="686" y="123" on="1"/>
        <pt x="712" y="123" on="0"/>
        <pt x="778" y="130" on="0"/>
        <pt x="845" y="149" on="0"/>
        <pt x="906" y="184" on="0"/>
        <pt x="928" y="212" on="1"/>
        <pt x="935" y="220" on="0"/>
        <pt x="956" y="273" on="0"/>
        <pt x="979" y="337" on="0"/>
        <pt x="998" y="397" on="0"/>
        <pt x="1002" y="411" on="1"/>
        <pt x="1163" y="411" on="1"/>
        <pt x="1122" y="103" on="1"/>
        <pt x="1099" y="90" on="0"/>
        <pt x="1032" y="57" on="0"/>
        <pt x="942" y="24" on="0"/>
        <pt x="829" y="-3" on="0"/>
        <pt x="759" y="-10" on="1"/>
        <pt x="771" y="-49" on="0"/>
        <pt x="782" y="-159" on="0"/>
        <pt x="780" y="-210" on="1"/>
        <pt x="771" y="-350" on="0"/>
        <pt x="634" y="-472" on="0"/>
        <pt x="497" y="-472" on="1"/>
        <pt x="477" y="-472" on="0"/>
        <pt x="426" y="-468" on="0"/>
        <pt x="377" y="-460" on="0"/>
        <pt x="337" y="-450" on="0"/>
        <pt x="329" y="-444" on="1"/>
        <pt x="364" y="-302" on="1"/>
      </contour>
    </TTGlyph>
    <TTGlyph name="Ccircumflex" xMin="75" yMin="-16" xMax="1282" yMax="2007">
      <component glyphName="C" x="0" y="0" flags="0x204"/>
      <component glyphName="circumflex.cap" x="475" y="0" flags="0x4"/>
    </TTGlyph>
    <TTGlyph name="Cdotaccent" xMin="75" yMin="-16" xMax="1282" yMax="1965">
      <component glyphName="dotaccent.cap" x="690" y="0" flags="0x4"/>
      <component glyphName="C" x="0" y="0" flags="0x4"/>
    </TTGlyph>
    <TTGlyph name="D" xMin="-8" yMin="-18" xMax="1429" yMax="1546">
      <contour>
        <pt x="3" y="96" on="1"/>
        <pt x="156" y="126" on="1"/>
        <pt x="321" y="1400" on="1"/>
        <pt x="183" y="1425" on="1"/>
        <pt x="194" y="1530" on="1"/>
        <pt x="501" y="1530" on="1"/>
        <pt x="576" y="1531" on="0"/>
        <pt x="732" y="1546" on="0"/>
        <pt x="812" y="1546" on="1"/>
        <pt x="979" y="1546" on="0"/>
        <pt x="1212" y="1453" on="0"/>
        <pt x="1359" y="1286" on="0"/>
        <pt x="1426" y="1057" on="0"/>
        <pt x="1427" y="922" on="1"/>
        <pt x="1429" y="719" on="0"/>
        <pt x="1323" y="374" on="0"/>
        <pt x="1111" y="122" on="0"/>
        <pt x="796" y="-18" on="0"/>
        <pt x="589" y="-16" on="1"/>
        <pt x="571" y="-16" on="0"/>
        <pt x="514" y="-11" on="0"/>
        <pt x="495" y="-9" on="1"/>
        <pt x="477" y="-8" on="0"/>
        <pt x="424" y="-4" on="0"/>
        <pt x="366" y="-2" on="0"/>
        <pt x="309" y="0" on="0"/>
        <pt x="287" y="0" on="1"/>
        <pt x="-8" y="0" on="1"/>
      </contour>
      <contour>
        <pt x="432" y="134" on="1"/>
        <pt x="450" y="128" on="0"/>
        <pt x="501" y="118" on="0"/>
        <pt x="554" y="110" on="0"/>
        <pt x="605" y="106" on="0"/>
        <pt x="625" y="106" on="1"/>
        <pt x="719" y="109" on="0"/>
        <pt x="869" y="180" on="0"/>
        <pt x="983" y="296" on="0"/>
        <pt x="1064" y="449" on="0"/>
        <pt x="1115" y="623" on="0"/>
        <pt x="1138" y="807" on="0"/>
        <pt x="1137" y="896" on="1"/>
        <pt x="1136" y="1039" on="0"/>
        <pt x="1092" y="1240" on="0"/>
        <pt x="1002" y="1367" on="0"/>
        <pt x="863" y="1425" on="0"/>
        <pt x="766" y="1425" on="1"/>
        <pt x="741" y="1425" on="0"/>
        <pt x="689" y="1421" on="0"/>
        <pt x="643" y="1414" on="0"/>
        <pt x="605" y="1406" on="0"/>
        <pt x="594" y="1402" on="1"/>
      </contour>
    </TTGlyph>
    <TTGlyph name="Dcaron" xMin="-12" yMin="-18" xMax="1425" yMax="2007">
      <component glyphName="caron.cap" x="454" y="0" flags="0x4"/>
      <component glyphName="D" x="-4" y="0" flags="0x4"/>
    </TTGlyph>
    <TTGlyph name="Dcroat" xMin="-13" yMin="-16" xMax="1424" yMax="1548">
      <component glyphName="Eth" x="0" y="0" flags="0x204"/>
    </TTGlyph>
    <TTGlyph name="Delta" xMin="-43" yMin="0" xMax="1342" yMax="1508">
      <contour>
        <pt x="-43" y="22" on="1"/>
        <pt x="721" y="1508" on="1"/>
        <pt x="773" y="1508" on="1"/>
        <pt x="1342" y="27" on="1"/>
        <pt x="1325" y="0" on="1"/>
        <pt x="-31" y="0" on="1"/>
      </contour>
      <contour>
        <pt x="1018" y="186" on="1"/>
        <pt x="675" y="1120" on="1"/>
        <pt x="211" y="186" on="1"/>
      </contour>
    </TTGlyph>
    <TTGlyph name="E" xMin="-9" yMin="0" xMax="1216" yMax="1530">
      <contour>
        <pt x="3" y="96" on="1"/>
        <pt x="158" y="126" on="1"/>
        <pt x="320" y="1400" on="1"/>
        <pt x="181" y="1425" on="1"/>
        <pt x="192" y="1530" on="1"/>
        <pt x="1215" y="1530" on="1"/>
        <pt x="1193" y="1190" on="1"/>
        <pt x="1029" y="1190" on="1"/>
        <pt x="988" y="1396" on="1"/>
        <pt x="598" y="1416" on="1"/>
        <pt x="526" y="868" on="1"/>
        <pt x="967" y="883" on="1"/>
        <pt x="949" y="696" on="1"/>
        <pt x="510" y="717" on="1"/>
        <pt x="430" y="126" on="1"/>
        <pt x="940" y="156" on="1"/>
        <pt x="1058" y="408" on="1"/>
        <pt x="1216" y="385" on="1"/>
        <pt x="1137" y="0" on="1"/>
        <pt x="-9" y="0" on="1"/>
      </contour>
    </TTGlyph>
    <TTGlyph name="Eacute" xMin="-13" yMin="0" xMax="1212" yMax="2007">
      <component glyphName="acute.cap" x="659" y="0" flags="0x4"/>
      <component glyphName="E" x="-4" y="0" flags="0x4"/>
    </TTGlyph>
    <TTGlyph name="Ebreve" xMin="-13" yMin="0" xMax="1212" yMax="1997">
      <component glyphName="breve.cap" x="443" y="0" flags="0x4"/>
      <component glyphName="E" x="-4" y="0" flags="0x4"/>
    </TTGlyph>
    <TTGlyph name="Ecaron" xMin="-13" yMin="0" xMax="1212" yMax="2007">
      <component glyphName="caron.cap" x="398" y="0" flags="0x4"/>
      <component glyphName="E" x="-4" y="0" flags="0x4"/>
    </TTGlyph>
    <TTGlyph name="Ecircumflex" xMin="-13" yMin="0" xMax="1212" yMax="2007">
      <component glyphName="E" x="-4" y="0" flags="0x4"/>
      <component glyphName="circumflex.cap" x="398" y="0" flags="0x4"/>
    </TTGlyph>
    <TTGlyph name="Edieresis" xMin="-13" yMin="0" xMax="1212" yMax="1972">
      <component glyphName="dieresis.cap" x="407" y="0" flags="0x4"/>
      <component glyphName="E" x="-4" y="0" flags="0x4"/>
    </TTGlyph>
    <TTGlyph name="Edotaccent" xMin="-13" yMin="0" xMax="1212" yMax="1965">
      <component glyphName="dotaccent.cap" x="613" y="0" flags="0x4"/>
      <component glyphName="E" x="-4" y="0" flags="0x4"/>
    </TTGlyph>
    <TTGlyph name="Egrave" xMin="-13" yMin="0" xMax="1212" yMax="2007">
      <component glyphName="grave.cap" x="419" y="0" flags="0x4"/>
      <component glyphName="E" x="-4" y="0" flags="0x4"/>
    </TTGlyph>
    <TTGlyph name="Emacron" xMin="-13" yMin="0" xMax="1212" yMax="1897">
      <component glyphName="macron.cap" x="472" y="0" flags="0x4"/>
      <component glyphName="E" x="-4" y="0" flags="0x4"/>
    </TTGlyph>
    <TTGlyph name="Eng" xMin="0" yMin="-425" xMax="1591" yMax="1530">
      <contour>
        <pt x="8" y="96" on="1"/>
        <pt x="151" y="125" on="1"/>
        <pt x="328" y="1400" on="1"/>
        <pt x="167" y="1425" on="1"/>
        <pt x="184" y="1530" on="1"/>
        <pt x="633" y="1530" on="1"/>
        <pt x="1066" y="519" on="1"/>
        <pt x="1132" y="298" on="1"/>
        <pt x="1261" y="1401" on="1"/>
        <pt x="1105" y="1425" on="1"/>
        <pt x="1117" y="1530" on="1"/>
        <pt x="1591" y="1530" on="1"/>
        <pt x="1581" y="1425" on="1"/>
        <pt x="1446" y="1400" on="1"/>
        <pt x="1244" y="0" on="1"/>
        <pt x="1231" y="-90" on="0"/>
        <pt x="1142" y="-237" on="0"/>
        <pt x="1009" y="-347" on="0"/>
        <pt x="840" y="-415" on="0"/>
        <pt x="747" y="-425" on="1"/>
        <pt x="705" y="-322" on="1"/>
        <pt x="755" y="-309" on="0"/>
        <pt x="860" y="-252" on="0"/>
        <pt x="947" y="-170" on="0"/>
        <pt x="1004" y="-63" on="0"/>
        <pt x="1006" y="0" on="1"/>
        <pt x="534" y="1062" on="1"/>
        <pt x="466" y="1280" on="1"/>
        <pt x="346" y="126" on="1"/>
        <pt x="518" y="97" on="1"/>
        <pt x="508" y="0" on="1"/>
        <pt x="0" y="0" on="1"/>
      </contour>
    </TTGlyph>
    <TTGlyph name="Eogonek" xMin="-14" yMin="-448" xMax="1211" yMax="1530">
      <contour>
        <pt x="-2" y="96" on="1"/>
        <pt x="153" y="126" on="1"/>
        <pt x="315" y="1400" on="1"/>
        <pt x="176" y="1425" on="1"/>
        <pt x="187" y="1530" on="1"/>
        <pt x="1210" y="1530" on="1"/>
        <pt x="1188" y="1190" on="1"/>
        <pt x="1024" y="1190" on="1"/>
        <pt x="983" y="1396" on="1"/>
        <pt x="593" y="1416" on="1"/>
        <pt x="521" y="868" on="1"/>
        <pt x="962" y="883" on="1"/>
        <pt x="944" y="696" on="1"/>
        <pt x="505" y="717" on="1"/>
        <pt x="425" y="126" on="1"/>
        <pt x="935" y="156" on="1"/>
        <pt x="1053" y="408" on="1"/>
        <pt x="1211" y="385" on="1"/>
        <pt x="1132" y="0" on="1"/>
        <pt x="1033" y="0" on="1"/>
        <pt x="995" y="-28" on="0"/>
        <pt x="931" y="-82" on="0"/>
        <pt x="884" y="-134" on="0"/>
        <pt x="856" y="-184" on="0"/>
        <pt x="856" y="-208" on="1"/>
        <pt x="855" y="-231" on="0"/>
        <pt x="865" y="-261" on="0"/>
        <pt x="882" y="-279" on="0"/>
        <pt x="904" y="-287" on="0"/>
        <pt x="916" y="-287" on="1"/>
        <pt x="951" y="-287" on="0"/>
        <pt x="1016" y="-253" on="0"/>
        <pt x="1058" y="-220" on="1"/>
        <pt x="1089" y="-324" on="1"/>
        <pt x="1064" y="-348" on="0"/>
        <pt x="1001" y="-393" on="0"/>
        <pt x="927" y="-428" on="0"/>
        <pt x="841" y="-448" on="0"/>
        <pt x="792" y="-448" on="1"/>
        <pt x="748" y="-448" on="0"/>
        <pt x="682" y="-423" on="0"/>
        <pt x="639" y="-381" on="0"/>
        <pt x="618" y="-325" on="0"/>
        <pt x="619" y="-293" on="1"/>
        <pt x="620" y="-265" on="0"/>
        <pt x="642" y="-195" on="0"/>
        <pt x="662" y="-169" on="1"/>
        <pt x="687" y="-134" on="0"/>
        <pt x="739" y="-82" on="0"/>
        <pt x="790" y="-43" on="0"/>
        <pt x="842" y="-13" on="0"/>
        <pt x="867" y="0" on="1"/>
        <pt x="-14" y="0" on="1"/>
      </contour>
    </TTGlyph>
    <TTGlyph name="Eth" xMin="-13" yMin="-16" xMax="1424" yMax="1548">
      <contour>
        <pt x="-2" y="98" on="1"/>
        <pt x="151" y="128" on="1"/>
        <pt x="226" y="712" on="1"/>
        <pt x="84" y="712" on="1"/>
        <pt x="105" y="862" on="1"/>
        <pt x="246" y="862" on="1"/>
        <pt x="316" y="1402" on="1"/>
        <pt x="178" y="1427" on="1"/>
        <pt x="189" y="1532" on="1"/>
        <pt x="496" y="1532" on="1"/>
        <pt x="571" y="1533" on="0"/>
        <pt x="727" y="1548" on="0"/>
        <pt x="807" y="1548" on="1"/>
        <pt x="974" y="1548" on="0"/>
        <pt x="1207" y="1455" on="0"/>
        <pt x="1354" y="1288" on="0"/>
        <pt x="1421" y="1059" on="0"/>
        <pt x="1422" y="924" on="1"/>
        <pt x="1424" y="721" on="0"/>
        <pt x="1318" y="376" on="0"/>
        <pt x="1106" y="124" on="0"/>
        <pt x="791" y="-16" on="0"/>
        <pt x="584" y="-14" on="1"/>
        <pt x="566" y="-14" on="0"/>
        <pt x="509" y="-9" on="0"/>
        <pt x="490" y="-7" on="1"/>
        <pt x="472" y="-6" on="0"/>
        <pt x="419" y="-2" on="0"/>
        <pt x="361" y="0" on="0"/>
        <pt x="304" y="2" on="0"/>
        <pt x="282" y="2" on="1"/>
        <pt x="-13" y="2" on="1"/>
      </contour>
      <contour>
        <pt x="427" y="136" on="1"/>
        <pt x="445" y="130" on="0"/>
        <pt x="496" y="120" on="0"/>
        <pt x="549" y="112" on="0"/>
        <pt x="600" y="108" on="0"/>
        <pt x="620" y="108" on="1"/>
        <pt x="714" y="111" on="0"/>
        <pt x="864" y="182" on="0"/>
        <pt x="978" y="298" on="0"/>
        <pt x="1059" y="451" on="0"/>
        <pt x="1110" y="625" on="0"/>
        <pt x="1133" y="809" on="0"/>
        <pt x="1132" y="898" on="1"/>
        <pt x="1131" y="1041" on="0"/>
        <pt x="1087" y="1242" on="0"/>
        <pt x="997" y="1369" on="0"/>
        <pt x="858" y="1427" on="0"/>
        <pt x="761" y="1427" on="1"/>
        <pt x="736" y="1427" on="0"/>
        <pt x="684" y="1423" on="0"/>
        <pt x="638" y="1416" on="0"/>
        <pt x="600" y="1408" on="0"/>
        <pt x="589" y="1404" on="1"/>
        <pt x="519" y="862" on="1"/>
        <pt x="864" y="862" on="1"/>
        <pt x="843" y="712" on="1"/>
        <pt x="500" y="712" on="1"/>
      </contour>
    </TTGlyph>
    <TTGlyph name="Euro" xMin="32" yMin="-16" xMax="1361" yMax="1546">
      <contour>
        <pt x="48" y="695" on="1"/>
        <pt x="229" y="695" on="1"/>
        <pt x="231" y="749" on="0"/>
        <pt x="243" y="851" on="0"/>
        <pt x="252" y="899" on="1"/>
        <pt x="99" y="899" on="1"/>
        <pt x="118" y="1039" on="1"/>
        <pt x="290" y="1039" on="1"/>
        <pt x="333" y="1163" on="0"/>
        <pt x="473" y="1353" on="0"/>
        <pt x="648" y="1481" on="0"/>
        <pt x="852" y="1546" on="0"/>
        <pt x="960" y="1546" on="1"/>
        <pt x="1018" y="1546" on="0"/>
        <pt x="1111" y="1536" on="0"/>
        <pt x="1186" y="1520" on="0"/>
        <pt x="1247" y="1501" on="0"/>
        <pt x="1274" y="1492" on="1"/>
        <pt x="1283" y="1489" on="0"/>
        <pt x="1308" y="1484" on="0"/>
        <pt x="1333" y="1478" on="0"/>
        <pt x="1355" y="1473" on="0"/>
        <pt x="1361" y="1472" on="1"/>
        <pt x="1302" y="1187" on="1"/>
        <pt x="1181" y="1187" on="1"/>
        <pt x="1158" y="1341" on="1"/>
        <pt x="1141" y="1357" on="0"/>
        <pt x="1097" y="1385" on="0"/>
        <pt x="1038" y="1406" on="0"/>
        <pt x="961" y="1417" on="0"/>
        <pt x="911" y="1417" on="1"/>
        <pt x="846" y="1417" on="0"/>
        <pt x="735" y="1365" on="0"/>
        <pt x="644" y="1267" on="0"/>
        <pt x="574" y="1127" on="0"/>
        <pt x="550" y="1039" on="1"/>
        <pt x="1050" y="1039" on="1"/>
        <pt x="1031" y="899" on="1"/>
        <pt x="520" y="899" on="1"/>
        <pt x="512" y="851" on="0"/>
        <pt x="503" y="749" on="0"/>
        <pt x="501" y="695" on="1"/>
        <pt x="979" y="695" on="1"/>
        <pt x="966" y="554" on="1"/>
        <pt x="501" y="554" on="1"/>
        <pt x="509" y="349" on="0"/>
        <pt x="642" y="124" on="0"/>
        <pt x="767" y="124" on="1"/>
        <pt x="855" y="124" on="0"/>
        <pt x="983" y="170" on="0"/>
        <pt x="1017" y="215" on="1"/>
        <pt x="1087" y="377" on="1"/>
        <pt x="1217" y="376" on="1"/>
        <pt x="1169" y="70" on="1"/>
        <pt x="1140" y="68" on="0"/>
        <pt x="1063" y="54" on="0"/>
        <pt x="1026" y="44" on="1"/>
        <pt x="997" y="35" on="0"/>
        <pt x="932" y="14" on="0"/>
        <pt x="857" y="-4" on="0"/>
        <pt x="770" y="-16" on="0"/>
        <pt x="718" y="-16" on="1"/>
        <pt x="597" y="-16" on="0"/>
        <pt x="422" y="75" on="0"/>
        <pt x="304" y="231" on="0"/>
        <pt x="241" y="438" on="0"/>
        <pt x="232" y="554" on="1"/>
        <pt x="32" y="554" on="1"/>
      </contour>
    </TTGlyph>
    <TTGlyph name="F" xMin="5" yMin="0" xMax="1247" yMax="1530">
      <contour>
        <pt x="14" y="97" on="1"/>
        <pt x="158" y="126" on="1"/>
        <pt x="320" y="1400" on="1"/>
        <pt x="181" y="1425" on="1"/>
        <pt x="194" y="1530" on="1"/>
        <pt x="1247" y="1530" on="1"/>
        <pt x="1213" y="1184" on="1"/>
        <pt x="1042" y="1184" on="1"/>
        <pt x="1018" y="1396" on="1"/>
        <pt x="597" y="1415" on="1"/>
        <pt x="526" y="857" on="1"/>
        <pt x="1002" y="880" on="1"/>
        <pt x="983" y="683" on="1"/>
        <pt x="510" y="711" on="1"/>
        <pt x="433" y="127" on="1"/>
        <pt x="731" y="97" on="1"/>
        <pt x="723" y="0" on="1"/>
        <pt x="5" y="0" on="1"/>
      </contour>
    </TTGlyph>
    <TTGlyph name="G" xMin="77" yMin="-16" xMax="1336" yMax="1548">
      <contour>
        <pt x="619" y="-16" on="1"/>
        <pt x="524" y="-16" on="0"/>
        <pt x="371" y="34" on="0"/>
        <pt x="253" y="123" on="0"/>
        <pt x="167" y="244" on="0"/>
        <pt x="111" y="387" on="0"/>
        <pt x="82" y="546" on="0"/>
        <pt x="81" y="627" on="1"/>
        <pt x="77" y="832" on="0"/>
        <pt x="188" y="1172" on="0"/>
        <pt x="395" y="1414" on="0"/>
        <pt x="689" y="1548" on="0"/>
        <pt x="869" y="1548" on="1"/>
        <pt x="954" y="1548" on="0"/>
        <pt x="1083" y="1536" on="0"/>
        <pt x="1182" y="1518" on="0"/>
        <pt x="1256" y="1498" on="0"/>
        <pt x="1286" y="1490" on="1"/>
        <pt x="1336" y="1479" on="1"/>
        <pt x="1274" y="1153" on="1"/>
        <pt x="1087" y="1153" on="1"/>
        <pt x="1072" y="1373" on="1"/>
        <pt x="1036" y="1396" on="0"/>
        <pt x="933" y="1424" on="0"/>
        <pt x="859" y="1424" on="1"/>
        <pt x="765" y="1424" on="0"/>
        <pt x="619" y="1359" on="0"/>
        <pt x="510" y="1246" on="0"/>
        <pt x="436" y="1095" on="0"/>
        <pt x="390" y="924" on="0"/>
        <pt x="371" y="741" on="0"/>
        <pt x="372" y="653" on="1"/>
        <pt x="373" y="549" on="0"/>
        <pt x="408" y="356" on="0"/>
        <pt x="483" y="207" on="0"/>
        <pt x="600" y="118" on="0"/>
        <pt x="682" y="118" on="1"/>
        <pt x="757" y="118" on="0"/>
        <pt x="887" y="139" on="0"/>
        <pt x="941" y="170" on="1"/>
        <pt x="994" y="590" on="1"/>
        <pt x="776" y="607" on="1"/>
        <pt x="792" y="738" on="1"/>
        <pt x="1288" y="738" on="1"/>
        <pt x="1203" y="89" on="1"/>
        <pt x="1172" y="86" on="0"/>
        <pt x="1087" y="68" on="0"/>
        <pt x="1044" y="56" on="1"/>
        <pt x="1003" y="45" on="0"/>
        <pt x="909" y="19" on="0"/>
        <pt x="802" y="-2" on="0"/>
        <pt x="684" y="-16" on="0"/>
      </contour>
    </TTGlyph>
    <TTGlyph name="Gbreve" xMin="77" yMin="-16" xMax="1336" yMax="1997">
      <component glyphName="breve.cap" x="525" y="0" flags="0x4"/>
      <component glyphName="G" x="0" y="0" flags="0x4"/>
    </TTGlyph>
    <TTGlyph name="Gcircumflex" xMin="77" yMin="-16" xMax="1336" yMax="2007">
      <component glyphName="G" x="0" y="0" flags="0x204"/>
      <component glyphName="circumflex.cap" x="480" y="0" flags="0x4"/>
    </TTGlyph>
    <TTGlyph name="Gcommaaccent" xMin="77" yMin="-560" xMax="1336" yMax="1548">
      <component glyphName="commaaccent" x="505" y="0" flags="0x4"/>
      <component glyphName="G" x="0" y="0" flags="0x4"/>
    </TTGlyph>
    <TTGlyph name="Gdotaccent" xMin="77" yMin="-16" xMax="1336" yMax="1965">
      <component glyphName="dotaccent.cap" x="695" y="0" flags="0x4"/>
      <component glyphName="G" x="0" y="0" flags="0x4"/>
    </TTGlyph>
    <TTGlyph name="H" xMin="5" yMin="0" xMax="1632" yMax="1530">
      <contour>
        <pt x="15" y="96" on="1"/>
        <pt x="158" y="126" on="1"/>
        <pt x="321" y="1400" on="1"/>
        <pt x="182" y="1425" on="1"/>
        <pt x="195" y="1530" on="1"/>
        <pt x="774" y="1530" on="1"/>
        <pt x="763" y="1425" on="1"/>
        <pt x="596" y="1400" on="1"/>
        <pt x="525" y="849" on="1"/>
        <pt x="1128" y="849" on="1"/>
        <pt x="1199" y="1400" on="1"/>
        <pt x="1036" y="1425" on="1"/>
        <pt x="1047" y="1530" on="1"/>
        <pt x="1632" y="1530" on="1"/>
        <pt x="1620" y="1425" on="1"/>
        <pt x="1474" y="1400" on="1"/>
        <pt x="1311" y="127" on="1"/>
        <pt x="1465" y="96" on="1"/>
        <pt x="1455" y="0" on="1"/>
        <pt x="848" y="0" on="1"/>
        <pt x="859" y="97" on="1"/>
        <pt x="1036" y="127" on="1"/>
        <pt x="1110" y="709" on="1"/>
        <pt x="507" y="709" on="1"/>
        <pt x="433" y="126" on="1"/>
        <pt x="598" y="97" on="1"/>
        <pt x="590" y="0" on="1"/>
        <pt x="5" y="0" on="1"/>
      </contour>
    </TTGlyph>
    <TTGlyph name="Hbar" xMin="-1" yMin="0" xMax="1624" yMax="1530">
      <contour>
        <pt x="10" y="96" on="1"/>
        <pt x="153" y="126" on="1"/>
        <pt x="260" y="983" on="1"/>
        <pt x="76" y="983" on="1"/>
        <pt x="90" y="1123" on="1"/>
        <pt x="278" y="1123" on="1"/>
        <pt x="313" y="1400" on="1"/>
        <pt x="174" y="1425" on="1"/>
        <pt x="187" y="1530" on="1"/>
        <pt x="766" y="1530" on="1"/>
        <pt x="755" y="1425" on="1"/>
        <pt x="588" y="1400" on="1"/>
        <pt x="553" y="1123" on="1"/>
        <pt x="1156" y="1123" on="1"/>
        <pt x="1191" y="1400" on="1"/>
        <pt x="1028" y="1425" on="1"/>
        <pt x="1039" y="1530" on="1"/>
        <pt x="1624" y="1530" on="1"/>
        <pt x="1612" y="1425" on="1"/>
        <pt x="1466" y="1400" on="1"/>
        <pt x="1431" y="1123" on="1"/>
        <pt x="1622" y="1123" on="1"/>
        <pt x="1608" y="983" on="1"/>
        <pt x="1413" y="983" on="1"/>
        <pt x="1306" y="127" on="1"/>
        <pt x="1460" y="96" on="1"/>
        <pt x="1450" y="0" on="1"/>
        <pt x="843" y="0" on="1"/>
        <pt x="854" y="97" on="1"/>
        <pt x="1031" y="127" on="1"/>
        <pt x="1092" y="613" on="1"/>
        <pt x="489" y="613" on="1"/>
        <pt x="428" y="126" on="1"/>
        <pt x="593" y="97" on="1"/>
        <pt x="585" y="0" on="1"/>
        <pt x="-1" y="0" on="1"/>
      </contour>
      <contour>
        <pt x="1110" y="758" on="1"/>
        <pt x="1138" y="983" on="1"/>
        <pt x="535" y="983" on="1"/>
        <pt x="507" y="758" on="1"/>
      </contour>
    </TTGlyph>
    <TTGlyph name="Hcircumflex" xMin="5" yMin="0" xMax="1632" yMax="2007">
      <component glyphName="H" x="0" y="0" flags="0x204"/>
      <component glyphName="circumflex.cap" x="541" y="0" flags="0x4"/>
    </TTGlyph>
    <TTGlyph name="I" xMin="6" yMin="0" xMax="778" yMax="1530">
      <contour>
        <pt x="17" y="96" on="1"/>
        <pt x="166" y="126" on="1"/>
        <pt x="329" y="1400" on="1"/>
        <pt x="189" y="1425" on="1"/>
        <pt x="201" y="1530" on="1"/>
        <pt x="778" y="1530" on="1"/>
        <pt x="767" y="1425" on="1"/>
        <pt x="604" y="1400" on="1"/>
        <pt x="441" y="126" on="1"/>
        <pt x="607" y="97" on="1"/>
        <pt x="600" y="0" on="1"/>
        <pt x="6" y="0" on="1"/>
      </contour>
    </TTGlyph>
    <TTGlyph name="IJ" xMin="6" yMin="-345" xMax="1519" yMax="1530">
      <component glyphName="I" x="0" y="0" flags="0x4"/>
      <component glyphName="J" x="744" y="0" flags="0x4"/>
    </TTGlyph>
    <TTGlyph name="Iacute" xMin="6" yMin="0" xMax="879" yMax="2007">
      <component glyphName="I" x="0" y="0" flags="0x204"/>
      <component glyphName="acute.cap" x="391" y="0" flags="0x4"/>
    </TTGlyph>
    <TTGlyph name="Ibreve" xMin="6" yMin="0" xMax="868" yMax="1997">
      <component glyphName="I" x="0" y="0" flags="0x204"/>
      <component glyphName="breve.cap" x="175" y="0" flags="0x4"/>
    </TTGlyph>
    <TTGlyph name="Icircumflex" xMin="6" yMin="0" xMax="905" yMax="2007">
      <component glyphName="I" x="0" y="0" flags="0x204"/>
      <component glyphName="circumflex.cap" x="130" y="0" flags="0x4"/>
    </TTGlyph>
    <TTGlyph name="Idieresis" xMin="6" yMin="0" xMax="903" yMax="1972">
      <component glyphName="I" x="0" y="0" flags="0x204"/>
      <component glyphName="dieresis.cap" x="139" y="0" flags="0x4"/>
    </TTGlyph>
    <TTGlyph name="Idotaccent" xMin="6" yMin="0" xMax="778" yMax="1965">
      <component glyphName="I" x="0" y="0" flags="0x204"/>
      <component glyphName="dotaccent.cap" x="345" y="0" flags="0x4"/>
    </TTGlyph>
    <TTGlyph name="Igrave" xMin="6" yMin="0" xMax="778" yMax="2007">
      <component glyphName="I" x="0" y="0" flags="0x204"/>
      <component glyphName="grave.cap" x="151" y="0" flags="0x4"/>
    </TTGlyph>
    <TTGlyph name="Imacron" xMin="6" yMin="0" xMax="797" yMax="1897">
      <component glyphName="I" x="0" y="0" flags="0x204"/>
      <component glyphName="macron.cap" x="204" y="0" flags="0x4"/>
    </TTGlyph>
    <TTGlyph name="Iogonek" xMin="-50" yMin="-448" xMax="751" yMax="1530">
      <contour>
        <pt x="-10" y="96" on="1"/>
        <pt x="139" y="126" on="1"/>
        <pt x="302" y="1400" on="1"/>
        <pt x="162" y="1425" on="1"/>
        <pt x="174" y="1530" on="1"/>
        <pt x="751" y="1530" on="1"/>
        <pt x="740" y="1425" on="1"/>
        <pt x="577" y="1400" on="1"/>
        <pt x="414" y="126" on="1"/>
        <pt x="580" y="97" on="1"/>
        <pt x="573" y="0" on="1"/>
        <pt x="365" y="0" on="1"/>
        <pt x="328" y="-28" on="0"/>
        <pt x="264" y="-82" on="0"/>
        <pt x="217" y="-134" on="0"/>
        <pt x="189" y="-184" on="0"/>
        <pt x="189" y="-208" on="1"/>
        <pt x="188" y="-231" on="0"/>
        <pt x="198" y="-261" on="0"/>
        <pt x="215" y="-279" on="0"/>
        <pt x="237" y="-287" on="0"/>
        <pt x="249" y="-287" on="1"/>
        <pt x="283" y="-287" on="0"/>
        <pt x="348" y="-253" on="0"/>
        <pt x="390" y="-220" on="1"/>
        <pt x="421" y="-324" on="1"/>
        <pt x="396" y="-348" on="0"/>
        <pt x="334" y="-393" on="0"/>
        <pt x="260" y="-428" on="0"/>
        <pt x="173" y="-448" on="0"/>
        <pt x="124" y="-448" on="1"/>
        <pt x="80" y="-448" on="0"/>
        <pt x="14" y="-423" on="0"/>
        <pt x="-29" y="-381" on="0"/>
        <pt x="-50" y="-325" on="0"/>
        <pt x="-49" y="-293" on="1"/>
        <pt x="-48" y="-265" on="0"/>
        <pt x="-26" y="-195" on="0"/>
        <pt x="-6" y="-169" on="1"/>
        <pt x="19" y="-134" on="0"/>
        <pt x="71" y="-82" on="0"/>
        <pt x="123" y="-43" on="0"/>
        <pt x="175" y="-13" on="0"/>
        <pt x="200" y="0" on="1"/>
        <pt x="-21" y="0" on="1"/>
      </contour>
    </TTGlyph>
    <TTGlyph name="Itilde" xMin="6" yMin="0" xMax="947" yMax="1970">
      <component glyphName="I" x="0" y="0" flags="0x204"/>
      <component glyphName="tilde.cap" x="139" y="0" flags="0x4"/>
    </TTGlyph>
    <TTGlyph name="J" xMin="-178" yMin="-345" xMax="775" yMax="1530">
      <contour>
        <pt x="161" y="86" on="1"/>
        <pt x="191" y="232" on="0"/>
        <pt x="238" y="557" on="0"/>
        <pt x="278" y="895" on="0"/>
        <pt x="314" y="1237" on="0"/>
        <pt x="333" y="1400" on="1"/>
        <pt x="186" y="1425" on="1"/>
        <pt x="200" y="1530" on="1"/>
        <pt x="775" y="1530" on="1"/>
        <pt x="764" y="1425" on="1"/>
        <pt x="603" y="1401" on="1"/>
        <pt x="585" y="1247" on="0"/>
        <pt x="551" y="944" on="0"/>
        <pt x="518" y="665" on="0"/>
        <pt x="488" y="420" on="0"/>
        <pt x="462" y="228" on="0"/>
        <pt x="440" y="99" on="0"/>
        <pt x="432" y="75" on="1"/>
        <pt x="400" y="-20" on="0"/>
        <pt x="283" y="-165" on="0"/>
        <pt x="132" y="-268" on="0"/>
        <pt x="-44" y="-332" on="0"/>
        <pt x="-134" y="-345" on="1"/>
        <pt x="-178" y="-247" on="1"/>
        <pt x="-103" y="-225" on="0"/>
        <pt x="14" y="-152" on="0"/>
        <pt x="98" y="-63" on="0"/>
        <pt x="151" y="37" on="0"/>
      </contour>
    </TTGlyph>
    <TTGlyph name="Jcircumflex" xMin="-178" yMin="-345" xMax="892" yMax="2007">
      <component glyphName="J" x="0" y="0" flags="0x204"/>
      <component glyphName="circumflex.cap" x="117" y="0" flags="0x4"/>
    </TTGlyph>
    <TTGlyph name="K" xMin="-1" yMin="0" xMax="1471" yMax="1530">
      <contour>
        <pt x="11" y="96" on="1"/>
        <pt x="158" y="126" on="1"/>
        <pt x="321" y="1400" on="1"/>
        <pt x="182" y="1425" on="1"/>
        <pt x="195" y="1530" on="1"/>
        <pt x="774" y="1530" on="1"/>
        <pt x="762" y="1425" on="1"/>
        <pt x="596" y="1400" on="1"/>
        <pt x="507" y="705" on="1"/>
        <pt x="1124" y="1400" on="1"/>
        <pt x="993" y="1425" on="1"/>
        <pt x="1004" y="1530" on="1"/>
        <pt x="1471" y="1530" on="1"/>
        <pt x="1460" y="1425" on="1"/>
        <pt x="1340" y="1401" on="1"/>
        <pt x="835" y="870" on="1"/>
        <pt x="859" y="832" on="0"/>
        <pt x="924" y="720" on="0"/>
        <pt x="991" y="601" on="0"/>
        <pt x="1051" y="490" on="0"/>
        <pt x="1071" y="453" on="1"/>
        <pt x="1110" y="379" on="0"/>
        <pt x="1170" y="270" on="0"/>
        <pt x="1218" y="194" on="0"/>
        <pt x="1255" y="148" on="0"/>
        <pt x="1272" y="139" on="1"/>
        <pt x="1401" y="100" on="1"/>
        <pt x="1388" y="0" on="1"/>
        <pt x="1035" y="0" on="1"/>
        <pt x="1014" y="3" on="0"/>
        <pt x="977" y="40" on="0"/>
        <pt x="937" y="110" on="0"/>
        <pt x="890" y="213" on="0"/>
        <pt x="859" y="281" on="1"/>
        <pt x="840" y="323" on="0"/>
        <pt x="792" y="429" on="0"/>
        <pt x="740" y="540" on="0"/>
        <pt x="688" y="647" on="0"/>
        <pt x="665" y="691" on="1"/>
        <pt x="480" y="497" on="1"/>
        <pt x="433" y="126" on="1"/>
        <pt x="598" y="97" on="1"/>
        <pt x="590" y="0" on="1"/>
        <pt x="-1" y="0" on="1"/>
      </contour>
    </TTGlyph>
    <TTGlyph name="Kcommaaccent" xMin="-5" yMin="-558" xMax="1467" yMax="1530">
      <component glyphName="commaaccent" x="537" y="2" flags="0x4"/>
      <component glyphName="K" x="-4" y="0" flags="0x4"/>
    </TTGlyph>
    <TTGlyph name="L" xMin="5" yMin="0" xMax="1153" yMax="1530">
      <contour>
        <pt x="15" y="97" on="1"/>
        <pt x="158" y="126" on="1"/>
        <pt x="321" y="1400" on="1"/>
        <pt x="181" y="1425" on="1"/>
        <pt x="194" y="1530" on="1"/>
        <pt x="792" y="1530" on="1"/>
        <pt x="781" y="1425" on="1"/>
        <pt x="596" y="1400" on="1"/>
        <pt x="432" y="123" on="1"/>
        <pt x="841" y="138" on="1"/>
        <pt x="1004" y="527" on="1"/>
        <pt x="1153" y="504" on="1"/>
        <pt x="1063" y="0" on="1"/>
        <pt x="5" y="0" on="1"/>
      </contour>
    </TTGlyph>
    <TTGlyph name="Lacute" xMin="1" yMin="0" xMax="1149" yMax="2009">
      <component glyphName="acute.cap" x="405" y="2" flags="0x4"/>
      <component glyphName="L" x="-4" y="0" flags="0x4"/>
    </TTGlyph>
    <TTGlyph name="Lcaron" xMin="1" yMin="0" xMax="1176" yMax="1651">
      <component glyphName="L" x="-4" y="0" flags="0x4"/>
      <component glyphName="caronvertical" x="719" y="-29" flags="0x4"/>
    </TTGlyph>
    <TTGlyph name="Lcommaaccent" xMin="1" yMin="-558" xMax="1149" yMax="1530">
      <component glyphName="commaaccent" x="402" y="2" flags="0x4"/>
      <component glyphName="L" x="-4" y="0" flags="0x4"/>
    </TTGlyph>
    <TTGlyph name="Ldot" xMin="1" yMin="0" xMax="1164" yMax="1530">
      <component glyphName="L" x="-4" y="0" flags="0x4"/>
      <component glyphName="period" x="780" y="773" flags="0x4"/>
    </TTGlyph>
    <TTGlyph name="Lslash" xMin="1" yMin="2" xMax="1149" yMax="1532">
      <contour>
        <pt x="11" y="99" on="1"/>
        <pt x="154" y="128" on="1"/>
        <pt x="207" y="545" on="1"/>
        <pt x="54" y="483" on="1"/>
        <pt x="18" y="601" on="1"/>
        <pt x="225" y="688" on="1"/>
        <pt x="317" y="1402" on="1"/>
        <pt x="177" y="1427" on="1"/>
        <pt x="190" y="1532" on="1"/>
        <pt x="788" y="1532" on="1"/>
        <pt x="777" y="1427" on="1"/>
        <pt x="592" y="1402" on="1"/>
        <pt x="515" y="809" on="1"/>
        <pt x="869" y="957" on="1"/>
        <pt x="904" y="830" on="1"/>
        <pt x="497" y="664" on="1"/>
        <pt x="428" y="125" on="1"/>
        <pt x="837" y="140" on="1"/>
        <pt x="1000" y="529" on="1"/>
        <pt x="1149" y="506" on="1"/>
        <pt x="1059" y="2" on="1"/>
        <pt x="1" y="2" on="1"/>
      </contour>
    </TTGlyph>
    <TTGlyph name="M" xMin="-69" yMin="-18" xMax="1961" yMax="1530">
      <contour>
        <pt x="-58" y="97" on="1"/>
        <pt x="113" y="126" on="1"/>
        <pt x="429" y="1400" on="1"/>
        <pt x="252" y="1425" on="1"/>
        <pt x="266" y="1530" on="1"/>
        <pt x="828" y="1530" on="1"/>
        <pt x="968" y="575" on="1"/>
        <pt x="986" y="406" on="1"/>
        <pt x="1039" y="575" on="1"/>
        <pt x="1053" y="608" on="0"/>
        <pt x="1096" y="710" on="0"/>
        <pt x="1149" y="837" on="0"/>
        <pt x="1210" y="980" on="0"/>
        <pt x="1272" y="1126" on="0"/>
        <pt x="1333" y="1269" on="0"/>
        <pt x="1386" y="1395" on="0"/>
        <pt x="1429" y="1497" on="0"/>
        <pt x="1443" y="1530" on="1"/>
        <pt x="1961" y="1530" on="1"/>
        <pt x="1949" y="1425" on="1"/>
        <pt x="1774" y="1400" on="1"/>
        <pt x="1742" y="127" on="1"/>
        <pt x="1920" y="97" on="1"/>
        <pt x="1912" y="0" on="1"/>
        <pt x="1281" y="0" on="1"/>
        <pt x="1290" y="98" on="1"/>
        <pt x="1462" y="126" on="1"/>
        <pt x="1517" y="1011" on="1"/>
        <pt x="1535" y="1381" on="1"/>
        <pt x="1407" y="1059" on="1"/>
        <pt x="948" y="-3" on="1"/>
        <pt x="809" y="-18" on="1"/>
        <pt x="640" y="1035" on="1"/>
        <pt x="591" y="1382" on="1"/>
        <pt x="517" y="1025" on="1"/>
        <pt x="319" y="126" on="1"/>
        <pt x="517" y="97" on="1"/>
        <pt x="507" y="0" on="1"/>
        <pt x="-69" y="0" on="1"/>
      </contour>
    </TTGlyph>
    <TTGlyph name="N" xMin="1" yMin="0" xMax="1596" yMax="1530">
      <contour>
        <pt x="9" y="96" on="1"/>
        <pt x="151" y="125" on="1"/>
        <pt x="329" y="1400" on="1"/>
        <pt x="171" y="1425" on="1"/>
        <pt x="187" y="1530" on="1"/>
        <pt x="635" y="1530" on="1"/>
        <pt x="1059" y="477" on="1"/>
        <pt x="1128" y="265" on="1"/>
        <pt x="1264" y="1401" on="1"/>
        <pt x="1108" y="1425" on="1"/>
        <pt x="1120" y="1530" on="1"/>
        <pt x="1596" y="1530" on="1"/>
        <pt x="1586" y="1425" on="1"/>
        <pt x="1451" y="1400" on="1"/>
        <pt x="1244" y="0" on="1"/>
        <pt x="971" y="0" on="1"/>
        <pt x="536" y="1062" on="1"/>
        <pt x="469" y="1280" on="1"/>
        <pt x="346" y="126" on="1"/>
        <pt x="518" y="97" on="1"/>
        <pt x="509" y="0" on="1"/>
        <pt x="1" y="0" on="1"/>
      </contour>
    </TTGlyph>
    <TTGlyph name="Nacute" xMin="1" yMin="0" xMax="1596" yMax="2007">
      <component glyphName="acute.cap" x="788" y="0" flags="0x4"/>
      <component glyphName="N" x="0" y="0" flags="0x4"/>
    </TTGlyph>
    <TTGlyph name="Ncaron" xMin="1" yMin="0" xMax="1596" yMax="2007">
      <component glyphName="caron.cap" x="527" y="0" flags="0x4"/>
      <component glyphName="N" x="0" y="0" flags="0x4"/>
    </TTGlyph>
    <TTGlyph name="Ncommaaccent" xMin="1" yMin="-560" xMax="1596" yMax="1530">
      <component glyphName="commaaccent" x="519" y="0" flags="0x4"/>
      <component glyphName="N" x="0" y="0" flags="0x4"/>
    </TTGlyph>
    <TTGlyph name="Ntilde" xMin="1" yMin="0" xMax="1596" yMax="1970">
      <component glyphName="tilde.cap" x="536" y="0" flags="0x4"/>
      <component glyphName="N" x="0" y="0" flags="0x4"/>
    </TTGlyph>
    <TTGlyph name="O" xMin="80" yMin="-20" xMax="1387" yMax="1550">
      <contour>
        <pt x="81" y="629" on="1"/>
        <pt x="80" y="753" on="0"/>
        <pt x="125" y="987" on="0"/>
        <pt x="214" y="1191" on="0"/>
        <pt x="345" y="1361" on="0"/>
        <pt x="513" y="1483" on="0"/>
        <pt x="718" y="1550" on="0"/>
        <pt x="836" y="1550" on="1"/>
        <pt x="977" y="1550" on="0"/>
        <pt x="1183" y="1444" on="0"/>
        <pt x="1318" y="1265" on="0"/>
        <pt x="1385" y="1029" on="0"/>
        <pt x="1386" y="898" on="1"/>
        <pt x="1387" y="776" on="0"/>
        <pt x="1345" y="546" on="0"/>
        <pt x="1261" y="342" on="0"/>
        <pt x="1134" y="171" on="0"/>
        <pt x="968" y="48" on="0"/>
        <pt x="761" y="-20" on="0"/>
        <pt x="639" y="-20" on="1"/>
        <pt x="503" y="-20" on="0"/>
        <pt x="296" y="74" on="0"/>
        <pt x="155" y="245" on="0"/>
        <pt x="82" y="484" on="0"/>
      </contour>
      <contour>
        <pt x="668" y="101" on="1"/>
        <pt x="768" y="101" on="0"/>
        <pt x="928" y="219" on="0"/>
        <pt x="1039" y="428" on="0"/>
        <pt x="1096" y="710" on="0"/>
        <pt x="1095" y="873" on="1"/>
        <pt x="1094" y="1005" on="0"/>
        <pt x="1058" y="1210" on="0"/>
        <pt x="986" y="1352" on="0"/>
        <pt x="878" y="1426" on="0"/>
        <pt x="805" y="1426" on="1"/>
        <pt x="740" y="1426" on="0"/>
        <pt x="625" y="1370" on="0"/>
        <pt x="528" y="1270" on="0"/>
        <pt x="452" y="1131" on="0"/>
        <pt x="400" y="965" on="0"/>
        <pt x="373" y="778" on="0"/>
        <pt x="374" y="680" on="1"/>
        <pt x="375" y="561" on="0"/>
        <pt x="403" y="351" on="0"/>
        <pt x="469" y="193" on="0"/>
        <pt x="582" y="101" on="0"/>
      </contour>
    </TTGlyph>
    <TTGlyph name="OE" xMin="78" yMin="-20" xMax="2173" yMax="1549">
      <contour>
        <pt x="632" y="-20" on="1"/>
        <pt x="496" y="-20" on="0"/>
        <pt x="290" y="74" on="0"/>
        <pt x="151" y="245" on="0"/>
        <pt x="80" y="484" on="0"/>
        <pt x="79" y="629" on="1"/>
        <pt x="78" y="753" on="0"/>
        <pt x="122" y="987" on="0"/>
        <pt x="210" y="1191" on="0"/>
        <pt x="340" y="1360" on="0"/>
        <pt x="508" y="1482" on="0"/>
        <pt x="712" y="1549" on="0"/>
        <pt x="830" y="1549" on="1"/>
        <pt x="914" y="1549" on="0"/>
        <pt x="1049" y="1509" on="0"/>
        <pt x="1154" y="1435" on="0"/>
        <pt x="1230" y="1333" on="0"/>
        <pt x="1256" y="1270" on="1"/>
        <pt x="1289" y="1530" on="1"/>
        <pt x="2161" y="1530" on="1"/>
        <pt x="2140" y="1190" on="1"/>
        <pt x="1981" y="1190" on="1"/>
        <pt x="1940" y="1396" on="1"/>
        <pt x="1545" y="1416" on="1"/>
        <pt x="1475" y="868" on="1"/>
        <pt x="1916" y="883" on="1"/>
        <pt x="1898" y="696" on="1"/>
        <pt x="1459" y="717" on="1"/>
        <pt x="1379" y="126" on="1"/>
        <pt x="1897" y="156" on="1"/>
        <pt x="2015" y="408" on="1"/>
        <pt x="2173" y="385" on="1"/>
        <pt x="2094" y="0" on="1"/>
        <pt x="1098" y="0" on="1"/>
        <pt x="1124" y="212" on="1"/>
        <pt x="1040" y="105" on="0"/>
        <pt x="795" y="-20" on="0"/>
      </contour>
      <contour>
        <pt x="660" y="101" on="1"/>
        <pt x="760" y="101" on="0"/>
        <pt x="921" y="219" on="0"/>
        <pt x="1032" y="428" on="0"/>
        <pt x="1090" y="710" on="0"/>
        <pt x="1089" y="873" on="1"/>
        <pt x="1087" y="1144" on="0"/>
        <pt x="946" y="1424" on="0"/>
        <pt x="800" y="1424" on="1"/>
        <pt x="735" y="1424" on="0"/>
        <pt x="619" y="1368" on="0"/>
        <pt x="522" y="1269" on="0"/>
        <pt x="446" y="1130" on="0"/>
        <pt x="393" y="965" on="0"/>
        <pt x="365" y="778" on="0"/>
        <pt x="366" y="680" on="1"/>
        <pt x="367" y="561" on="0"/>
        <pt x="395" y="351" on="0"/>
        <pt x="461" y="193" on="0"/>
        <pt x="574" y="101" on="0"/>
      </contour>
    </TTGlyph>
    <TTGlyph name="Oacute" xMin="80" yMin="-20" xMax="1387" yMax="2007">
      <component glyphName="acute.cap" x="722" y="0" flags="0x4"/>
      <component glyphName="O" x="0" y="0" flags="0x4"/>
    </TTGlyph>
    <TTGlyph name="Obreve" xMin="80" yMin="-20" xMax="1387" yMax="1997">
      <component glyphName="breve.cap" x="506" y="0" flags="0x4"/>
      <component glyphName="O" x="0" y="0" flags="0x4"/>
    </TTGlyph>
    <TTGlyph name="Ocircumflex" xMin="80" yMin="-20" xMax="1387" yMax="2007">
      <component glyphName="O" x="0" y="0" flags="0x204"/>
      <component glyphName="circumflex.cap" x="461" y="0" flags="0x4"/>
    </TTGlyph>
    <TTGlyph name="Odieresis" xMin="80" yMin="-20" xMax="1387" yMax="1972">
      <component glyphName="dieresis.cap" x="470" y="0" flags="0x4"/>
      <component glyphName="O" x="0" y="0" flags="0x4"/>
    </TTGlyph>
    <TTGlyph name="Ograve" xMin="80" yMin="-20" xMax="1387" yMax="2007">
      <component glyphName="grave.cap" x="482" y="0" flags="0x4"/>
      <component glyphName="O" x="0" y="0" flags="0x4"/>
    </TTGlyph>
    <TTGlyph name="Ohungarumlaut" xMin="80" yMin="-20" xMax="1418" yMax="2007">
      <component glyphName="O" x="0" y="0" flags="0x204"/>
      <component glyphName="hungarumlaut.cap" x="506" y="0" flags="0x4"/>
    </TTGlyph>
    <TTGlyph name="Omacron" xMin="80" yMin="-20" xMax="1387" yMax="1897">
      <component glyphName="macron.cap" x="535" y="0" flags="0x4"/>
      <component glyphName="O" x="0" y="0" flags="0x4"/>
    </TTGlyph>
    <TTGlyph name="Omega" xMin="-46" yMin="0" xMax="1656" yMax="1547">
      <contour>
        <pt x="-36" y="400" on="1"/>
        <pt x="104" y="391" on="1"/>
        <pt x="130" y="166" on="1"/>
        <pt x="439" y="166" on="1"/>
        <pt x="386" y="214" on="0"/>
        <pt x="281" y="360" on="0"/>
        <pt x="199" y="535" on="0"/>
        <pt x="153" y="730" on="0"/>
        <pt x="158" y="828" on="1"/>
        <pt x="167" y="990" on="0"/>
        <pt x="279" y="1255" on="0"/>
        <pt x="475" y="1444" on="0"/>
        <pt x="752" y="1547" on="0"/>
        <pt x="925" y="1547" on="1"/>
        <pt x="1067" y="1547" on="0"/>
        <pt x="1300" y="1467" on="0"/>
        <pt x="1461" y="1313" on="0"/>
        <pt x="1542" y="1087" on="0"/>
        <pt x="1533" y="941" on="1"/>
        <pt x="1528" y="846" on="0"/>
        <pt x="1464" y="634" on="0"/>
        <pt x="1357" y="428" on="0"/>
        <pt x="1213" y="243" on="0"/>
        <pt x="1130" y="176" on="1"/>
        <pt x="1433" y="176" on="1"/>
        <pt x="1513" y="419" on="1"/>
        <pt x="1656" y="415" on="1"/>
        <pt x="1587" y="0" on="1"/>
        <pt x="917" y="0" on="1"/>
        <pt x="877" y="139" on="1"/>
        <pt x="955" y="188" on="0"/>
        <pt x="1088" y="345" on="0"/>
        <pt x="1188" y="548" on="0"/>
        <pt x="1249" y="786" on="0"/>
        <pt x="1254" y="916" on="1"/>
        <pt x="1260" y="1025" on="0"/>
        <pt x="1215" y="1212" on="0"/>
        <pt x="1120" y="1348" on="0"/>
        <pt x="979" y="1425" on="0"/>
        <pt x="889" y="1425" on="1"/>
        <pt x="783" y="1425" on="0"/>
        <pt x="617" y="1341" on="0"/>
        <pt x="500" y="1185" on="0"/>
        <pt x="433" y="963" on="0"/>
        <pt x="427" y="826" on="1"/>
        <pt x="423" y="751" on="0"/>
        <pt x="442" y="604" on="0"/>
        <pt x="478" y="467" on="0"/>
        <pt x="529" y="344" on="0"/>
        <pt x="588" y="241" on="0"/>
        <pt x="649" y="163" on="0"/>
        <pt x="678" y="139" on="1"/>
        <pt x="623" y="0" on="1"/>
        <pt x="-46" y="0" on="1"/>
      </contour>
    </TTGlyph>
    <TTGlyph name="Oslash" xMin="80" yMin="-127" xMax="1387" yMax="1670">
      <contour>
        <pt x="237" y="147" on="1"/>
        <pt x="161" y="234" on="0"/>
        <pt x="83" y="479" on="0"/>
        <pt x="81" y="631" on="1"/>
        <pt x="80" y="755" on="0"/>
        <pt x="125" y="989" on="0"/>
        <pt x="214" y="1193" on="0"/>
        <pt x="345" y="1363" on="0"/>
        <pt x="513" y="1485" on="0"/>
        <pt x="718" y="1552" on="0"/>
        <pt x="836" y="1552" on="1"/>
        <pt x="922" y="1552" on="0"/>
        <pt x="1065" y="1512" on="0"/>
        <pt x="1123" y="1475" on="1"/>
        <pt x="1258" y="1670" on="1"/>
        <pt x="1347" y="1621" on="1"/>
        <pt x="1203" y="1411" on="1"/>
        <pt x="1295" y="1319" on="0"/>
        <pt x="1384" y="1053" on="0"/>
        <pt x="1386" y="900" on="1"/>
        <pt x="1387" y="778" on="0"/>
        <pt x="1345" y="548" on="0"/>
        <pt x="1261" y="344" on="0"/>
        <pt x="1134" y="173" on="0"/>
        <pt x="968" y="50" on="0"/>
        <pt x="761" y="-18" on="0"/>
        <pt x="639" y="-18" on="1"/>
        <pt x="540" y="-18" on="0"/>
        <pt x="378" y="31" on="0"/>
        <pt x="313" y="78" on="1"/>
        <pt x="173" y="-127" on="1"/>
        <pt x="84" y="-78" on="1"/>
      </contour>
      <contour>
        <pt x="1002" y="1317" on="1"/>
        <pt x="967" y="1371" on="0"/>
        <pt x="869" y="1428" on="0"/>
        <pt x="805" y="1428" on="1"/>
        <pt x="740" y="1428" on="0"/>
        <pt x="625" y="1372" on="0"/>
        <pt x="528" y="1272" on="0"/>
        <pt x="452" y="1133" on="0"/>
        <pt x="400" y="967" on="0"/>
        <pt x="373" y="780" on="0"/>
        <pt x="374" y="682" on="1"/>
        <pt x="375" y="594" on="0"/>
        <pt x="388" y="436" on="0"/>
        <pt x="405" y="367" on="1"/>
      </contour>
      <contour>
        <pt x="448" y="247" on="1"/>
        <pt x="482" y="180" on="0"/>
        <pt x="589" y="103" on="0"/>
        <pt x="668" y="103" on="1"/>
        <pt x="768" y="103" on="0"/>
        <pt x="928" y="221" on="0"/>
        <pt x="1039" y="430" on="0"/>
        <pt x="1096" y="712" on="0"/>
        <pt x="1095" y="875" on="1"/>
        <pt x="1093" y="1077" on="0"/>
        <pt x="1052" y="1207" on="1"/>
      </contour>
    </TTGlyph>
    <TTGlyph name="Otilde" xMin="80" yMin="-20" xMax="1387" yMax="1970">
      <component glyphName="tilde.cap" x="470" y="0" flags="0x4"/>
      <component glyphName="O" x="0" y="0" flags="0x4"/>
    </TTGlyph>
    <TTGlyph name="P" xMin="4" yMin="0" xMax="1291" yMax="1547">
      <contour>
        <pt x="14" y="96" on="1"/>
        <pt x="157" y="126" on="1"/>
        <pt x="322" y="1400" on="1"/>
        <pt x="181" y="1425" on="1"/>
        <pt x="194" y="1530" on="1"/>
        <pt x="479" y="1530" on="1"/>
        <pt x="519" y="1530" on="0"/>
        <pt x="591" y="1535" on="0"/>
        <pt x="661" y="1542" on="0"/>
        <pt x="731" y="1547" on="0"/>
        <pt x="770" y="1547" on="1"/>
        <pt x="904" y="1547" on="0"/>
        <pt x="1097" y="1497" on="0"/>
        <pt x="1223" y="1396" on="0"/>
        <pt x="1285" y="1247" on="0"/>
        <pt x="1287" y="1148" on="1"/>
        <pt x="1291" y="1001" on="0"/>
        <pt x="1195" y="770" on="0"/>
        <pt x="1020" y="612" on="0"/>
        <pt x="775" y="529" on="0"/>
        <pt x="629" y="529" on="1"/>
        <pt x="572" y="529" on="0"/>
        <pt x="507" y="531" on="0"/>
        <pt x="484" y="533" on="1"/>
        <pt x="436" y="126" on="1"/>
        <pt x="673" y="97" on="1"/>
        <pt x="665" y="0" on="1"/>
        <pt x="4" y="0" on="1"/>
      </contour>
      <contour>
        <pt x="500" y="666" on="1"/>
        <pt x="538" y="658" on="0"/>
        <pt x="607" y="655" on="0"/>
        <pt x="638" y="655" on="1"/>
        <pt x="732" y="656" on="0"/>
        <pt x="872" y="724" on="0"/>
        <pt x="963" y="849" on="0"/>
        <pt x="1009" y="1026" on="0"/>
        <pt x="1010" y="1136" on="1"/>
        <pt x="1011" y="1283" on="0"/>
        <pt x="880" y="1427" on="0"/>
        <pt x="736" y="1424" on="1"/>
        <pt x="707" y="1424" on="0"/>
        <pt x="632" y="1417" on="0"/>
        <pt x="598" y="1409" on="1"/>
      </contour>
    </TTGlyph>
    <TTGlyph name="Q" xMin="78" yMin="-397" xMax="1385" yMax="1550">
      <contour>
        <pt x="594" y="-18" on="1"/>
        <pt x="469" y="-11" on="0"/>
        <pt x="278" y="88" on="0"/>
        <pt x="148" y="258" on="0"/>
        <pt x="80" y="489" on="0"/>
        <pt x="79" y="629" on="1"/>
        <pt x="78" y="753" on="0"/>
        <pt x="123" y="987" on="0"/>
        <pt x="212" y="1191" on="0"/>
        <pt x="343" y="1361" on="0"/>
        <pt x="511" y="1483" on="0"/>
        <pt x="716" y="1550" on="0"/>
        <pt x="834" y="1550" on="1"/>
        <pt x="975" y="1550" on="0"/>
        <pt x="1181" y="1444" on="0"/>
        <pt x="1316" y="1265" on="0"/>
        <pt x="1383" y="1029" on="0"/>
        <pt x="1384" y="898" on="1"/>
        <pt x="1385" y="731" on="0"/>
        <pt x="1306" y="425" on="0"/>
        <pt x="1148" y="180" on="0"/>
        <pt x="914" y="15" on="0"/>
        <pt x="760" y="-10" on="1"/>
        <pt x="761" y="-69" on="0"/>
        <pt x="812" y="-137" on="0"/>
        <pt x="893" y="-172" on="0"/>
        <pt x="995" y="-181" on="0"/>
        <pt x="1048" y="-181" on="1"/>
        <pt x="1067" y="-181" on="0"/>
        <pt x="1127" y="-176" on="0"/>
        <pt x="1195" y="-165" on="0"/>
        <pt x="1262" y="-150" on="0"/>
        <pt x="1289" y="-140" on="1"/>
        <pt x="1291" y="-301" on="1"/>
        <pt x="1272" y="-316" on="0"/>
        <pt x="1207" y="-350" on="0"/>
        <pt x="1122" y="-378" on="0"/>
        <pt x="1017" y="-397" on="0"/>
        <pt x="958" y="-397" on="1"/>
        <pt x="870" y="-397" on="0"/>
        <pt x="722" y="-349" on="0"/>
        <pt x="621" y="-254" on="0"/>
        <pt x="577" y="-112" on="0"/>
      </contour>
      <contour>
        <pt x="666" y="101" on="1"/>
        <pt x="766" y="101" on="0"/>
        <pt x="926" y="219" on="0"/>
        <pt x="1037" y="428" on="0"/>
        <pt x="1094" y="710" on="0"/>
        <pt x="1093" y="873" on="1"/>
        <pt x="1092" y="1005" on="0"/>
        <pt x="1056" y="1210" on="0"/>
        <pt x="984" y="1352" on="0"/>
        <pt x="876" y="1426" on="0"/>
        <pt x="803" y="1426" on="1"/>
        <pt x="738" y="1426" on="0"/>
        <pt x="623" y="1370" on="0"/>
        <pt x="526" y="1270" on="0"/>
        <pt x="450" y="1131" on="0"/>
        <pt x="398" y="965" on="0"/>
        <pt x="371" y="778" on="0"/>
        <pt x="372" y="680" on="1"/>
        <pt x="373" y="561" on="0"/>
        <pt x="401" y="351" on="0"/>
        <pt x="467" y="193" on="0"/>
        <pt x="580" y="101" on="0"/>
      </contour>
    </TTGlyph>
    <TTGlyph name="R" xMin="14" yMin="-1" xMax="1355" yMax="1546">
      <contour>
        <pt x="23" y="96" on="1"/>
        <pt x="158" y="126" on="1"/>
        <pt x="321" y="1400" on="1"/>
        <pt x="182" y="1425" on="1"/>
        <pt x="194" y="1530" on="1"/>
        <pt x="443" y="1530" on="1"/>
        <pt x="486" y="1530" on="0"/>
        <pt x="560" y="1535" on="0"/>
        <pt x="637" y="1541" on="0"/>
        <pt x="720" y="1546" on="0"/>
        <pt x="772" y="1546" on="1"/>
        <pt x="905" y="1546" on="0"/>
        <pt x="1098" y="1499" on="0"/>
        <pt x="1224" y="1406" on="0"/>
        <pt x="1284" y="1270" on="0"/>
        <pt x="1285" y="1181" on="1"/>
        <pt x="1286" y="1096" on="0"/>
        <pt x="1242" y="945" on="0"/>
        <pt x="1154" y="821" on="0"/>
        <pt x="1025" y="728" on="0"/>
        <pt x="941" y="700" on="1"/>
        <pt x="966" y="679" on="0"/>
        <pt x="1012" y="607" on="0"/>
        <pt x="1050" y="524" on="0"/>
        <pt x="1082" y="441" on="0"/>
        <pt x="1094" y="409" on="1"/>
        <pt x="1128" y="323" on="0"/>
        <pt x="1182" y="205" on="0"/>
        <pt x="1238" y="133" on="0"/>
        <pt x="1306" y="102" on="0"/>
        <pt x="1355" y="102" on="1"/>
        <pt x="1348" y="-1" on="1"/>
        <pt x="1027" y="1" on="1"/>
        <pt x="1000" y="0" on="0"/>
        <pt x="932" y="123" on="0"/>
        <pt x="887" y="247" on="1"/>
        <pt x="864" y="314" on="0"/>
        <pt x="813" y="458" on="0"/>
        <pt x="760" y="578" on="0"/>
        <pt x="705" y="660" on="0"/>
        <pt x="677" y="667" on="1"/>
        <pt x="641" y="666" on="0"/>
        <pt x="607" y="666" on="1"/>
        <pt x="491" y="666" on="1"/>
        <pt x="427" y="126" on="1"/>
        <pt x="611" y="97" on="1"/>
        <pt x="604" y="0" on="1"/>
        <pt x="14" y="0" on="1"/>
      </contour>
      <contour>
        <pt x="508" y="795" on="1"/>
        <pt x="523" y="794" on="0"/>
        <pt x="575" y="792" on="0"/>
        <pt x="631" y="791" on="0"/>
        <pt x="680" y="791" on="0"/>
        <pt x="692" y="792" on="1"/>
        <pt x="773" y="795" on="0"/>
        <pt x="894" y="851" on="0"/>
        <pt x="974" y="952" on="0"/>
        <pt x="1012" y="1096" on="0"/>
        <pt x="1009" y="1186" on="1"/>
        <pt x="1007" y="1245" on="0"/>
        <pt x="974" y="1334" on="0"/>
        <pt x="906" y="1394" on="0"/>
        <pt x="799" y="1424" on="0"/>
        <pt x="723" y="1424" on="1"/>
        <pt x="713" y="1424" on="0"/>
        <pt x="680" y="1422" on="0"/>
        <pt x="643" y="1417" on="0"/>
        <pt x="605" y="1412" on="0"/>
        <pt x="590" y="1409" on="1"/>
      </contour>
    </TTGlyph>
    <TTGlyph name="Racute" xMin="10" yMin="-1" xMax="1351" yMax="2007">
      <component glyphName="R" x="-4" y="0" flags="0x4"/>
      <component glyphName="acute.cap" x="714" y="0" flags="0x4"/>
    </TTGlyph>
    <TTGlyph name="Rcaron" xMin="10" yMin="-1" xMax="1351" yMax="2007">
      <component glyphName="caron.cap" x="453" y="0" flags="0x4"/>
      <component glyphName="R" x="-4" y="0" flags="0x4"/>
    </TTGlyph>
    <TTGlyph name="Rcommaaccent" xMin="10" yMin="-560" xMax="1351" yMax="1546">
      <component glyphName="commaaccent" x="529" y="0" flags="0x4"/>
      <component glyphName="R" x="-4" y="0" flags="0x4"/>
    </TTGlyph>
    <TTGlyph name="S" xMin="35" yMin="-23" xMax="1085" yMax="1550">
      <contour>
        <pt x="85" y="368" on="1"/>
        <pt x="246" y="368" on="1"/>
        <pt x="264" y="167" on="1"/>
        <pt x="304" y="138" on="0"/>
        <pt x="414" y="99" on="0"/>
        <pt x="481" y="99" on="1"/>
        <pt x="542" y="99" on="0"/>
        <pt x="645" y="128" on="0"/>
        <pt x="720" y="184" on="0"/>
        <pt x="764" y="267" on="0"/>
        <pt x="766" y="322" on="1"/>
        <pt x="767" y="377" on="0"/>
        <pt x="734" y="466" on="0"/>
        <pt x="669" y="546" on="0"/>
        <pt x="573" y="619" on="0"/>
        <pt x="513" y="658" on="1"/>
        <pt x="450" y="698" on="0"/>
        <pt x="330" y="791" on="0"/>
        <pt x="237" y="901" on="0"/>
        <pt x="181" y="1032" on="0"/>
        <pt x="180" y="1112" on="1"/>
        <pt x="179" y="1216" on="0"/>
        <pt x="259" y="1379" on="0"/>
        <pt x="398" y="1491" on="0"/>
        <pt x="589" y="1550" on="0"/>
        <pt x="699" y="1550" on="1"/>
        <pt x="775" y="1550" on="0"/>
        <pt x="899" y="1535" on="0"/>
        <pt x="994" y="1512" on="0"/>
        <pt x="1063" y="1484" on="0"/>
        <pt x="1085" y="1470" on="1"/>
        <pt x="1035" y="1188" on="1"/>
        <pt x="887" y="1188" on="1"/>
        <pt x="858" y="1375" on="1"/>
        <pt x="823" y="1401" on="0"/>
        <pt x="730" y="1428" on="0"/>
        <pt x="673" y="1428" on="1"/>
        <pt x="623" y="1428" on="0"/>
        <pt x="538" y="1404" on="0"/>
        <pt x="475" y="1354" on="0"/>
        <pt x="438" y="1276" on="0"/>
        <pt x="437" y="1221" on="1"/>
        <pt x="436" y="1163" on="0"/>
        <pt x="473" y="1068" on="0"/>
        <pt x="543" y="985" on="0"/>
        <pt x="644" y="909" on="0"/>
        <pt x="707" y="869" on="1"/>
        <pt x="768" y="830" on="0"/>
        <pt x="884" y="743" on="0"/>
        <pt x="974" y="639" on="0"/>
        <pt x="1028" y="513" on="0"/>
        <pt x="1029" y="436" on="1"/>
        <pt x="1030" y="337" on="0"/>
        <pt x="955" y="169" on="0"/>
        <pt x="812" y="46" on="0"/>
        <pt x="606" y="-23" on="0"/>
        <pt x="475" y="-23" on="1"/>
        <pt x="398" y="-23" on="0"/>
        <pt x="255" y="-4" on="0"/>
        <pt x="137" y="24" on="0"/>
        <pt x="52" y="56" on="0"/>
        <pt x="35" y="70" on="1"/>
      </contour>
    </TTGlyph>
    <TTGlyph name="Sacute" xMin="35" yMin="-23" xMax="1085" yMax="2007">
      <component glyphName="S" x="0" y="0" flags="0x204"/>
      <component glyphName="acute.cap" x="586" y="0" flags="0x4"/>
    </TTGlyph>
    <TTGlyph name="Scaron" xMin="35" yMin="-23" xMax="1130" yMax="2007">
      <component glyphName="S" x="0" y="0" flags="0x204"/>
      <component glyphName="caron.cap" x="325" y="0" flags="0x4"/>
    </TTGlyph>
    <TTGlyph name="Scedilla" xMin="41" yMin="-474" xMax="1091" yMax="1550">
      <contour>
        <pt x="91" y="368" on="1"/>
        <pt x="252" y="368" on="1"/>
        <pt x="270" y="167" on="1"/>
        <pt x="310" y="138" on="0"/>
        <pt x="420" y="99" on="0"/>
        <pt x="487" y="99" on="1"/>
        <pt x="548" y="99" on="0"/>
        <pt x="651" y="128" on="0"/>
        <pt x="726" y="184" on="0"/>
        <pt x="770" y="267" on="0"/>
        <pt x="772" y="322" on="1"/>
        <pt x="773" y="377" on="0"/>
        <pt x="740" y="466" on="0"/>
        <pt x="675" y="546" on="0"/>
        <pt x="579" y="619" on="0"/>
        <pt x="519" y="658" on="1"/>
        <pt x="456" y="698" on="0"/>
        <pt x="336" y="791" on="0"/>
        <pt x="243" y="901" on="0"/>
        <pt x="187" y="1032" on="0"/>
        <pt x="186" y="1112" on="1"/>
        <pt x="185" y="1216" on="0"/>
        <pt x="265" y="1379" on="0"/>
        <pt x="404" y="1491" on="0"/>
        <pt x="595" y="1550" on="0"/>
        <pt x="705" y="1550" on="1"/>
        <pt x="781" y="1550" on="0"/>
        <pt x="905" y="1535" on="0"/>
        <pt x="1000" y="1512" on="0"/>
        <pt x="1069" y="1484" on="0"/>
        <pt x="1091" y="1470" on="1"/>
        <pt x="1041" y="1188" on="1"/>
        <pt x="893" y="1188" on="1"/>
        <pt x="864" y="1375" on="1"/>
        <pt x="829" y="1401" on="0"/>
        <pt x="736" y="1428" on="0"/>
        <pt x="679" y="1428" on="1"/>
        <pt x="629" y="1428" on="0"/>
        <pt x="544" y="1404" on="0"/>
        <pt x="481" y="1354" on="0"/>
        <pt x="444" y="1276" on="0"/>
        <pt x="443" y="1221" on="1"/>
        <pt x="442" y="1163" on="0"/>
        <pt x="479" y="1068" on="0"/>
        <pt x="549" y="985" on="0"/>
        <pt x="650" y="909" on="0"/>
        <pt x="713" y="869" on="1"/>
        <pt x="774" y="830" on="0"/>
        <pt x="890" y="743" on="0"/>
        <pt x="980" y="639" on="0"/>
        <pt x="1034" y="513" on="0"/>
        <pt x="1035" y="436" on="1"/>
        <pt x="1036" y="343" on="0"/>
        <pt x="970" y="184" on="0"/>
        <pt x="845" y="64" on="0"/>
        <pt x="663" y="-11" on="0"/>
        <pt x="548" y="-20" on="1"/>
        <pt x="559" y="-59" on="0"/>
        <pt x="569" y="-163" on="0"/>
        <pt x="567" y="-212" on="1"/>
        <pt x="558" y="-352" on="0"/>
        <pt x="421" y="-474" on="0"/>
        <pt x="284" y="-474" on="1"/>
        <pt x="264" y="-474" on="0"/>
        <pt x="213" y="-470" on="0"/>
        <pt x="164" y="-462" on="0"/>
        <pt x="124" y="-452" on="0"/>
        <pt x="116" y="-446" on="1"/>
        <pt x="151" y="-304" on="1"/>
        <pt x="164" y="-311" on="0"/>
        <pt x="203" y="-319" on="0"/>
        <pt x="226" y="-319" on="1"/>
        <pt x="260" y="-319" on="0"/>
        <pt x="321" y="-301" on="0"/>
        <pt x="368" y="-259" on="0"/>
        <pt x="398" y="-189" on="0"/>
        <pt x="402" y="-137" on="1"/>
        <pt x="404" y="-101" on="0"/>
        <pt x="403" y="-43" on="0"/>
        <pt x="400" y="-20" on="1"/>
        <pt x="336" y="-16" on="0"/>
        <pt x="219" y="5" on="0"/>
        <pt x="124" y="30" on="0"/>
        <pt x="56" y="58" on="0"/>
        <pt x="41" y="70" on="1"/>
      </contour>
    </TTGlyph>
    <TTGlyph name="Scircumflex" xMin="35" yMin="-23" xMax="1100" yMax="2007">
      <component glyphName="S" x="0" y="0" flags="0x204"/>
      <component glyphName="circumflex.cap" x="325" y="0" flags="0x4"/>
    </TTGlyph>
    <TTGlyph name="T" xMin="92" yMin="0" xMax="1425" yMax="1530">
      <contour>
        <pt x="225" y="100" on="1"/>
        <pt x="472" y="126" on="1"/>
        <pt x="644" y="1409" on="1"/>
        <pt x="363" y="1382" on="1"/>
        <pt x="243" y="1049" on="1"/>
        <pt x="92" y="1048" on="1"/>
        <pt x="170" y="1530" on="1"/>
        <pt x="1425" y="1530" on="1"/>
        <pt x="1365" y="1049" on="1"/>
        <pt x="1220" y="1041" on="1"/>
        <pt x="1197" y="1383" on="1"/>
        <pt x="920" y="1409" on="1"/>
        <pt x="747" y="126" on="1"/>
        <pt x="1013" y="100" on="1"/>
        <pt x="1005" y="0" on="1"/>
        <pt x="214" y="0" on="1"/>
      </contour>
    </TTGlyph>
    <TTGlyph name="Tbar" xMin="37" yMin="0" xMax="1370" yMax="1530">
      <contour>
        <pt x="170" y="100" on="1"/>
        <pt x="417" y="126" on="1"/>
        <pt x="494" y="701" on="1"/>
        <pt x="257" y="701" on="1"/>
        <pt x="273" y="841" on="1"/>
        <pt x="513" y="841" on="1"/>
        <pt x="589" y="1409" on="1"/>
        <pt x="308" y="1382" on="1"/>
        <pt x="188" y="1049" on="1"/>
        <pt x="37" y="1048" on="1"/>
        <pt x="115" y="1530" on="1"/>
        <pt x="1370" y="1530" on="1"/>
        <pt x="1310" y="1049" on="1"/>
        <pt x="1165" y="1041" on="1"/>
        <pt x="1142" y="1383" on="1"/>
        <pt x="865" y="1409" on="1"/>
        <pt x="788" y="841" on="1"/>
        <pt x="1049" y="841" on="1"/>
        <pt x="1033" y="701" on="1"/>
        <pt x="769" y="701" on="1"/>
        <pt x="692" y="126" on="1"/>
        <pt x="958" y="100" on="1"/>
        <pt x="950" y="0" on="1"/>
        <pt x="159" y="0" on="1"/>
      </contour>
    </TTGlyph>
    <TTGlyph name="Tcaron" xMin="83" yMin="0" xMax="1416" yMax="2007">
      <component glyphName="caron.cap" x="416" y="0" flags="0x4"/>
      <component glyphName="T" x="-9" y="0" flags="0x4"/>
    </TTGlyph>
    <TTGlyph name="Thorn" xMin="4" yMin="0" xMax="1239" yMax="1530">
      <contour>
        <pt x="14" y="96" on="1"/>
        <pt x="157" y="126" on="1"/>
        <pt x="318" y="1400" on="1"/>
        <pt x="179" y="1425" on="1"/>
        <pt x="192" y="1530" on="1"/>
        <pt x="771" y="1530" on="1"/>
        <pt x="759" y="1425" on="1"/>
        <pt x="593" y="1400" on="1"/>
        <pt x="568" y="1200" on="1"/>
        <pt x="617" y="1205" on="0"/>
        <pt x="719" y="1211" on="0"/>
        <pt x="771" y="1211" on="1"/>
        <pt x="901" y="1211" on="0"/>
        <pt x="1078" y="1157" on="0"/>
        <pt x="1188" y="1062" on="0"/>
        <pt x="1237" y="932" on="0"/>
        <pt x="1238" y="855" on="1"/>
        <pt x="1239" y="754" on="0"/>
        <pt x="1169" y="570" on="0"/>
        <pt x="1014" y="430" on="0"/>
        <pt x="772" y="346" on="0"/>
        <pt x="603" y="346" on="1"/>
        <pt x="546" y="346" on="0"/>
        <pt x="482" y="348" on="0"/>
        <pt x="460" y="350" on="1"/>
        <pt x="432" y="126" on="1"/>
        <pt x="606" y="97" on="1"/>
        <pt x="598" y="0" on="1"/>
        <pt x="4" y="0" on="1"/>
      </contour>
      <contour>
        <pt x="476" y="475" on="1"/>
        <pt x="511" y="472" on="0"/>
        <pt x="575" y="471" on="0"/>
        <pt x="610" y="471" on="1"/>
        <pt x="696" y="471" on="0"/>
        <pt x="833" y="518" on="0"/>
        <pt x="927" y="607" on="0"/>
        <pt x="976" y="737" on="0"/>
        <pt x="974" y="820" on="1"/>
        <pt x="972" y="887" on="0"/>
        <pt x="943" y="988" on="0"/>
        <pt x="880" y="1055" on="0"/>
        <pt x="778" y="1089" on="0"/>
        <pt x="705" y="1089" on="1"/>
        <pt x="670" y="1089" on="0"/>
        <pt x="587" y="1081" on="0"/>
        <pt x="552" y="1074" on="1"/>
      </contour>
    </TTGlyph>
    <TTGlyph name="U" xMin="109" yMin="-20" xMax="1495" yMax="1530">
      <contour>
        <pt x="137" y="428" on="1"/>
        <pt x="136" y="467" on="0"/>
        <pt x="139" y="548" on="0"/>
        <pt x="144" y="593" on="1"/>
        <pt x="248" y="1401" on="1"/>
        <pt x="109" y="1425" on="1"/>
        <pt x="122" y="1530" on="1"/>
        <pt x="715" y="1530" on="1"/>
        <pt x="705" y="1426" on="1"/>
        <pt x="531" y="1400" on="1"/>
        <pt x="430" y="617" on="1"/>
        <pt x="424" y="559" on="0"/>
        <pt x="416" y="459" on="0"/>
        <pt x="416" y="420" on="1"/>
        <pt x="417" y="344" on="0"/>
        <pt x="451" y="224" on="0"/>
        <pt x="517" y="141" on="0"/>
        <pt x="615" y="97" on="0"/>
        <pt x="680" y="97" on="1"/>
        <pt x="768" y="97" on="0"/>
        <pt x="902" y="169" on="0"/>
        <pt x="997" y="305" on="0"/>
        <pt x="1058" y="501" on="0"/>
        <pt x="1073" y="626" on="1"/>
        <pt x="1177" y="1400" on="1"/>
        <pt x="1026" y="1425" on="1"/>
        <pt x="1037" y="1530" on="1"/>
        <pt x="1495" y="1530" on="1"/>
        <pt x="1482" y="1425" on="1"/>
        <pt x="1356" y="1401" on="1"/>
        <pt x="1255" y="627" on="1"/>
        <pt x="1232" y="450" on="0"/>
        <pt x="1132" y="204" on="0"/>
        <pt x="977" y="50" on="0"/>
        <pt x="767" y="-20" on="0"/>
        <pt x="634" y="-20" on="1"/>
        <pt x="501" y="-20" on="0"/>
        <pt x="313" y="46" on="0"/>
        <pt x="193" y="165" on="0"/>
        <pt x="138" y="330" on="0"/>
      </contour>
    </TTGlyph>
    <TTGlyph name="Uacute" xMin="109" yMin="-20" xMax="1495" yMax="2007">
      <component glyphName="acute.cap" x="750" y="0" flags="0x4"/>
      <component glyphName="U" x="0" y="0" flags="0x4"/>
    </TTGlyph>
    <TTGlyph name="Ubreve" xMin="109" yMin="-20" xMax="1495" yMax="1997">
      <component glyphName="breve.cap" x="534" y="0" flags="0x4"/>
      <component glyphName="U" x="0" y="0" flags="0x4"/>
    </TTGlyph>
    <TTGlyph name="Ucircumflex" xMin="109" yMin="-20" xMax="1495" yMax="2007">
      <component glyphName="U" x="0" y="0" flags="0x204"/>
      <component glyphName="circumflex.cap" x="489" y="0" flags="0x4"/>
    </TTGlyph>
    <TTGlyph name="Udieresis" xMin="109" yMin="-20" xMax="1495" yMax="1972">
      <component glyphName="dieresis.cap" x="498" y="0" flags="0x4"/>
      <component glyphName="U" x="0" y="0" flags="0x4"/>
    </TTGlyph>
    <TTGlyph name="Ugrave" xMin="109" yMin="-20" xMax="1495" yMax="2007">
      <component glyphName="grave.cap" x="510" y="0" flags="0x4"/>
      <component glyphName="U" x="0" y="0" flags="0x4"/>
    </TTGlyph>
    <TTGlyph name="Uhungarumlaut" xMin="109" yMin="-20" xMax="1495" yMax="2007">
      <component glyphName="U" x="0" y="0" flags="0x204"/>
      <component glyphName="hungarumlaut.cap" x="534" y="0" flags="0x4"/>
    </TTGlyph>
    <TTGlyph name="Umacron" xMin="109" yMin="-20" xMax="1495" yMax="1897">
      <component glyphName="macron.cap" x="563" y="0" flags="0x4"/>
      <component glyphName="U" x="0" y="0" flags="0x4"/>
    </TTGlyph>
    <TTGlyph name="Uogonek" xMin="92" yMin="-448" xMax="1478" yMax="1530">
      <contour>
        <pt x="120" y="428" on="1"/>
        <pt x="119" y="467" on="0"/>
        <pt x="122" y="548" on="0"/>
        <pt x="127" y="593" on="1"/>
        <pt x="231" y="1401" on="1"/>
        <pt x="92" y="1425" on="1"/>
        <pt x="105" y="1530" on="1"/>
        <pt x="698" y="1530" on="1"/>
        <pt x="688" y="1426" on="1"/>
        <pt x="514" y="1400" on="1"/>
        <pt x="413" y="617" on="1"/>
        <pt x="407" y="559" on="0"/>
        <pt x="399" y="459" on="0"/>
        <pt x="399" y="420" on="1"/>
        <pt x="400" y="344" on="0"/>
        <pt x="434" y="224" on="0"/>
        <pt x="500" y="141" on="0"/>
        <pt x="598" y="97" on="0"/>
        <pt x="663" y="97" on="1"/>
        <pt x="751" y="97" on="0"/>
        <pt x="885" y="169" on="0"/>
        <pt x="980" y="305" on="0"/>
        <pt x="1041" y="501" on="0"/>
        <pt x="1056" y="626" on="1"/>
        <pt x="1160" y="1400" on="1"/>
        <pt x="1009" y="1425" on="1"/>
        <pt x="1020" y="1530" on="1"/>
        <pt x="1478" y="1530" on="1"/>
        <pt x="1465" y="1425" on="1"/>
        <pt x="1339" y="1401" on="1"/>
        <pt x="1238" y="627" on="1"/>
        <pt x="1220" y="488" on="0"/>
        <pt x="1150" y="276" on="0"/>
        <pt x="1046" y="125" on="0"/>
        <pt x="908" y="29" on="0"/>
        <pt x="822" y="5" on="1"/>
        <pt x="795" y="-23" on="0"/>
        <pt x="746" y="-80" on="0"/>
        <pt x="710" y="-134" on="0"/>
        <pt x="689" y="-183" on="0"/>
        <pt x="689" y="-203" on="1"/>
        <pt x="688" y="-226" on="0"/>
        <pt x="698" y="-258" on="0"/>
        <pt x="715" y="-278" on="0"/>
        <pt x="737" y="-287" on="0"/>
        <pt x="749" y="-287" on="1"/>
        <pt x="783" y="-287" on="0"/>
        <pt x="849" y="-253" on="0"/>
        <pt x="890" y="-220" on="1"/>
        <pt x="921" y="-324" on="1"/>
        <pt x="897" y="-348" on="0"/>
        <pt x="835" y="-393" on="0"/>
        <pt x="760" y="-428" on="0"/>
        <pt x="673" y="-448" on="0"/>
        <pt x="624" y="-448" on="1"/>
        <pt x="580" y="-448" on="0"/>
        <pt x="514" y="-423" on="0"/>
        <pt x="471" y="-381" on="0"/>
        <pt x="451" y="-325" on="0"/>
        <pt x="451" y="-293" on="1"/>
        <pt x="452" y="-266" on="0"/>
        <pt x="472" y="-199" on="0"/>
        <pt x="489" y="-174" on="1"/>
        <pt x="524" y="-123" on="0"/>
        <pt x="602" y="-48" on="0"/>
        <pt x="641" y="-19" on="1"/>
        <pt x="635" y="-19" on="0"/>
        <pt x="623" y="-20" on="0"/>
        <pt x="617" y="-20" on="1"/>
        <pt x="484" y="-20" on="0"/>
        <pt x="296" y="46" on="0"/>
        <pt x="176" y="165" on="0"/>
        <pt x="121" y="330" on="0"/>
      </contour>
    </TTGlyph>
    <TTGlyph name="Uring" xMin="109" yMin="-20" xMax="1495" yMax="2007">
      <component glyphName="U" x="0" y="0" flags="0x204"/>
      <component glyphName="ring.cap" x="521" y="0" flags="0x4"/>
    </TTGlyph>
    <TTGlyph name="Utilde" xMin="109" yMin="-20" xMax="1495" yMax="1970">
      <component glyphName="tilde.cap" x="498" y="0" flags="0x4"/>
      <component glyphName="U" x="0" y="0" flags="0x4"/>
    </TTGlyph>
    <TTGlyph name="V" xMin="26" yMin="-16" xMax="1428" yMax="1530">
      <contour>
        <pt x="152" y="1400" on="1"/>
        <pt x="26" y="1425" on="1"/>
        <pt x="38" y="1530" on="1"/>
        <pt x="605" y="1530" on="1"/>
        <pt x="595" y="1425" on="1"/>
        <pt x="438" y="1400" on="1"/>
        <pt x="568" y="480" on="1"/>
        <pt x="592" y="236" on="1"/>
        <pt x="677" y="480" on="1"/>
        <pt x="1088" y="1400" on="1"/>
        <pt x="926" y="1425" on="1"/>
        <pt x="936" y="1530" on="1"/>
        <pt x="1428" y="1530" on="1"/>
        <pt x="1414" y="1425" on="1"/>
        <pt x="1277" y="1401" on="1"/>
        <pt x="634" y="-10" on="1"/>
        <pt x="387" y="-16" on="1"/>
      </contour>
    </TTGlyph>
    <TTGlyph name="W" xMin="5" yMin="-10" xMax="2133" yMax="1530">
      <contour>
        <pt x="137" y="1400" on="1"/>
        <pt x="5" y="1425" on="1"/>
        <pt x="18" y="1530" on="1"/>
        <pt x="569" y="1530" on="1"/>
        <pt x="559" y="1425" on="1"/>
        <pt x="418" y="1400" on="1"/>
        <pt x="535" y="473" on="1"/>
        <pt x="564" y="236" on="1"/>
        <pt x="629" y="439" on="1"/>
        <pt x="956" y="1268" on="1"/>
        <pt x="943" y="1402" on="1"/>
        <pt x="804" y="1425" on="1"/>
        <pt x="814" y="1530" on="1"/>
        <pt x="1374" y="1530" on="1"/>
        <pt x="1359" y="1425" on="1"/>
        <pt x="1215" y="1401" on="1"/>
        <pt x="1314" y="473" on="1"/>
        <pt x="1323" y="236" on="1"/>
        <pt x="1400" y="454" on="1"/>
        <pt x="1793" y="1399" on="1"/>
        <pt x="1615" y="1425" on="1"/>
        <pt x="1625" y="1530" on="1"/>
        <pt x="2133" y="1530" on="1"/>
        <pt x="2120" y="1425" on="1"/>
        <pt x="1981" y="1400" on="1"/>
        <pt x="1361" y="-10" on="1"/>
        <pt x="1100" y="-10" on="1"/>
        <pt x="998" y="967" on="1"/>
        <pt x="614" y="-10" on="1"/>
        <pt x="352" y="-10" on="1"/>
      </contour>
    </TTGlyph>
    <TTGlyph name="Wacute" xMin="5" yMin="-10" xMax="2133" yMax="2007">
      <component glyphName="acute.cap" x="1006" y="0" flags="0x4"/>
      <component glyphName="W" x="0" y="0" flags="0x4"/>
    </TTGlyph>
    <TTGlyph name="Wcircumflex" xMin="5" yMin="-10" xMax="2133" yMax="2007">
      <component glyphName="W" x="0" y="0" flags="0x204"/>
      <component glyphName="circumflex.cap" x="745" y="0" flags="0x4"/>
    </TTGlyph>
    <TTGlyph name="Wdieresis" xMin="5" yMin="-10" xMax="2133" yMax="1972">
      <component glyphName="dieresis.cap" x="754" y="0" flags="0x4"/>
      <component glyphName="W" x="0" y="0" flags="0x4"/>
    </TTGlyph>
    <TTGlyph name="Wgrave" xMin="5" yMin="-10" xMax="2133" yMax="2007">
      <component glyphName="grave.cap" x="766" y="0" flags="0x4"/>
      <component glyphName="W" x="0" y="0" flags="0x4"/>
    </TTGlyph>
    <TTGlyph name="X" xMin="-69" yMin="0" xMax="1432" yMax="1530">
      <contour>
        <pt x="-58" y="97" on="1"/>
        <pt x="60" y="126" on="1"/>
        <pt x="549" y="759" on="1"/>
        <pt x="246" y="1399" on="1"/>
        <pt x="117" y="1425" on="1"/>
        <pt x="127" y="1530" on="1"/>
        <pt x="716" y="1530" on="1"/>
        <pt x="706" y="1425" on="1"/>
        <pt x="562" y="1401" on="1"/>
        <pt x="747" y="925" on="1"/>
        <pt x="1064" y="1400" on="1"/>
        <pt x="927" y="1425" on="1"/>
        <pt x="936" y="1530" on="1"/>
        <pt x="1432" y="1530" on="1"/>
        <pt x="1422" y="1425" on="1"/>
        <pt x="1285" y="1401" on="1"/>
        <pt x="815" y="793" on="1"/>
        <pt x="1144" y="126" on="1"/>
        <pt x="1284" y="97" on="1"/>
        <pt x="1275" y="0" on="1"/>
        <pt x="661" y="0" on="1"/>
        <pt x="669" y="97" on="1"/>
        <pt x="823" y="126" on="1"/>
        <pt x="620" y="618" on="1"/>
        <pt x="287" y="126" on="1"/>
        <pt x="437" y="96" on="1"/>
        <pt x="428" y="0" on="1"/>
        <pt x="-69" y="0" on="1"/>
      </contour>
    </TTGlyph>
    <TTGlyph name="Y" xMin="30" yMin="0" xMax="1403" yMax="1530">
      <contour>
        <pt x="212" y="97" on="1"/>
        <pt x="425" y="126" on="1"/>
        <pt x="485" y="598" on="1"/>
        <pt x="137" y="1400" on="1"/>
        <pt x="30" y="1425" on="1"/>
        <pt x="41" y="1530" on="1"/>
        <pt x="627" y="1530" on="1"/>
        <pt x="613" y="1425" on="1"/>
        <pt x="442" y="1400" on="1"/>
        <pt x="642" y="873" on="1"/>
        <pt x="687" y="749" on="1"/>
        <pt x="749" y="860" on="1"/>
        <pt x="1066" y="1400" on="1"/>
        <pt x="920" y="1425" on="1"/>
        <pt x="930" y="1530" on="1"/>
        <pt x="1403" y="1530" on="1"/>
        <pt x="1390" y="1425" on="1"/>
        <pt x="1277" y="1401" on="1"/>
        <pt x="756" y="598" on="1"/>
        <pt x="695" y="126" on="1"/>
        <pt x="924" y="97" on="1"/>
        <pt x="915" y="0" on="1"/>
        <pt x="202" y="0" on="1"/>
      </contour>
    </TTGlyph>
    <TTGlyph name="Yacute" xMin="30" yMin="0" xMax="1403" yMax="2007">
      <component glyphName="Y" x="0" y="0" flags="0x204"/>
      <component glyphName="acute.cap" x="635" y="0" flags="0x4"/>
    </TTGlyph>
    <TTGlyph name="Ycircumflex" xMin="30" yMin="0" xMax="1403" yMax="2007">
      <component glyphName="Y" x="0" y="0" flags="0x204"/>
      <component glyphName="circumflex.cap" x="374" y="0" flags="0x4"/>
    </TTGlyph>
    <TTGlyph name="Ydieresis" xMin="30" yMin="0" xMax="1403" yMax="1972">
      <component glyphName="Y" x="0" y="0" flags="0x204"/>
      <component glyphName="dieresis.cap" x="383" y="0" flags="0x4"/>
    </TTGlyph>
    <TTGlyph name="Ygrave" xMin="30" yMin="0" xMax="1403" yMax="2007">
      <component glyphName="Y" x="0" y="0" flags="0x204"/>
      <component glyphName="grave.cap" x="395" y="0" flags="0x4"/>
    </TTGlyph>
    <TTGlyph name="Z" xMin="-33" yMin="0" xMax="1259" yMax="1530">
      <contour>
        <pt x="-33" y="89" on="1"/>
        <pt x="811" y="1261" on="1"/>
        <pt x="957" y="1409" on="1"/>
        <pt x="457" y="1397" on="1"/>
        <pt x="335" y="1138" on="1"/>
        <pt x="189" y="1161" on="1"/>
        <pt x="242" y="1530" on="1"/>
        <pt x="1231" y="1530" on="1"/>
        <pt x="1259" y="1444" on="1"/>
        <pt x="421" y="269" on="1"/>
        <pt x="288" y="122" on="1"/>
        <pt x="850" y="146" on="1"/>
        <pt x="1005" y="438" on="1"/>
        <pt x="1149" y="407" on="1"/>
        <pt x="1058" y="0" on="1"/>
        <pt x="-2" y="0" on="1"/>
      </contour>
    </TTGlyph>
    <TTGlyph name="Zacute" xMin="-33" yMin="0" xMax="1259" yMax="2007">
      <component glyphName="Z" x="0" y="0" flags="0x204"/>
      <component glyphName="acute.cap" x="631" y="0" flags="0x4"/>
    </TTGlyph>
    <TTGlyph name="Zcaron" xMin="-33" yMin="0" xMax="1259" yMax="2007">
      <component glyphName="caron.cap" x="370" y="0" flags="0x4"/>
      <component glyphName="Z" x="0" y="0" flags="0x4"/>
    </TTGlyph>
    <TTGlyph name="Zdotaccent" xMin="-33" yMin="0" xMax="1259" yMax="1965">
      <component glyphName="dotaccent.cap" x="585" y="0" flags="0x4"/>
      <component glyphName="Z" x="0" y="0" flags="0x4"/>
    </TTGlyph>
    <TTGlyph name="a" xMin="72" yMin="-20" xMax="1117" yMax="1163">
      <contour>
        <pt x="72" y="407" on="1"/>
        <pt x="72" y="494" on="0"/>
        <pt x="111" y="674" on="0"/>
        <pt x="187" y="842" on="0"/>
        <pt x="300" y="989" on="0"/>
        <pt x="448" y="1099" on="0"/>
        <pt x="631" y="1163" on="0"/>
        <pt x="739" y="1163" on="1"/>
        <pt x="766" y="1163" on="0"/>
        <pt x="824" y="1156" on="0"/>
        <pt x="881" y="1146" on="0"/>
        <pt x="935" y="1131" on="0"/>
        <pt x="957" y="1124" on="1"/>
        <pt x="1092" y="1163" on="1"/>
        <pt x="962" y="207" on="1"/>
        <pt x="957" y="166" on="0"/>
        <pt x="980" y="131" on="0"/>
        <pt x="997" y="131" on="1"/>
        <pt x="1011" y="131" on="0"/>
        <pt x="1052" y="149" on="0"/>
        <pt x="1087" y="177" on="1"/>
        <pt x="1117" y="114" on="1"/>
        <pt x="1110" y="103" on="0"/>
        <pt x="1067" y="58" on="0"/>
        <pt x="1002" y="13" on="0"/>
        <pt x="916" y="-20" on="0"/>
        <pt x="865" y="-20" on="1"/>
        <pt x="796" y="-20" on="0"/>
        <pt x="714" y="46" on="0"/>
        <pt x="717" y="115" on="1"/>
        <pt x="715" y="118" on="1"/>
        <pt x="691" y="91" on="0"/>
        <pt x="628" y="42" on="0"/>
        <pt x="552" y="3" on="0"/>
        <pt x="463" y="-20" on="0"/>
        <pt x="413" y="-20" on="1"/>
        <pt x="324" y="-20" on="0"/>
        <pt x="195" y="46" on="0"/>
        <pt x="112" y="161" on="0"/>
        <pt x="72" y="317" on="0"/>
      </contour>
      <contour>
        <pt x="502" y="138" on="1"/>
        <pt x="533" y="138" on="0"/>
        <pt x="591" y="157" on="0"/>
        <pt x="644" y="188" on="0"/>
        <pt x="691" y="229" on="0"/>
        <pt x="710" y="251" on="1"/>
        <pt x="812" y="1016" on="1"/>
        <pt x="768" y="1032" on="0"/>
        <pt x="711" y="1032" on="1"/>
        <pt x="645" y="1032" on="0"/>
        <pt x="540" y="977" on="0"/>
        <pt x="459" y="885" on="0"/>
        <pt x="401" y="763" on="0"/>
        <pt x="364" y="628" on="0"/>
        <pt x="347" y="489" on="0"/>
        <pt x="347" y="425" on="1"/>
        <pt x="347" y="289" on="0"/>
        <pt x="430" y="138" on="0"/>
      </contour>
    </TTGlyph>
    <TTGlyph name="aacute" xMin="72" yMin="-20" xMax="1117" yMax="1743">
      <component glyphName="a" x="0" y="0" flags="0x204"/>
      <component glyphName="acute" x="581" y="0" flags="0x4"/>
    </TTGlyph>
    <TTGlyph name="abreve" xMin="72" yMin="-20" xMax="1117" yMax="1666">
      <component glyphName="a" x="0" y="0" flags="0x204"/>
      <component glyphName="breve" x="395" y="0" flags="0x4"/>
    </TTGlyph>
    <TTGlyph name="acircumflex" xMin="72" yMin="-20" xMax="1117" yMax="1660">
      <component glyphName="a" x="0" y="0" flags="0x204"/>
      <component glyphName="circumflex" x="326" y="0" flags="0x4"/>
    </TTGlyph>
    <TTGlyph name="acute" xMin="50" yMin="1241" xMax="534" yMax="1743">
      <contour>
        <pt x="50" y="1312" on="1"/>
        <pt x="367" y="1743" on="1"/>
        <pt x="534" y="1566" on="1"/>
        <pt x="525" y="1549" on="0"/>
        <pt x="474" y="1494" on="0"/>
        <pt x="404" y="1429" on="0"/>
        <pt x="320" y="1361" on="0"/>
        <pt x="236" y="1300" on="0"/>
        <pt x="158" y="1252" on="0"/>
        <pt x="128" y="1241" on="1"/>
      </contour>
    </TTGlyph>
    <TTGlyph name="acute.cap" xMin="57" yMin="1592" xMax="488" yMax="2007">
      <contour>
        <pt x="57" y="1665" on="1"/>
        <pt x="333" y="2007" on="1"/>
        <pt x="488" y="1846" on="1"/>
        <pt x="468" y="1806" on="0"/>
        <pt x="382" y="1727" on="0"/>
        <pt x="280" y="1658" on="0"/>
        <pt x="177" y="1605" on="0"/>
        <pt x="141" y="1592" on="1"/>
      </contour>
    </TTGlyph>
    <TTGlyph name="adieresis" xMin="72" yMin="-20" xMax="1133" yMax="1676">
      <component glyphName="a" x="0" y="0" flags="0x204"/>
      <component glyphName="dieresis" x="360" y="0" flags="0x4"/>
    </TTGlyph>
    <TTGlyph name="ae" xMin="72" yMin="-20" xMax="1662" yMax="1163">
      <contour>
        <pt x="373" y="-20" on="1"/>
        <pt x="287" y="-20" on="0"/>
        <pt x="172" y="44" on="0"/>
        <pt x="102" y="155" on="0"/>
        <pt x="72" y="306" on="0"/>
        <pt x="72" y="392" on="1"/>
        <pt x="72" y="479" on="0"/>
        <pt x="114" y="661" on="0"/>
        <pt x="196" y="832" on="0"/>
        <pt x="316" y="984" on="0"/>
        <pt x="472" y="1097" on="0"/>
        <pt x="662" y="1163" on="0"/>
        <pt x="774" y="1163" on="1"/>
        <pt x="825" y="1163" on="0"/>
        <pt x="937" y="1142" on="0"/>
        <pt x="982" y="1128" on="1"/>
        <pt x="1083" y="1163" on="1"/>
        <pt x="1069" y="1078" on="1"/>
        <pt x="1133" y="1119" on="0"/>
        <pt x="1277" y="1163" on="0"/>
        <pt x="1357" y="1163" on="1"/>
        <pt x="1436" y="1163" on="0"/>
        <pt x="1550" y="1124" on="0"/>
        <pt x="1624" y="1056" on="0"/>
        <pt x="1660" y="964" on="0"/>
        <pt x="1661" y="911" on="1"/>
        <pt x="1662" y="831" on="0"/>
        <pt x="1600" y="703" on="0"/>
        <pt x="1495" y="603" on="0"/>
        <pt x="1360" y="531" on="0"/>
        <pt x="1219" y="483" on="0"/>
        <pt x="1081" y="459" on="0"/>
        <pt x="1026" y="458" on="1"/>
        <pt x="1024" y="387" on="0"/>
        <pt x="1041" y="270" on="0"/>
        <pt x="1084" y="186" on="0"/>
        <pt x="1157" y="139" on="0"/>
        <pt x="1212" y="139" on="1"/>
        <pt x="1312" y="139" on="0"/>
        <pt x="1475" y="224" on="0"/>
        <pt x="1541" y="290" on="1"/>
        <pt x="1596" y="197" on="1"/>
        <pt x="1575" y="166" on="0"/>
        <pt x="1494" y="90" on="0"/>
        <pt x="1379" y="24" on="0"/>
        <pt x="1233" y="-20" on="0"/>
        <pt x="1146" y="-20" on="1"/>
        <pt x="1066" y="-20" on="0"/>
        <pt x="941" y="18" on="0"/>
        <pt x="849" y="87" on="0"/>
        <pt x="787" y="184" on="0"/>
        <pt x="770" y="243" on="1"/>
        <pt x="743" y="198" on="0"/>
        <pt x="665" y="105" on="0"/>
        <pt x="565" y="29" on="0"/>
        <pt x="444" y="-20" on="0"/>
      </contour>
      <contour>
        <pt x="1029" y="573" on="1"/>
        <pt x="1063" y="575" on="0"/>
        <pt x="1145" y="595" on="0"/>
        <pt x="1227" y="633" on="0"/>
        <pt x="1305" y="686" on="0"/>
        <pt x="1364" y="756" on="0"/>
        <pt x="1399" y="841" on="0"/>
        <pt x="1398" y="891" on="1"/>
        <pt x="1396" y="965" on="0"/>
        <pt x="1344" y="1036" on="0"/>
        <pt x="1296" y="1036" on="1"/>
        <pt x="1252" y="1036" on="0"/>
        <pt x="1180" y="992" on="0"/>
        <pt x="1123" y="919" on="0"/>
        <pt x="1081" y="823" on="0"/>
        <pt x="1051" y="720" on="0"/>
        <pt x="1033" y="617" on="0"/>
      </contour>
      <contour>
        <pt x="457" y="151" on="1"/>
        <pt x="504" y="151" on="0"/>
        <pt x="590" y="199" on="0"/>
        <pt x="665" y="271" on="0"/>
        <pt x="726" y="356" on="0"/>
        <pt x="747" y="393" on="1"/>
        <pt x="747" y="422" on="1"/>
        <pt x="729" y="402" on="1"/>
        <pt x="826" y="1024" on="1"/>
        <pt x="809" y="1029" on="0"/>
        <pt x="774" y="1032" on="0"/>
        <pt x="754" y="1032" on="1"/>
        <pt x="684" y="1032" on="0"/>
        <pt x="569" y="975" on="0"/>
        <pt x="478" y="879" on="0"/>
        <pt x="411" y="753" on="0"/>
        <pt x="367" y="615" on="0"/>
        <pt x="345" y="473" on="0"/>
        <pt x="345" y="409" on="1"/>
        <pt x="345" y="353" on="0"/>
        <pt x="357" y="258" on="0"/>
        <pt x="384" y="189" on="0"/>
        <pt x="427" y="151" on="0"/>
      </contour>
    </TTGlyph>
    <TTGlyph name="aeacute" xMin="74" yMin="-20" xMax="1664" yMax="1743">
      <component glyphName="acute" x="778" y="0" flags="0x4"/>
      <component glyphName="ae" x="2" y="0" flags="0x4"/>
    </TTGlyph>
    <TTGlyph name="afii61352" xMin="-3" yMin="0" xMax="2500" yMax="1533">
      <contour>
        <pt x="1608" y="1004" on="1"/>
        <pt x="1612" y="1094" on="0"/>
        <pt x="1659" y="1243" on="0"/>
        <pt x="1733" y="1361" on="0"/>
        <pt x="1829" y="1448" on="0"/>
        <pt x="1937" y="1505" on="0"/>
        <pt x="2051" y="1533" on="0"/>
        <pt x="2106" y="1533" on="1"/>
        <pt x="2202" y="1533" on="0"/>
        <pt x="2351" y="1469" on="0"/>
        <pt x="2452" y="1350" on="0"/>
        <pt x="2500" y="1180" on="0"/>
        <pt x="2494" y="1074" on="1"/>
        <pt x="2490" y="979" on="0"/>
        <pt x="2442" y="827" on="0"/>
        <pt x="2366" y="708" on="0"/>
        <pt x="2268" y="623" on="0"/>
        <pt x="2161" y="567" on="0"/>
        <pt x="2049" y="541" on="0"/>
        <pt x="1997" y="541" on="1"/>
        <pt x="1901" y="541" on="0"/>
        <pt x="1752" y="606" on="0"/>
        <pt x="1651" y="727" on="0"/>
        <pt x="1602" y="898" on="0"/>
      </contour>
      <contour>
        <pt x="5" y="96" on="1"/>
        <pt x="152" y="125" on="1"/>
        <pt x="317" y="1398" on="1"/>
        <pt x="154" y="1422" on="1"/>
        <pt x="166" y="1526" on="1"/>
        <pt x="645" y="1526" on="1"/>
        <pt x="1038" y="514" on="1"/>
        <pt x="1127" y="255" on="1"/>
        <pt x="1257" y="1398" on="1"/>
        <pt x="1092" y="1422" on="1"/>
        <pt x="1102" y="1526" on="1"/>
        <pt x="1592" y="1526" on="1"/>
        <pt x="1582" y="1422" on="1"/>
        <pt x="1440" y="1398" on="1"/>
        <pt x="1261" y="0" on="1"/>
        <pt x="967" y="0" on="1"/>
        <pt x="571" y="1014" on="1"/>
        <pt x="467" y="1288" on="1"/>
        <pt x="345" y="125" on="1"/>
        <pt x="528" y="96" on="1"/>
        <pt x="520" y="0" on="1"/>
        <pt x="-3" y="0" on="1"/>
      </contour>
      <contour>
        <pt x="1843" y="1006" on="1"/>
        <pt x="1839" y="929" on="0"/>
        <pt x="1856" y="802" on="0"/>
        <pt x="1899" y="712" on="0"/>
        <pt x="1968" y="664" on="0"/>
        <pt x="2015" y="664" on="1"/>
        <pt x="2069" y="664" on="0"/>
        <pt x="2155" y="711" on="0"/>
        <pt x="2216" y="809" on="0"/>
        <pt x="2252" y="962" on="0"/>
        <pt x="2256" y="1070" on="1"/>
        <pt x="2260" y="1148" on="0"/>
        <pt x="2242" y="1274" on="0"/>
        <pt x="2200" y="1362" on="0"/>
        <pt x="2132" y="1410" on="0"/>
        <pt x="2085" y="1410" on="1"/>
        <pt x="2020" y="1410" on="0"/>
        <pt x="1931" y="1345" on="0"/>
        <pt x="1875" y="1234" on="0"/>
        <pt x="1847" y="1088" on="0"/>
      </contour>
      <contour>
        <pt x="1549" y="163" on="1"/>
        <pt x="2352" y="163" on="1"/>
        <pt x="2340" y="0" on="1"/>
        <pt x="1537" y="0" on="1"/>
      </contour>
    </TTGlyph>
    <TTGlyph name="agrave" xMin="72" yMin="-20" xMax="1117" yMax="1743">
      <component glyphName="a" x="0" y="0" flags="0x204"/>
      <component glyphName="grave" x="303" y="0" flags="0x4"/>
    </TTGlyph>
    <TTGlyph name="amacron" xMin="72" yMin="-20" xMax="1117" yMax="1594">
      <component glyphName="a" x="0" y="0" flags="0x204"/>
      <component glyphName="macron" x="426" y="0" flags="0x4"/>
    </TTGlyph>
    <TTGlyph name="ampersand" xMin="60" yMin="-27" xMax="1647" yMax="1559">
      <contour>
        <pt x="60" y="354" on="1"/>
        <pt x="60" y="438" on="0"/>
        <pt x="120" y="567" on="0"/>
        <pt x="222" y="668" on="0"/>
        <pt x="356" y="746" on="0"/>
        <pt x="430" y="781" on="1"/>
        <pt x="413" y="822" on="0"/>
        <pt x="382" y="912" on="0"/>
        <pt x="359" y="1004" on="0"/>
        <pt x="346" y="1092" on="0"/>
        <pt x="346" y="1131" on="1"/>
        <pt x="346" y="1231" on="0"/>
        <pt x="422" y="1389" on="0"/>
        <pt x="556" y="1500" on="0"/>
        <pt x="738" y="1559" on="0"/>
        <pt x="844" y="1559" on="1"/>
        <pt x="947" y="1559" on="0"/>
        <pt x="1091" y="1511" on="0"/>
        <pt x="1182" y="1430" on="0"/>
        <pt x="1224" y="1325" on="0"/>
        <pt x="1224" y="1268" on="1"/>
        <pt x="1224" y="1174" on="0"/>
        <pt x="1135" y="1033" on="0"/>
        <pt x="992" y="921" on="0"/>
        <pt x="814" y="828" on="0"/>
        <pt x="724" y="783" on="1"/>
        <pt x="772" y="698" on="0"/>
        <pt x="862" y="557" on="0"/>
        <pt x="955" y="436" on="0"/>
        <pt x="1053" y="329" on="0"/>
        <pt x="1109" y="278" on="1"/>
        <pt x="1112" y="274" on="1"/>
        <pt x="1180" y="373" on="0"/>
        <pt x="1180" y="527" on="1"/>
        <pt x="1180" y="559" on="0"/>
        <pt x="1175" y="615" on="0"/>
        <pt x="1171" y="639" on="1"/>
        <pt x="1162" y="640" on="0"/>
        <pt x="1144" y="640" on="0"/>
        <pt x="1135" y="640" on="1"/>
        <pt x="1087" y="640" on="0"/>
        <pt x="1005" y="616" on="0"/>
        <pt x="983" y="602" on="1"/>
        <pt x="983" y="782" on="1"/>
        <pt x="990" y="789" on="0"/>
        <pt x="1015" y="806" on="0"/>
        <pt x="1053" y="821" on="0"/>
        <pt x="1105" y="831" on="0"/>
        <pt x="1138" y="831" on="1"/>
        <pt x="1166" y="831" on="0"/>
        <pt x="1219" y="825" on="0"/>
        <pt x="1273" y="817" on="0"/>
        <pt x="1332" y="811" on="0"/>
        <pt x="1367" y="811" on="1"/>
        <pt x="1407" y="811" on="0"/>
        <pt x="1466" y="825" on="0"/>
        <pt x="1508" y="861" on="0"/>
        <pt x="1535" y="922" on="0"/>
        <pt x="1542" y="968" on="1"/>
        <pt x="1637" y="968" on="1"/>
        <pt x="1647" y="899" on="0"/>
        <pt x="1635" y="771" on="0"/>
        <pt x="1589" y="674" on="0"/>
        <pt x="1507" y="616" on="0"/>
        <pt x="1447" y="616" on="1"/>
        <pt x="1436" y="616" on="0"/>
        <pt x="1415" y="617" on="0"/>
        <pt x="1404" y="618" on="1"/>
        <pt x="1405" y="607" on="0"/>
        <pt x="1406" y="584" on="0"/>
        <pt x="1406" y="571" on="1"/>
        <pt x="1406" y="450" on="0"/>
        <pt x="1309" y="254" on="0"/>
        <pt x="1226" y="180" on="1"/>
        <pt x="1253" y="160" on="0"/>
        <pt x="1276" y="149" on="1"/>
        <pt x="1297" y="140" on="0"/>
        <pt x="1347" y="126" on="0"/>
        <pt x="1399" y="117" on="0"/>
        <pt x="1451" y="113" on="0"/>
        <pt x="1472" y="114" on="1"/>
        <pt x="1466" y="9" on="1"/>
        <pt x="1410" y="-9" on="0"/>
        <pt x="1305" y="-20" on="0"/>
        <pt x="1234" y="-20" on="1"/>
        <pt x="1095" y="-20" on="0"/>
        <pt x="993" y="41" on="1"/>
        <pt x="906" y="7" on="0"/>
        <pt x="717" y="-27" on="0"/>
        <pt x="620" y="-27" on="1"/>
        <pt x="506" y="-27" on="0"/>
        <pt x="302" y="21" on="0"/>
        <pt x="149" y="116" on="0"/>
        <pt x="60" y="259" on="0"/>
      </contour>
      <contour>
        <pt x="669" y="891" on="1"/>
        <pt x="730" y="922" on="0"/>
        <pt x="838" y="991" on="0"/>
        <pt x="918" y="1076" on="0"/>
        <pt x="965" y="1182" on="0"/>
        <pt x="965" y="1249" on="1"/>
        <pt x="965" y="1283" on="0"/>
        <pt x="953" y="1353" on="0"/>
        <pt x="923" y="1410" on="0"/>
        <pt x="870" y="1446" on="0"/>
        <pt x="828" y="1446" on="1"/>
        <pt x="770" y="1446" on="0"/>
        <pt x="686" y="1404" on="0"/>
        <pt x="632" y="1332" on="0"/>
        <pt x="606" y="1234" on="0"/>
        <pt x="606" y="1177" on="1"/>
        <pt x="606" y="1093" on="0"/>
        <pt x="646" y="947" on="0"/>
      </contour>
      <contour>
        <pt x="335" y="377" on="1"/>
        <pt x="335" y="308" on="0"/>
        <pt x="385" y="203" on="0"/>
        <pt x="471" y="134" on="0"/>
        <pt x="587" y="99" on="0"/>
        <pt x="653" y="99" on="1"/>
        <pt x="788" y="99" on="0"/>
        <pt x="887" y="126" on="1"/>
        <pt x="817" y="191" on="0"/>
        <pt x="709" y="318" on="0"/>
        <pt x="619" y="447" on="0"/>
        <pt x="539" y="580" on="0"/>
        <pt x="497" y="651" on="1"/>
        <pt x="425" y="598" on="0"/>
        <pt x="335" y="465" on="0"/>
      </contour>
    </TTGlyph>
    <TTGlyph name="aogonek" xMin="72" yMin="-448" xMax="1117" yMax="1163">
      <contour>
        <pt x="72" y="407" on="1"/>
        <pt x="72" y="494" on="0"/>
        <pt x="111" y="674" on="0"/>
        <pt x="187" y="842" on="0"/>
        <pt x="300" y="989" on="0"/>
        <pt x="448" y="1099" on="0"/>
        <pt x="631" y="1163" on="0"/>
        <pt x="739" y="1163" on="1"/>
        <pt x="766" y="1163" on="0"/>
        <pt x="824" y="1156" on="0"/>
        <pt x="881" y="1146" on="0"/>
        <pt x="935" y="1131" on="0"/>
        <pt x="957" y="1124" on="1"/>
        <pt x="1092" y="1163" on="1"/>
        <pt x="962" y="207" on="1"/>
        <pt x="957" y="166" on="0"/>
        <pt x="980" y="131" on="0"/>
        <pt x="997" y="131" on="1"/>
        <pt x="1011" y="131" on="0"/>
        <pt x="1052" y="149" on="0"/>
        <pt x="1087" y="177" on="1"/>
        <pt x="1117" y="114" on="1"/>
        <pt x="1108" y="100" on="0"/>
        <pt x="1051" y="43" on="0"/>
        <pt x="1006" y="18" on="1"/>
        <pt x="964" y="-12" on="0"/>
        <pt x="891" y="-71" on="0"/>
        <pt x="837" y="-128" on="0"/>
        <pt x="805" y="-183" on="0"/>
        <pt x="805" y="-208" on="1"/>
        <pt x="804" y="-231" on="0"/>
        <pt x="814" y="-261" on="0"/>
        <pt x="831" y="-279" on="0"/>
        <pt x="853" y="-287" on="0"/>
        <pt x="865" y="-287" on="1"/>
        <pt x="899" y="-287" on="0"/>
        <pt x="964" y="-253" on="0"/>
        <pt x="1006" y="-220" on="1"/>
        <pt x="1037" y="-324" on="1"/>
        <pt x="1012" y="-348" on="0"/>
        <pt x="950" y="-393" on="0"/>
        <pt x="876" y="-428" on="0"/>
        <pt x="789" y="-448" on="0"/>
        <pt x="740" y="-448" on="1"/>
        <pt x="696" y="-448" on="0"/>
        <pt x="630" y="-423" on="0"/>
        <pt x="587" y="-381" on="0"/>
        <pt x="567" y="-325" on="0"/>
        <pt x="567" y="-293" on="1"/>
        <pt x="568" y="-265" on="0"/>
        <pt x="591" y="-195" on="0"/>
        <pt x="610" y="-169" on="1"/>
        <pt x="656" y="-105" on="0"/>
        <pt x="751" y="-35" on="0"/>
        <pt x="797" y="-10" on="1"/>
        <pt x="758" y="3" on="0"/>
        <pt x="715" y="64" on="0"/>
        <pt x="717" y="115" on="1"/>
        <pt x="715" y="118" on="1"/>
        <pt x="691" y="91" on="0"/>
        <pt x="628" y="42" on="0"/>
        <pt x="552" y="3" on="0"/>
        <pt x="463" y="-20" on="0"/>
        <pt x="413" y="-20" on="1"/>
        <pt x="324" y="-20" on="0"/>
        <pt x="195" y="46" on="0"/>
        <pt x="112" y="161" on="0"/>
        <pt x="72" y="317" on="0"/>
      </contour>
      <contour>
        <pt x="502" y="138" on="1"/>
        <pt x="533" y="138" on="0"/>
        <pt x="591" y="157" on="0"/>
        <pt x="644" y="188" on="0"/>
        <pt x="691" y="229" on="0"/>
        <pt x="710" y="251" on="1"/>
        <pt x="812" y="1016" on="1"/>
        <pt x="768" y="1032" on="0"/>
        <pt x="711" y="1032" on="1"/>
        <pt x="645" y="1032" on="0"/>
        <pt x="540" y="977" on="0"/>
        <pt x="459" y="885" on="0"/>
        <pt x="401" y="763" on="0"/>
        <pt x="364" y="628" on="0"/>
        <pt x="347" y="489" on="0"/>
        <pt x="347" y="425" on="1"/>
        <pt x="347" y="289" on="0"/>
        <pt x="430" y="138" on="0"/>
      </contour>
    </TTGlyph>
    <TTGlyph name="approxequal" xMin="24" yMin="272" xMax="1023" yMax="1083">
      <component glyphName="asciitilde" x="-106" y="-434" flags="0x4"/>
      <component glyphName="asciitilde" x="-56" y="11" flags="0x4"/>
    </TTGlyph>
    <TTGlyph name="aring" xMin="72" yMin="-20" xMax="1117" yMax="1795">
      <component glyphName="a" x="0" y="0" flags="0x204"/>
      <component glyphName="ring" x="384" y="0" flags="0x4"/>
    </TTGlyph>
    <TTGlyph name="asciicircum" xMin="157" yMin="510" xMax="1167" yMax="1531">
      <contour>
        <pt x="673" y="1531" on="1"/>
        <pt x="900" y="1531" on="1"/>
        <pt x="1167" y="510" on="1"/>
        <pt x="957" y="510" on="1"/>
        <pt x="760" y="1252" on="1"/>
        <pt x="372" y="510" on="1"/>
        <pt x="157" y="510" on="1"/>
      </contour>
    </TTGlyph>
    <TTGlyph name="asciitilde" xMin="130" yMin="706" xMax="1079" yMax="1072">
      <contour>
        <pt x="130" y="862" on="1"/>
        <pt x="142" y="898" on="0"/>
        <pt x="200" y="973" on="0"/>
        <pt x="283" y="1033" on="0"/>
        <pt x="385" y="1072" on="0"/>
        <pt x="442" y="1072" on="1"/>
        <pt x="484" y="1072" on="0"/>
        <pt x="552" y="1048" on="0"/>
        <pt x="611" y="1012" on="0"/>
        <pt x="663" y="970" on="0"/>
        <pt x="713" y="934" on="0"/>
        <pt x="764" y="910" on="0"/>
        <pt x="794" y="910" on="1"/>
        <pt x="861" y="910" on="0"/>
        <pt x="956" y="969" on="0"/>
        <pt x="991" y="1022" on="1"/>
        <pt x="1079" y="926" on="1"/>
        <pt x="1068" y="885" on="0"/>
        <pt x="1009" y="807" on="0"/>
        <pt x="924" y="744" on="0"/>
        <pt x="819" y="706" on="0"/>
        <pt x="762" y="706" on="1"/>
        <pt x="719" y="706" on="0"/>
        <pt x="649" y="731" on="0"/>
        <pt x="590" y="768" on="0"/>
        <pt x="538" y="811" on="0"/>
        <pt x="487" y="848" on="0"/>
        <pt x="435" y="873" on="0"/>
        <pt x="405" y="873" on="1"/>
        <pt x="345" y="873" on="0"/>
        <pt x="243" y="819" on="0"/>
        <pt x="208" y="766" on="1"/>
      </contour>
    </TTGlyph>
    <TTGlyph name="asterisk" xMin="250" yMin="637" xMax="1284" yMax="1663">
      <contour>
        <pt x="250" y="988" on="1"/>
        <pt x="583" y="1122" on="1"/>
        <pt x="670" y="1151" on="1"/>
        <pt x="591" y="1179" on="1"/>
        <pt x="282" y="1314" on="1"/>
        <pt x="410" y="1499" on="1"/>
        <pt x="664" y="1288" on="1"/>
        <pt x="725" y="1231" on="1"/>
        <pt x="716" y="1319" on="1"/>
        <pt x="709" y="1663" on="1"/>
        <pt x="931" y="1662" on="1"/>
        <pt x="851" y="1317" on="1"/>
        <pt x="827" y="1233" on="1"/>
        <pt x="898" y="1289" on="1"/>
        <pt x="1198" y="1500" on="1"/>
        <pt x="1284" y="1313" on="1"/>
        <pt x="951" y="1179" on="1"/>
        <pt x="864" y="1149" on="1"/>
        <pt x="943" y="1121" on="1"/>
        <pt x="1252" y="987" on="1"/>
        <pt x="1124" y="802" on="1"/>
        <pt x="870" y="1012" on="1"/>
        <pt x="808" y="1072" on="1"/>
        <pt x="817" y="982" on="1"/>
        <pt x="824" y="637" on="1"/>
        <pt x="602" y="638" on="1"/>
        <pt x="681" y="984" on="1"/>
        <pt x="706" y="1069" on="1"/>
        <pt x="636" y="1011" on="1"/>
        <pt x="336" y="800" on="1"/>
      </contour>
    </TTGlyph>
    <TTGlyph name="at" xMin="88" yMin="-433" xMax="1890" yMax="1560">
      <contour>
        <pt x="88" y="336" on="1"/>
        <pt x="88" y="519" on="0"/>
        <pt x="174" y="843" on="0"/>
        <pt x="326" y="1115" on="0"/>
        <pt x="536" y="1331" on="0"/>
        <pt x="782" y="1480" on="0"/>
        <pt x="1057" y="1560" on="0"/>
        <pt x="1198" y="1560" on="1"/>
        <pt x="1351" y="1560" on="0"/>
        <pt x="1605" y="1471" on="0"/>
        <pt x="1788" y="1303" on="0"/>
        <pt x="1890" y="1062" on="0"/>
        <pt x="1890" y="911" on="1"/>
        <pt x="1890" y="770" on="0"/>
        <pt x="1839" y="526" on="0"/>
        <pt x="1751" y="325" on="0"/>
        <pt x="1632" y="169" on="0"/>
        <pt x="1495" y="62" on="0"/>
        <pt x="1347" y="6" on="0"/>
        <pt x="1275" y="6" on="1"/>
        <pt x="1241" y="6" on="0"/>
        <pt x="1199" y="36" on="0"/>
        <pt x="1176" y="90" on="0"/>
        <pt x="1168" y="165" on="0"/>
        <pt x="1168" y="210" on="1"/>
        <pt x="1168" y="228" on="0"/>
        <pt x="1172" y="279" on="0"/>
        <pt x="1181" y="340" on="0"/>
        <pt x="1193" y="408" on="0"/>
        <pt x="1201" y="442" on="1"/>
        <pt x="1167" y="362" on="0"/>
        <pt x="1079" y="206" on="0"/>
        <pt x="978" y="83" on="0"/>
        <pt x="867" y="7" on="0"/>
        <pt x="812" y="7" on="1"/>
        <pt x="756" y="7" on="0"/>
        <pt x="646" y="58" on="0"/>
        <pt x="560" y="164" on="0"/>
        <pt x="508" y="327" on="0"/>
        <pt x="509" y="438" on="1"/>
        <pt x="510" y="514" on="0"/>
        <pt x="542" y="672" on="0"/>
        <pt x="606" y="821" on="0"/>
        <pt x="701" y="951" on="0"/>
        <pt x="828" y="1049" on="0"/>
        <pt x="986" y="1105" on="0"/>
        <pt x="1081" y="1105" on="1"/>
        <pt x="1102" y="1105" on="0"/>
        <pt x="1158" y="1098" on="0"/>
        <pt x="1217" y="1083" on="0"/>
        <pt x="1273" y="1061" on="0"/>
        <pt x="1294" y="1046" on="1"/>
        <pt x="1479" y="1086" on="1"/>
        <pt x="1464" y="1029" on="0"/>
        <pt x="1432" y="861" on="0"/>
        <pt x="1402" y="676" on="0"/>
        <pt x="1377" y="490" on="0"/>
        <pt x="1370" y="415" on="1"/>
        <pt x="1366" y="376" on="0"/>
        <pt x="1365" y="316" on="0"/>
        <pt x="1366" y="268" on="0"/>
        <pt x="1368" y="231" on="0"/>
        <pt x="1368" y="216" on="1"/>
        <pt x="1368" y="189" on="0"/>
        <pt x="1380" y="169" on="0"/>
        <pt x="1388" y="169" on="1"/>
        <pt x="1430" y="169" on="0"/>
        <pt x="1511" y="224" on="0"/>
        <pt x="1584" y="319" on="0"/>
        <pt x="1645" y="447" on="0"/>
        <pt x="1690" y="594" on="0"/>
        <pt x="1715" y="753" on="0"/>
        <pt x="1715" y="831" on="1"/>
        <pt x="1715" y="938" on="0"/>
        <pt x="1666" y="1107" on="0"/>
        <pt x="1581" y="1235" on="0"/>
        <pt x="1466" y="1326" on="0"/>
        <pt x="1331" y="1384" on="0"/>
        <pt x="1184" y="1410" on="0"/>
        <pt x="1110" y="1410" on="1"/>
        <pt x="979" y="1410" on="0"/>
        <pt x="753" y="1330" on="0"/>
        <pt x="567" y="1189" on="0"/>
        <pt x="424" y="997" on="0"/>
        <pt x="326" y="774" on="0"/>
        <pt x="275" y="530" on="0"/>
        <pt x="275" y="408" on="1"/>
        <pt x="275" y="223" on="0"/>
        <pt x="383" y="-39" on="0"/>
        <pt x="566" y="-205" on="0"/>
        <pt x="808" y="-282" on="0"/>
        <pt x="941" y="-282" on="1"/>
        <pt x="984" y="-282" on="0"/>
        <pt x="1085" y="-271" on="0"/>
        <pt x="1181" y="-254" on="0"/>
        <pt x="1264" y="-231" on="0"/>
        <pt x="1289" y="-219" on="1"/>
        <pt x="1326" y="-316" on="1"/>
        <pt x="1291" y="-342" on="0"/>
        <pt x="1200" y="-385" on="0"/>
        <pt x="1092" y="-416" on="0"/>
        <pt x="970" y="-433" on="0"/>
        <pt x="906" y="-433" on="1"/>
        <pt x="736" y="-433" on="0"/>
        <pt x="438" y="-341" on="0"/>
        <pt x="216" y="-152" on="0"/>
        <pt x="88" y="138" on="0"/>
      </contour>
      <contour>
        <pt x="724" y="447" on="1"/>
        <pt x="724" y="401" on="0"/>
        <pt x="738" y="312" on="0"/>
        <pt x="768" y="241" on="0"/>
        <pt x="816" y="198" on="0"/>
        <pt x="850" y="198" on="1"/>
        <pt x="881" y="198" on="0"/>
        <pt x="959" y="269" on="0"/>
        <pt x="1040" y="385" on="0"/>
        <pt x="1120" y="532" on="0"/>
        <pt x="1185" y="683" on="0"/>
        <pt x="1230" y="827" on="0"/>
        <pt x="1237" y="881" on="1"/>
        <pt x="1226" y="900" on="0"/>
        <pt x="1185" y="931" on="0"/>
        <pt x="1135" y="953" on="0"/>
        <pt x="1084" y="966" on="0"/>
        <pt x="1063" y="966" on="1"/>
        <pt x="1000" y="966" on="0"/>
        <pt x="901" y="922" on="0"/>
        <pt x="826" y="846" on="0"/>
        <pt x="773" y="745" on="0"/>
        <pt x="739" y="630" on="0"/>
        <pt x="724" y="506" on="0"/>
      </contour>
    </TTGlyph>
    <TTGlyph name="atilde" xMin="72" yMin="-20" xMax="1128" yMax="1665">
      <component glyphName="a" x="0" y="0" flags="0x204"/>
      <component glyphName="tilde" x="347" y="0" flags="0x4"/>
    </TTGlyph>
    <TTGlyph name="b" xMin="93" yMin="-20" xMax="1116" yMax="1650">
      <contour>
        <pt x="285" y="1484" on="1"/>
        <pt x="186" y="1527" on="1"/>
        <pt x="207" y="1611" on="1"/>
        <pt x="508" y="1650" on="1"/>
        <pt x="560" y="1623" on="1"/>
        <pt x="482" y="1033" on="1"/>
        <pt x="506" y="1058" on="0"/>
        <pt x="568" y="1105" on="0"/>
        <pt x="641" y="1141" on="0"/>
        <pt x="726" y="1163" on="0"/>
        <pt x="774" y="1163" on="1"/>
        <pt x="861" y="1163" on="0"/>
        <pt x="989" y="1102" on="0"/>
        <pt x="1074" y="989" on="0"/>
        <pt x="1116" y="829" on="0"/>
        <pt x="1116" y="730" on="1"/>
        <pt x="1116" y="639" on="0"/>
        <pt x="1076" y="458" on="0"/>
        <pt x="998" y="291" on="0"/>
        <pt x="884" y="147" on="0"/>
        <pt x="737" y="41" on="0"/>
        <pt x="559" y="-20" on="0"/>
        <pt x="456" y="-20" on="1"/>
        <pt x="425" y="-20" on="0"/>
        <pt x="360" y="-12" on="0"/>
        <pt x="296" y="0" on="0"/>
        <pt x="238" y="16" on="0"/>
        <pt x="215" y="24" on="1"/>
        <pt x="93" y="-20" on="1"/>
      </contour>
      <contour>
        <pt x="362" y="132" on="1"/>
        <pt x="388" y="120" on="0"/>
        <pt x="448" y="110" on="0"/>
        <pt x="484" y="110" on="1"/>
        <pt x="548" y="110" on="0"/>
        <pt x="651" y="163" on="0"/>
        <pt x="730" y="253" on="0"/>
        <pt x="788" y="374" on="0"/>
        <pt x="825" y="510" on="0"/>
        <pt x="843" y="654" on="0"/>
        <pt x="843" y="723" on="1"/>
        <pt x="843" y="785" on="0"/>
        <pt x="823" y="889" on="0"/>
        <pt x="783" y="963" on="0"/>
        <pt x="725" y="1004" on="0"/>
        <pt x="687" y="1004" on="1"/>
        <pt x="652" y="1004" on="0"/>
        <pt x="586" y="980" on="0"/>
        <pt x="528" y="940" on="0"/>
        <pt x="478" y="890" on="0"/>
        <pt x="459" y="864" on="1"/>
      </contour>
    </TTGlyph>
    <TTGlyph name="backslash" xMin="76" yMin="-362" xMax="854" yMax="1597">
      <contour>
        <pt x="76" y="1597" on="1"/>
        <pt x="277" y="1597" on="1"/>
        <pt x="854" y="-362" on="1"/>
        <pt x="652" y="-362" on="1"/>
      </contour>
    </TTGlyph>
    <TTGlyph name="bar" xMin="350" yMin="-186" xMax="543" yMax="1780">
      <contour>
        <pt x="350" y="1780" on="1"/>
        <pt x="543" y="1780" on="1"/>
        <pt x="543" y="-186" on="1"/>
        <pt x="350" y="-186" on="1"/>
      </contour>
    </TTGlyph>
    <TTGlyph name="braceleft" xMin="129" yMin="-208" xMax="1020" yMax="1750">
      <contour>
        <pt x="254" y="-65" on="1"/>
        <pt x="254" y="-60" on="0"/>
        <pt x="262" y="1" on="0"/>
        <pt x="275" y="94" on="0"/>
        <pt x="291" y="209" on="0"/>
        <pt x="300" y="268" on="1"/>
        <pt x="320" y="406" on="0"/>
        <pt x="346" y="579" on="1"/>
        <pt x="346" y="596" on="0"/>
        <pt x="318" y="630" on="0"/>
        <pt x="294" y="646" on="1"/>
        <pt x="262" y="668" on="0"/>
        <pt x="174" y="703" on="0"/>
        <pt x="129" y="714" on="1"/>
        <pt x="147" y="838" on="1"/>
        <pt x="196" y="850" on="0"/>
        <pt x="300" y="883" on="0"/>
        <pt x="339" y="903" on="1"/>
        <pt x="366" y="917" on="0"/>
        <pt x="401" y="949" on="0"/>
        <pt x="404" y="966" on="1"/>
        <pt x="485" y="1498" on="1"/>
        <pt x="497" y="1572" on="0"/>
        <pt x="541" y="1670" on="0"/>
        <pt x="609" y="1727" on="0"/>
        <pt x="701" y="1750" on="0"/>
        <pt x="760" y="1750" on="1"/>
        <pt x="793" y="1750" on="0"/>
        <pt x="882" y="1735" on="0"/>
        <pt x="923" y="1726" on="1"/>
        <pt x="971" y="1715" on="0"/>
        <pt x="1020" y="1703" on="1"/>
        <pt x="1016" y="1679" on="0"/>
        <pt x="1012" y="1659" on="1"/>
        <pt x="1009" y="1642" on="0"/>
        <pt x="1003" y="1608" on="0"/>
        <pt x="1003" y="1601" on="1"/>
        <pt x="727" y="1601" on="1"/>
        <pt x="631" y="970" on="1"/>
        <pt x="625" y="929" on="0"/>
        <pt x="573" y="871" on="0"/>
        <pt x="533" y="846" on="1"/>
        <pt x="522" y="839" on="0"/>
        <pt x="475" y="816" on="0"/>
        <pt x="450" y="805" on="1"/>
        <pt x="421" y="792" on="0"/>
        <pt x="388" y="776" on="1"/>
        <pt x="433" y="753" on="0"/>
        <pt x="508" y="707" on="0"/>
        <pt x="530" y="684" on="1"/>
        <pt x="553" y="661" on="0"/>
        <pt x="576" y="606" on="0"/>
        <pt x="571" y="575" on="1"/>
        <pt x="476" y="-55" on="1"/>
        <pt x="751" y="-55" on="1"/>
        <pt x="749" y="-61" on="0"/>
        <pt x="745" y="-95" on="0"/>
        <pt x="743" y="-114" on="1"/>
        <pt x="740" y="-136" on="0"/>
        <pt x="737" y="-161" on="1"/>
        <pt x="703" y="-171" on="0"/>
        <pt x="639" y="-188" on="0"/>
        <pt x="574" y="-201" on="0"/>
        <pt x="503" y="-208" on="0"/>
        <pt x="462" y="-208" on="1"/>
        <pt x="415" y="-208" on="0"/>
        <pt x="338" y="-194" on="0"/>
        <pt x="283" y="-161" on="0"/>
        <pt x="254" y="-106" on="0"/>
      </contour>
    </TTGlyph>
    <TTGlyph name="braceright" xMin="30" yMin="-204" xMax="921" yMax="1753">
      <component glyphName="braceleft" x="1050" y="1546" scale="-0.999938964844" flags="0x4"/>
    </TTGlyph>
    <TTGlyph name="bracketleft" xMin="145" yMin="-211" xMax="882" yMax="1753">
      <contour>
        <pt x="149" y="42" on="1"/>
        <pt x="151" y="76" on="0"/>
        <pt x="168" y="220" on="0"/>
        <pt x="194" y="411" on="0"/>
        <pt x="226" y="638" on="0"/>
        <pt x="260" y="873" on="0"/>
        <pt x="294" y="1103" on="0"/>
        <pt x="324" y="1303" on="0"/>
        <pt x="346" y="1458" on="0"/>
        <pt x="352" y="1501" on="1"/>
        <pt x="361" y="1573" on="0"/>
        <pt x="404" y="1670" on="0"/>
        <pt x="471" y="1728" on="0"/>
        <pt x="563" y="1753" on="0"/>
        <pt x="622" y="1753" on="1"/>
        <pt x="655" y="1753" on="0"/>
        <pt x="744" y="1738" on="0"/>
        <pt x="785" y="1729" on="1"/>
        <pt x="833" y="1718" on="0"/>
        <pt x="882" y="1706" on="1"/>
        <pt x="866" y="1601" on="1"/>
        <pt x="591" y="1601" on="1"/>
        <pt x="368" y="-55" on="1"/>
        <pt x="379" y="-55" on="0"/>
        <pt x="422" y="-55" on="0"/>
        <pt x="476" y="-56" on="0"/>
        <pt x="535" y="-56" on="0"/>
        <pt x="589" y="-57" on="0"/>
        <pt x="632" y="-57" on="0"/>
        <pt x="643" y="-57" on="1"/>
        <pt x="630" y="-164" on="1"/>
        <pt x="596" y="-174" on="0"/>
        <pt x="533" y="-191" on="0"/>
        <pt x="468" y="-204" on="0"/>
        <pt x="398" y="-211" on="0"/>
        <pt x="357" y="-211" on="1"/>
        <pt x="310" y="-211" on="0"/>
        <pt x="232" y="-197" on="0"/>
        <pt x="176" y="-164" on="0"/>
        <pt x="145" y="-109" on="0"/>
        <pt x="145" y="-68" on="1"/>
        <pt x="145" y="-42" on="0"/>
        <pt x="146" y="12" on="0"/>
      </contour>
    </TTGlyph>
    <TTGlyph name="bracketright" xMin="18" yMin="-197" xMax="755" yMax="1766">
      <component glyphName="bracketleft" x="900" y="1556" scale="-0.999938964844" flags="0x4"/>
    </TTGlyph>
    <TTGlyph name="breve" xMin="55" yMin="1300" xMax="695" yMax="1666">
      <contour>
        <pt x="356" y="1300" on="1"/>
        <pt x="276" y="1300" on="0"/>
        <pt x="163" y="1357" on="0"/>
        <pt x="89" y="1449" on="0"/>
        <pt x="55" y="1565" on="0"/>
        <pt x="55" y="1623" on="1"/>
        <pt x="55" y="1645" on="0"/>
        <pt x="58" y="1666" on="1"/>
        <pt x="203" y="1666" on="1"/>
        <pt x="203" y="1658" on="0"/>
        <pt x="203" y="1639" on="0"/>
        <pt x="204" y="1628" on="1"/>
        <pt x="207" y="1604" on="0"/>
        <pt x="223" y="1552" on="0"/>
        <pt x="257" y="1510" on="0"/>
        <pt x="316" y="1482" on="0"/>
        <pt x="361" y="1482" on="1"/>
        <pt x="416" y="1482" on="0"/>
        <pt x="486" y="1520" on="0"/>
        <pt x="528" y="1576" on="0"/>
        <pt x="548" y="1640" on="0"/>
        <pt x="553" y="1666" on="1"/>
        <pt x="695" y="1666" on="1"/>
        <pt x="695" y="1658" on="0"/>
        <pt x="695" y="1641" on="0"/>
        <pt x="694" y="1633" on="1"/>
        <pt x="690" y="1574" on="0"/>
        <pt x="642" y="1455" on="0"/>
        <pt x="557" y="1360" on="0"/>
        <pt x="435" y="1300" on="0"/>
      </contour>
    </TTGlyph>
    <TTGlyph name="breve.cap" xMin="53" yMin="1631" xMax="693" yMax="1997">
      <contour>
        <pt x="353" y="1631" on="1"/>
        <pt x="273" y="1631" on="0"/>
        <pt x="160" y="1688" on="0"/>
        <pt x="87" y="1780" on="0"/>
        <pt x="53" y="1895" on="0"/>
        <pt x="53" y="1953" on="1"/>
        <pt x="53" y="1976" on="0"/>
        <pt x="56" y="1997" on="1"/>
        <pt x="200" y="1997" on="1"/>
        <pt x="202" y="1959" on="1"/>
        <pt x="205" y="1935" on="0"/>
        <pt x="220" y="1883" on="0"/>
        <pt x="254" y="1840" on="0"/>
        <pt x="313" y="1813" on="0"/>
        <pt x="358" y="1813" on="1"/>
        <pt x="413" y="1813" on="0"/>
        <pt x="483" y="1851" on="0"/>
        <pt x="525" y="1907" on="0"/>
        <pt x="545" y="1971" on="0"/>
        <pt x="550" y="1997" on="1"/>
        <pt x="692" y="1997" on="1"/>
        <pt x="693" y="1989" on="0"/>
        <pt x="692" y="1971" on="0"/>
        <pt x="691" y="1963" on="1"/>
        <pt x="687" y="1904" on="0"/>
        <pt x="639" y="1786" on="0"/>
        <pt x="554" y="1691" on="0"/>
        <pt x="432" y="1631" on="0"/>
      </contour>
    </TTGlyph>
    <TTGlyph name="brokenbar" xMin="350" yMin="-186" xMax="543" yMax="1780">
      <contour>
        <pt x="350" y="1780" on="1"/>
        <pt x="543" y="1780" on="1"/>
        <pt x="543" y="901" on="1"/>
        <pt x="350" y="901" on="1"/>
      </contour>
      <contour>
        <pt x="350" y="693" on="1"/>
        <pt x="543" y="693" on="1"/>
        <pt x="543" y="-186" on="1"/>
        <pt x="350" y="-186" on="1"/>
      </contour>
    </TTGlyph>
    <TTGlyph name="bullet" xMin="198" yMin="481" xMax="678" yMax="966">
      <contour>
        <pt x="401" y="481" on="1"/>
        <pt x="359" y="481" on="0"/>
        <pt x="285" y="513" on="0"/>
        <pt x="230" y="569" on="0"/>
        <pt x="198" y="642" on="0"/>
        <pt x="198" y="683" on="1"/>
        <pt x="198" y="734" on="0"/>
        <pt x="239" y="835" on="0"/>
        <pt x="312" y="916" on="0"/>
        <pt x="414" y="966" on="0"/>
        <pt x="475" y="966" on="1"/>
        <pt x="517" y="966" on="0"/>
        <pt x="591" y="935" on="0"/>
        <pt x="646" y="882" on="0"/>
        <pt x="678" y="810" on="0"/>
        <pt x="678" y="768" on="1"/>
        <pt x="678" y="717" on="0"/>
        <pt x="640" y="615" on="0"/>
        <pt x="569" y="533" on="0"/>
        <pt x="466" y="481" on="0"/>
      </contour>
    </TTGlyph>
    <TTGlyph name="c" xMin="72" yMin="-20" xMax="928" yMax="1163">
      <contour>
        <pt x="73" y="440" on="1"/>
        <pt x="72" y="521" on="0"/>
        <pt x="106" y="691" on="0"/>
        <pt x="174" y="851" on="0"/>
        <pt x="277" y="994" on="0"/>
        <pt x="414" y="1101" on="0"/>
        <pt x="586" y="1163" on="0"/>
        <pt x="690" y="1163" on="1"/>
        <pt x="719" y="1163" on="0"/>
        <pt x="783" y="1157" on="0"/>
        <pt x="846" y="1147" on="0"/>
        <pt x="905" y="1130" on="0"/>
        <pt x="928" y="1120" on="1"/>
        <pt x="856" y="867" on="1"/>
        <pt x="835" y="880" on="0"/>
        <pt x="779" y="929" on="0"/>
        <pt x="719" y="976" on="0"/>
        <pt x="658" y="1011" on="0"/>
        <pt x="631" y="1011" on="1"/>
        <pt x="579" y="1011" on="0"/>
        <pt x="476" y="932" on="0"/>
        <pt x="395" y="787" on="0"/>
        <pt x="346" y="584" on="0"/>
        <pt x="348" y="460" on="1"/>
        <pt x="349" y="376" on="0"/>
        <pt x="375" y="256" on="0"/>
        <pt x="423" y="180" on="0"/>
        <pt x="493" y="144" on="0"/>
        <pt x="538" y="144" on="1"/>
        <pt x="580" y="144" on="0"/>
        <pt x="650" y="161" on="0"/>
        <pt x="713" y="192" on="0"/>
        <pt x="771" y="237" on="0"/>
        <pt x="802" y="265" on="1"/>
        <pt x="853" y="173" on="1"/>
        <pt x="833" y="146" on="0"/>
        <pt x="761" y="79" on="0"/>
        <pt x="658" y="20" on="0"/>
        <pt x="526" y="-20" on="0"/>
        <pt x="446" y="-20" on="1"/>
        <pt x="359" y="-20" on="0"/>
        <pt x="222" y="40" on="0"/>
        <pt x="126" y="157" on="0"/>
        <pt x="74" y="329" on="0"/>
      </contour>
    </TTGlyph>
    <TTGlyph name="cacute" xMin="72" yMin="-20" xMax="1038" yMax="1743">
      <component glyphName="acute" x="504" y="0" flags="0x4"/>
      <component glyphName="c" x="0" y="0" flags="0x4"/>
    </TTGlyph>
    <TTGlyph name="caron" xMin="60" yMin="1247" xMax="785" yMax="1660">
      <contour>
        <pt x="60" y="1602" on="1"/>
        <pt x="156" y="1660" on="1"/>
        <pt x="380" y="1433" on="1"/>
        <pt x="392" y="1443" on="0"/>
        <pt x="442" y="1479" on="0"/>
        <pt x="505" y="1523" on="0"/>
        <pt x="575" y="1571" on="0"/>
        <pt x="639" y="1615" on="0"/>
        <pt x="688" y="1650" on="0"/>
        <pt x="700" y="1660" on="1"/>
        <pt x="785" y="1603" on="1"/>
        <pt x="453" y="1247" on="1"/>
        <pt x="277" y="1247" on="1"/>
      </contour>
    </TTGlyph>
    <TTGlyph name="caron.cap" xMin="81" yMin="1607" xMax="805" yMax="2007">
      <contour>
        <pt x="81" y="1949" on="1"/>
        <pt x="176" y="2007" on="1"/>
        <pt x="400" y="1804" on="1"/>
        <pt x="720" y="2007" on="1"/>
        <pt x="805" y="1950" on="1"/>
        <pt x="473" y="1607" on="1"/>
        <pt x="297" y="1607" on="1"/>
      </contour>
    </TTGlyph>
    <TTGlyph name="caronvertical" xMin="202" yMin="1040" xMax="457" yMax="1680">
      <contour>
        <pt x="208" y="1070" on="1"/>
        <pt x="202" y="1095" on="1"/>
        <pt x="219" y="1150" on="0"/>
        <pt x="243" y="1306" on="0"/>
        <pt x="248" y="1391" on="1"/>
        <pt x="249" y="1419" on="0"/>
        <pt x="247" y="1481" on="0"/>
        <pt x="240" y="1536" on="0"/>
        <pt x="228" y="1581" on="0"/>
        <pt x="221" y="1592" on="1"/>
        <pt x="240" y="1634" on="1"/>
        <pt x="422" y="1680" on="1"/>
        <pt x="433" y="1668" on="0"/>
        <pt x="447" y="1624" on="0"/>
        <pt x="455" y="1569" on="0"/>
        <pt x="457" y="1504" on="0"/>
        <pt x="455" y="1471" on="1"/>
        <pt x="451" y="1409" on="0"/>
        <pt x="426" y="1284" on="0"/>
        <pt x="386" y="1171" on="0"/>
        <pt x="333" y="1074" on="0"/>
        <pt x="303" y="1040" on="1"/>
      </contour>
    </TTGlyph>
    <TTGlyph name="ccaron" xMin="72" yMin="-20" xMax="1062" yMax="1660">
      <component glyphName="caron" x="277" y="0" flags="0x4"/>
      <component glyphName="c" x="0" y="0" flags="0x4"/>
    </TTGlyph>
    <TTGlyph name="ccedilla" xMin="73" yMin="-474" xMax="929" yMax="1163">
      <contour>
        <pt x="161" y="-304" on="1"/>
        <pt x="174" y="-311" on="0"/>
        <pt x="213" y="-319" on="0"/>
        <pt x="236" y="-319" on="1"/>
        <pt x="270" y="-319" on="0"/>
        <pt x="331" y="-301" on="0"/>
        <pt x="378" y="-259" on="0"/>
        <pt x="408" y="-189" on="0"/>
        <pt x="412" y="-137" on="1"/>
        <pt x="416" y="-66" on="0"/>
        <pt x="410" y="-19" on="1"/>
        <pt x="252" y="-6" on="0"/>
        <pt x="76" y="228" on="0"/>
        <pt x="74" y="440" on="1"/>
        <pt x="73" y="521" on="0"/>
        <pt x="107" y="691" on="0"/>
        <pt x="175" y="851" on="0"/>
        <pt x="278" y="994" on="0"/>
        <pt x="415" y="1101" on="0"/>
        <pt x="587" y="1163" on="0"/>
        <pt x="691" y="1163" on="1"/>
        <pt x="720" y="1163" on="0"/>
        <pt x="784" y="1157" on="0"/>
        <pt x="847" y="1147" on="0"/>
        <pt x="906" y="1130" on="0"/>
        <pt x="929" y="1120" on="1"/>
        <pt x="857" y="867" on="1"/>
        <pt x="836" y="880" on="0"/>
        <pt x="780" y="929" on="0"/>
        <pt x="720" y="976" on="0"/>
        <pt x="659" y="1011" on="0"/>
        <pt x="632" y="1011" on="1"/>
        <pt x="580" y="1011" on="0"/>
        <pt x="477" y="932" on="0"/>
        <pt x="396" y="787" on="0"/>
        <pt x="347" y="584" on="0"/>
        <pt x="349" y="460" on="1"/>
        <pt x="350" y="376" on="0"/>
        <pt x="376" y="256" on="0"/>
        <pt x="424" y="180" on="0"/>
        <pt x="494" y="144" on="0"/>
        <pt x="539" y="144" on="1"/>
        <pt x="581" y="144" on="0"/>
        <pt x="651" y="161" on="0"/>
        <pt x="714" y="192" on="0"/>
        <pt x="772" y="237" on="0"/>
        <pt x="803" y="265" on="1"/>
        <pt x="854" y="173" on="1"/>
        <pt x="838" y="151" on="0"/>
        <pt x="783" y="97" on="0"/>
        <pt x="708" y="45" on="0"/>
        <pt x="612" y="2" on="0"/>
        <pt x="555" y="-9" on="1"/>
        <pt x="568" y="-48" on="0"/>
        <pt x="580" y="-160" on="0"/>
        <pt x="577" y="-212" on="1"/>
        <pt x="568" y="-352" on="0"/>
        <pt x="431" y="-474" on="0"/>
        <pt x="294" y="-474" on="1"/>
        <pt x="274" y="-474" on="0"/>
        <pt x="223" y="-470" on="0"/>
        <pt x="174" y="-462" on="0"/>
        <pt x="134" y="-452" on="0"/>
        <pt x="126" y="-446" on="1"/>
        <pt x="161" y="-304" on="1"/>
      </contour>
    </TTGlyph>
    <TTGlyph name="ccircumflex" xMin="72" yMin="-20" xMax="1024" yMax="1660">
      <component glyphName="circumflex" x="249" y="0" flags="0x4"/>
      <component glyphName="c" x="0" y="0" flags="0x4"/>
    </TTGlyph>
    <TTGlyph name="cdotaccent" xMin="72" yMin="-20" xMax="928" yMax="1676">
      <component glyphName="c" x="0" y="0" flags="0x204"/>
      <component glyphName="dotaccent" x="498" y="0" flags="0x4"/>
    </TTGlyph>
    <TTGlyph name="cedilla" xMin="-16" yMin="-474" xMax="437" yMax="34">
      <contour>
        <pt x="327" y="34" on="1"/>
        <pt x="395" y="30" on="1"/>
        <pt x="405" y="15" on="0"/>
        <pt x="422" y="-38" on="0"/>
        <pt x="433" y="-105" on="0"/>
        <pt x="437" y="-178" on="0"/>
        <pt x="435" y="-212" on="1"/>
        <pt x="426" y="-352" on="0"/>
        <pt x="289" y="-474" on="0"/>
        <pt x="152" y="-474" on="1"/>
        <pt x="132" y="-474" on="0"/>
        <pt x="81" y="-470" on="0"/>
        <pt x="32" y="-462" on="0"/>
        <pt x="-8" y="-452" on="0"/>
        <pt x="-16" y="-446" on="1"/>
        <pt x="19" y="-304" on="1"/>
        <pt x="32" y="-311" on="0"/>
        <pt x="71" y="-319" on="0"/>
        <pt x="94" y="-319" on="1"/>
        <pt x="128" y="-319" on="0"/>
        <pt x="189" y="-301" on="0"/>
        <pt x="236" y="-259" on="0"/>
        <pt x="266" y="-189" on="0"/>
        <pt x="270" y="-137" on="1"/>
        <pt x="275" y="-77" on="0"/>
        <pt x="265" y="6" on="0"/>
        <pt x="260" y="30" on="1"/>
      </contour>
    </TTGlyph>
    <TTGlyph name="cent" xMin="126" yMin="-215" xMax="982" yMax="1358">
      <contour>
        <pt x="403" y="-9" on="1"/>
        <pt x="272" y="22" on="0"/>
        <pt x="128" y="249" on="0"/>
        <pt x="127" y="440" on="1"/>
        <pt x="126" y="512" on="0"/>
        <pt x="152" y="662" on="0"/>
        <pt x="206" y="808" on="0"/>
        <pt x="288" y="942" on="0"/>
        <pt x="397" y="1051" on="0"/>
        <pt x="533" y="1131" on="0"/>
        <pt x="615" y="1149" on="1"/>
        <pt x="664" y="1358" on="1"/>
        <pt x="814" y="1358" on="1"/>
        <pt x="767" y="1162" on="1"/>
        <pt x="822" y="1160" on="0"/>
        <pt x="940" y="1139" on="0"/>
        <pt x="982" y="1120" on="1"/>
        <pt x="910" y="867" on="1"/>
        <pt x="889" y="880" on="0"/>
        <pt x="833" y="929" on="0"/>
        <pt x="773" y="976" on="0"/>
        <pt x="712" y="1011" on="0"/>
        <pt x="685" y="1011" on="1"/>
        <pt x="633" y="1011" on="0"/>
        <pt x="530" y="932" on="0"/>
        <pt x="449" y="787" on="0"/>
        <pt x="400" y="584" on="0"/>
        <pt x="402" y="460" on="1"/>
        <pt x="403" y="376" on="0"/>
        <pt x="429" y="256" on="0"/>
        <pt x="477" y="180" on="0"/>
        <pt x="547" y="144" on="0"/>
        <pt x="592" y="144" on="1"/>
        <pt x="634" y="144" on="0"/>
        <pt x="704" y="161" on="0"/>
        <pt x="767" y="192" on="0"/>
        <pt x="825" y="237" on="0"/>
        <pt x="856" y="265" on="1"/>
        <pt x="907" y="173" on="1"/>
        <pt x="889" y="148" on="0"/>
        <pt x="825" y="87" on="0"/>
        <pt x="735" y="32" on="0"/>
        <pt x="620" y="-11" on="0"/>
        <pt x="551" y="-17" on="1"/>
        <pt x="515" y="-215" on="1"/>
        <pt x="365" y="-215" on="1"/>
        <pt x="403" y="-9" on="1"/>
      </contour>
    </TTGlyph>
    <TTGlyph name="circumflex" xMin="50" yMin="1228" xMax="775" yMax="1660">
      <contour>
        <pt x="50" y="1286" on="1"/>
        <pt x="397" y="1660" on="1"/>
        <pt x="575" y="1660" on="1"/>
        <pt x="775" y="1286" on="1"/>
        <pt x="676" y="1228" on="1"/>
        <pt x="460" y="1462" on="1"/>
        <pt x="132" y="1229" on="1"/>
      </contour>
    </TTGlyph>
    <TTGlyph name="circumflex.cap" xMin="50" yMin="1606" xMax="775" yMax="2007">
      <contour>
        <pt x="50" y="1665" on="1"/>
        <pt x="386" y="2007" on="1"/>
        <pt x="564" y="2007" on="1"/>
        <pt x="775" y="1665" on="1"/>
        <pt x="679" y="1606" on="1"/>
        <pt x="458" y="1824" on="1"/>
        <pt x="134" y="1607" on="1"/>
      </contour>
    </TTGlyph>
    <TTGlyph name="colon" xMin="63" yMin="-21" xMax="473" yMax="1105">
      <component glyphName="period" x="89" y="809" flags="0x204"/>
      <component glyphName="period" x="-9" y="0" flags="0x4"/>
    </TTGlyph>
    <TTGlyph name="comma" xMin="-27" yMin="-511" xMax="410" yMax="280">
      <contour>
        <pt x="84" y="137" on="1"/>
        <pt x="208" y="280" on="1"/>
        <pt x="267" y="266" on="0"/>
        <pt x="345" y="205" on="0"/>
        <pt x="391" y="127" on="0"/>
        <pt x="410" y="38" on="0"/>
        <pt x="410" y="-4" on="1"/>
        <pt x="410" y="-88" on="0"/>
        <pt x="354" y="-241" on="0"/>
        <pt x="253" y="-372" on="0"/>
        <pt x="112" y="-476" on="0"/>
        <pt x="27" y="-511" on="1"/>
        <pt x="-27" y="-432" on="1"/>
        <pt x="-24" y="-411" on="1"/>
        <pt x="18" y="-393" on="0"/>
        <pt x="93" y="-322" on="0"/>
        <pt x="150" y="-234" on="0"/>
        <pt x="183" y="-135" on="0"/>
        <pt x="183" y="-88" on="1"/>
        <pt x="183" y="-55" on="0"/>
        <pt x="166" y="6" on="0"/>
        <pt x="137" y="52" on="0"/>
        <pt x="99" y="79" on="0"/>
        <pt x="77" y="78" on="1"/>
      </contour>
    </TTGlyph>
    <TTGlyph name="commaaccent" xMin="21" yMin="-560" xMax="322" yMax="-44">
      <contour>
        <pt x="175" y="-44" on="1"/>
        <pt x="209" y="-51" on="0"/>
        <pt x="264" y="-92" on="0"/>
        <pt x="302" y="-151" on="0"/>
        <pt x="322" y="-223" on="0"/>
        <pt x="320" y="-262" on="1"/>
        <pt x="317" y="-322" on="0"/>
        <pt x="270" y="-426" on="0"/>
        <pt x="203" y="-504" on="0"/>
        <pt x="125" y="-553" on="0"/>
        <pt x="91" y="-560" on="1"/>
        <pt x="21" y="-505" on="1"/>
        <pt x="24" y="-479" on="1"/>
        <pt x="52" y="-459" on="0"/>
        <pt x="95" y="-393" on="0"/>
        <pt x="97" y="-339" on="1"/>
        <pt x="98" y="-321" on="0"/>
        <pt x="88" y="-284" on="0"/>
        <pt x="70" y="-253" on="0"/>
        <pt x="43" y="-232" on="0"/>
        <pt x="28" y="-230" on="1"/>
        <pt x="36" y="-156" on="1"/>
      </contour>
    </TTGlyph>
    <TTGlyph name="copyright" xMin="168" yMin="42" xMax="1699" yMax="1569">
      <contour>
        <pt x="168" y="806" on="1"/>
        <pt x="168" y="912" on="0"/>
        <pt x="223" y="1107" on="0"/>
        <pt x="323" y="1277" on="0"/>
        <pt x="463" y="1416" on="0"/>
        <pt x="633" y="1515" on="0"/>
        <pt x="828" y="1569" on="0"/>
        <pt x="933" y="1569" on="1"/>
        <pt x="1038" y="1569" on="0"/>
        <pt x="1234" y="1515" on="0"/>
        <pt x="1404" y="1416" on="0"/>
        <pt x="1544" y="1277" on="0"/>
        <pt x="1644" y="1107" on="0"/>
        <pt x="1699" y="912" on="0"/>
        <pt x="1699" y="806" on="1"/>
        <pt x="1699" y="700" on="0"/>
        <pt x="1644" y="504" on="0"/>
        <pt x="1544" y="335" on="0"/>
        <pt x="1404" y="195" on="0"/>
        <pt x="1234" y="96" on="0"/>
        <pt x="1038" y="42" on="0"/>
        <pt x="933" y="42" on="1"/>
        <pt x="828" y="42" on="0"/>
        <pt x="633" y="96" on="0"/>
        <pt x="463" y="195" on="0"/>
        <pt x="323" y="335" on="0"/>
        <pt x="223" y="504" on="0"/>
        <pt x="168" y="700" on="0"/>
      </contour>
      <contour>
        <pt x="297" y="806" on="1"/>
        <pt x="297" y="717" on="0"/>
        <pt x="342" y="551" on="0"/>
        <pt x="424" y="407" on="0"/>
        <pt x="539" y="289" on="0"/>
        <pt x="681" y="204" on="0"/>
        <pt x="844" y="158" on="0"/>
        <pt x="933" y="158" on="1"/>
        <pt x="1022" y="158" on="0"/>
        <pt x="1186" y="204" on="0"/>
        <pt x="1328" y="289" on="0"/>
        <pt x="1443" y="407" on="0"/>
        <pt x="1525" y="551" on="0"/>
        <pt x="1570" y="717" on="0"/>
        <pt x="1570" y="806" on="1"/>
        <pt x="1570" y="895" on="0"/>
        <pt x="1525" y="1060" on="0"/>
        <pt x="1443" y="1204" on="0"/>
        <pt x="1328" y="1323" on="0"/>
        <pt x="1186" y="1407" on="0"/>
        <pt x="1022" y="1454" on="0"/>
        <pt x="933" y="1454" on="1"/>
        <pt x="844" y="1454" on="0"/>
        <pt x="681" y="1407" on="0"/>
        <pt x="539" y="1323" on="0"/>
        <pt x="424" y="1204" on="0"/>
        <pt x="342" y="1060" on="0"/>
        <pt x="297" y="895" on="0"/>
      </contour>
      <contour>
        <pt x="542" y="802" on="1"/>
        <pt x="541" y="892" on="0"/>
        <pt x="599" y="1054" on="0"/>
        <pt x="709" y="1175" on="0"/>
        <pt x="868" y="1247" on="0"/>
        <pt x="969" y="1247" on="1"/>
        <pt x="1003" y="1247" on="0"/>
        <pt x="1073" y="1241" on="0"/>
        <pt x="1136" y="1231" on="0"/>
        <pt x="1188" y="1217" on="0"/>
        <pt x="1203" y="1209" on="1"/>
        <pt x="1203" y="989" on="1"/>
        <pt x="1114" y="989" on="1"/>
        <pt x="1065" y="1109" on="1"/>
        <pt x="1043" y="1129" on="0"/>
        <pt x="978" y="1148" on="0"/>
        <pt x="938" y="1148" on="1"/>
        <pt x="893" y="1148" on="0"/>
        <pt x="814" y="1109" on="0"/>
        <pt x="756" y="1036" on="0"/>
        <pt x="721" y="929" on="0"/>
        <pt x="721" y="861" on="1"/>
        <pt x="720" y="756" on="0"/>
        <pt x="763" y="614" on="0"/>
        <pt x="832" y="527" on="0"/>
        <pt x="917" y="489" on="0"/>
        <pt x="959" y="489" on="1"/>
        <pt x="1031" y="489" on="0"/>
        <pt x="1146" y="525" on="0"/>
        <pt x="1179" y="544" on="1"/>
        <pt x="1213" y="458" on="1"/>
        <pt x="1192" y="440" on="0"/>
        <pt x="1128" y="407" on="0"/>
        <pt x="1051" y="382" on="0"/>
        <pt x="965" y="366" on="0"/>
        <pt x="920" y="366" on="1"/>
        <pt x="830" y="366" on="0"/>
        <pt x="690" y="435" on="0"/>
        <pt x="593" y="554" on="0"/>
        <pt x="542" y="712" on="0"/>
      </contour>
    </TTGlyph>
    <TTGlyph name="currency" xMin="215" yMin="116" xMax="1355" yMax="1263">
      <contour>
        <pt x="418" y="443" on="1"/>
        <pt x="382" y="496" on="0"/>
        <pt x="342" y="621" on="0"/>
        <pt x="342" y="690" on="1"/>
        <pt x="342" y="758" on="0"/>
        <pt x="381" y="881" on="0"/>
        <pt x="416" y="934" on="1"/>
        <pt x="215" y="1135" on="1"/>
        <pt x="342" y="1263" on="1"/>
        <pt x="545" y="1059" on="1"/>
        <pt x="596" y="1091" on="0"/>
        <pt x="716" y="1128" on="0"/>
        <pt x="782" y="1128" on="1"/>
        <pt x="851" y="1128" on="0"/>
        <pt x="976" y="1088" on="0"/>
        <pt x="1029" y="1052" on="1"/>
        <pt x="1228" y="1250" on="1"/>
        <pt x="1355" y="1122" on="1"/>
        <pt x="1155" y="922" on="1"/>
        <pt x="1187" y="871" on="0"/>
        <pt x="1222" y="754" on="0"/>
        <pt x="1222" y="690" on="1"/>
        <pt x="1222" y="623" on="0"/>
        <pt x="1184" y="502" on="0"/>
        <pt x="1150" y="450" on="1"/>
        <pt x="1353" y="248" on="1"/>
        <pt x="1225" y="121" on="1"/>
        <pt x="1023" y="323" on="1"/>
        <pt x="971" y="289" on="0"/>
        <pt x="849" y="252" on="0"/>
        <pt x="782" y="252" on="1"/>
        <pt x="717" y="252" on="0"/>
        <pt x="599" y="286" on="0"/>
        <pt x="548" y="318" on="1"/>
        <pt x="346" y="116" on="1"/>
        <pt x="218" y="243" on="1"/>
      </contour>
      <contour>
        <pt x="533" y="690" on="1"/>
        <pt x="533" y="637" on="0"/>
        <pt x="572" y="542" on="0"/>
        <pt x="639" y="471" on="0"/>
        <pt x="730" y="430" on="0"/>
        <pt x="782" y="430" on="1"/>
        <pt x="834" y="430" on="0"/>
        <pt x="924" y="471" on="0"/>
        <pt x="992" y="542" on="0"/>
        <pt x="1031" y="637" on="0"/>
        <pt x="1031" y="690" on="1"/>
        <pt x="1031" y="744" on="0"/>
        <pt x="992" y="839" on="0"/>
        <pt x="924" y="910" on="0"/>
        <pt x="834" y="951" on="0"/>
        <pt x="782" y="951" on="1"/>
        <pt x="730" y="951" on="0"/>
        <pt x="639" y="910" on="0"/>
        <pt x="572" y="839" on="0"/>
        <pt x="533" y="744" on="0"/>
      </contour>
    </TTGlyph>
    <TTGlyph name="d" xMin="72" yMin="-20" xMax="1187" yMax="1650">
      <contour>
        <pt x="409" y="-20" on="1"/>
        <pt x="320" y="-20" on="0"/>
        <pt x="193" y="46" on="0"/>
        <pt x="111" y="161" on="0"/>
        <pt x="72" y="317" on="0"/>
        <pt x="72" y="407" on="1"/>
        <pt x="72" y="494" on="0"/>
        <pt x="109" y="674" on="0"/>
        <pt x="184" y="842" on="0"/>
        <pt x="295" y="989" on="0"/>
        <pt x="442" y="1099" on="0"/>
        <pt x="625" y="1163" on="0"/>
        <pt x="734" y="1163" on="1"/>
        <pt x="763" y="1163" on="0"/>
        <pt x="824" y="1155" on="0"/>
        <pt x="854" y="1149" on="1"/>
        <pt x="904" y="1482" on="1"/>
        <pt x="764" y="1525" on="1"/>
        <pt x="784" y="1608" on="1"/>
        <pt x="1132" y="1650" on="1"/>
        <pt x="1187" y="1623" on="1"/>
        <pt x="982" y="208" on="1"/>
        <pt x="977" y="172" on="0"/>
        <pt x="990" y="131" on="0"/>
        <pt x="1010" y="131" on="1"/>
        <pt x="1024" y="131" on="0"/>
        <pt x="1063" y="149" on="0"/>
        <pt x="1099" y="177" on="1"/>
        <pt x="1129" y="115" on="1"/>
        <pt x="1121" y="105" on="0"/>
        <pt x="1080" y="61" on="0"/>
        <pt x="1015" y="15" on="0"/>
        <pt x="930" y="-20" on="0"/>
        <pt x="878" y="-20" on="1"/>
        <pt x="800" y="-20" on="0"/>
        <pt x="729" y="60" on="0"/>
        <pt x="730" y="144" on="1"/>
        <pt x="707" y="114" on="0"/>
        <pt x="643" y="55" on="0"/>
        <pt x="562" y="9" on="0"/>
        <pt x="465" y="-20" on="0"/>
      </contour>
      <contour>
        <pt x="496" y="138" on="1"/>
        <pt x="531" y="138" on="0"/>
        <pt x="597" y="163" on="0"/>
        <pt x="656" y="204" on="0"/>
        <pt x="705" y="255" on="0"/>
        <pt x="724" y="281" on="1"/>
        <pt x="833" y="1006" on="1"/>
        <pt x="806" y="1020" on="0"/>
        <pt x="742" y="1032" on="0"/>
        <pt x="707" y="1032" on="1"/>
        <pt x="641" y="1032" on="0"/>
        <pt x="536" y="977" on="0"/>
        <pt x="455" y="883" on="0"/>
        <pt x="398" y="760" on="0"/>
        <pt x="362" y="624" on="0"/>
        <pt x="345" y="484" on="0"/>
        <pt x="345" y="420" on="1"/>
        <pt x="345" y="284" on="0"/>
        <pt x="425" y="138" on="0"/>
      </contour>
    </TTGlyph>
    <TTGlyph name="dagger" xMin="120" yMin="151" xMax="873" yMax="1646">
      <contour>
        <pt x="365" y="1008" on="1"/>
        <pt x="390" y="1117" on="1"/>
        <pt x="120" y="1117" on="1"/>
        <pt x="145" y="1288" on="1"/>
        <pt x="436" y="1288" on="1"/>
        <pt x="437" y="1300" on="0"/>
        <pt x="437" y="1351" on="0"/>
        <pt x="438" y="1406" on="0"/>
        <pt x="438" y="1457" on="0"/>
        <pt x="439" y="1469" on="1"/>
        <pt x="460" y="1646" on="1"/>
        <pt x="680" y="1646" on="1"/>
        <pt x="650" y="1469" on="1"/>
        <pt x="591" y="1288" on="1"/>
        <pt x="873" y="1288" on="1"/>
        <pt x="849" y="1117" on="1"/>
        <pt x="589" y="1117" on="1"/>
        <pt x="584" y="1008" on="1"/>
        <pt x="413" y="151" on="1"/>
        <pt x="266" y="151" on="1"/>
      </contour>
    </TTGlyph>
    <TTGlyph name="daggerdbl" xMin="117" yMin="-51" xMax="879" yMax="1646">
      <contour>
        <pt x="298" y="499" on="1"/>
        <pt x="333" y="618" on="1"/>
        <pt x="117" y="618" on="1"/>
        <pt x="145" y="790" on="1"/>
        <pt x="368" y="790" on="1"/>
        <pt x="364" y="981" on="1"/>
        <pt x="411" y="1117" on="1"/>
        <pt x="150" y="1117" on="1"/>
        <pt x="177" y="1288" on="1"/>
        <pt x="458" y="1288" on="1"/>
        <pt x="456" y="1469" on="1"/>
        <pt x="475" y="1646" on="1"/>
        <pt x="696" y="1646" on="1"/>
        <pt x="668" y="1469" on="1"/>
        <pt x="613" y="1288" on="1"/>
        <pt x="879" y="1288" on="1"/>
        <pt x="854" y="1117" on="1"/>
        <pt x="605" y="1117" on="1"/>
        <pt x="604" y="1108" on="0"/>
        <pt x="603" y="1070" on="0"/>
        <pt x="603" y="1028" on="0"/>
        <pt x="603" y="990" on="0"/>
        <pt x="603" y="981" on="1"/>
        <pt x="534" y="790" on="1"/>
        <pt x="774" y="790" on="1"/>
        <pt x="749" y="618" on="1"/>
        <pt x="533" y="618" on="1"/>
        <pt x="533" y="610" on="0"/>
        <pt x="532" y="577" on="0"/>
        <pt x="531" y="540" on="0"/>
        <pt x="528" y="506" on="0"/>
        <pt x="527" y="499" on="1"/>
        <pt x="418" y="-51" on="1"/>
        <pt x="270" y="-51" on="1"/>
      </contour>
    </TTGlyph>
    <TTGlyph name="dcaron" xMin="72" yMin="-20" xMax="1530" yMax="1651">
      <component glyphName="d" x="0" y="0" flags="0x4"/>
      <component glyphName="caronvertical" x="1073" y="-29" flags="0x4"/>
    </TTGlyph>
    <TTGlyph name="dcroat" xMin="74" yMin="-20" xMax="1285" yMax="1650">
      <contour>
        <pt x="411" y="-20" on="1"/>
        <pt x="322" y="-20" on="0"/>
        <pt x="195" y="46" on="0"/>
        <pt x="113" y="161" on="0"/>
        <pt x="74" y="317" on="0"/>
        <pt x="74" y="407" on="1"/>
        <pt x="74" y="494" on="0"/>
        <pt x="111" y="674" on="0"/>
        <pt x="186" y="842" on="0"/>
        <pt x="297" y="989" on="0"/>
        <pt x="444" y="1099" on="0"/>
        <pt x="627" y="1163" on="0"/>
        <pt x="736" y="1163" on="1"/>
        <pt x="765" y="1163" on="0"/>
        <pt x="826" y="1155" on="0"/>
        <pt x="856" y="1149" on="1"/>
        <pt x="873" y="1262" on="1"/>
        <pt x="607" y="1262" on="1"/>
        <pt x="623" y="1392" on="1"/>
        <pt x="892" y="1392" on="1"/>
        <pt x="906" y="1482" on="1"/>
        <pt x="766" y="1525" on="1"/>
        <pt x="786" y="1608" on="1"/>
        <pt x="1134" y="1650" on="1"/>
        <pt x="1189" y="1623" on="1"/>
        <pt x="1155" y="1392" on="1"/>
        <pt x="1285" y="1392" on="1"/>
        <pt x="1269" y="1262" on="1"/>
        <pt x="1136" y="1262" on="1"/>
        <pt x="984" y="208" on="1"/>
        <pt x="979" y="172" on="0"/>
        <pt x="992" y="131" on="0"/>
        <pt x="1012" y="131" on="1"/>
        <pt x="1026" y="131" on="0"/>
        <pt x="1065" y="149" on="0"/>
        <pt x="1101" y="177" on="1"/>
        <pt x="1131" y="115" on="1"/>
        <pt x="1123" y="105" on="0"/>
        <pt x="1082" y="61" on="0"/>
        <pt x="1017" y="15" on="0"/>
        <pt x="932" y="-20" on="0"/>
        <pt x="880" y="-20" on="1"/>
        <pt x="802" y="-20" on="0"/>
        <pt x="731" y="60" on="0"/>
        <pt x="732" y="144" on="1"/>
        <pt x="709" y="114" on="0"/>
        <pt x="645" y="55" on="0"/>
        <pt x="564" y="9" on="0"/>
        <pt x="467" y="-20" on="0"/>
      </contour>
      <contour>
        <pt x="498" y="138" on="1"/>
        <pt x="533" y="138" on="0"/>
        <pt x="599" y="163" on="0"/>
        <pt x="658" y="204" on="0"/>
        <pt x="707" y="255" on="0"/>
        <pt x="726" y="281" on="1"/>
        <pt x="835" y="1006" on="1"/>
        <pt x="808" y="1020" on="0"/>
        <pt x="744" y="1032" on="0"/>
        <pt x="709" y="1032" on="1"/>
        <pt x="643" y="1032" on="0"/>
        <pt x="538" y="977" on="0"/>
        <pt x="457" y="883" on="0"/>
        <pt x="400" y="760" on="0"/>
        <pt x="364" y="624" on="0"/>
        <pt x="347" y="484" on="0"/>
        <pt x="347" y="420" on="1"/>
        <pt x="347" y="284" on="0"/>
        <pt x="427" y="138" on="0"/>
      </contour>
    </TTGlyph>
    <TTGlyph name="degree" xMin="192" yMin="945" xMax="876" yMax="1611">
      <contour>
        <pt x="523" y="945" on="1"/>
        <pt x="451" y="945" on="0"/>
        <pt x="329" y="998" on="0"/>
        <pt x="241" y="1088" on="0"/>
        <pt x="192" y="1209" on="0"/>
        <pt x="193" y="1278" on="1"/>
        <pt x="194" y="1349" on="0"/>
        <pt x="248" y="1471" on="0"/>
        <pt x="341" y="1560" on="0"/>
        <pt x="468" y="1611" on="0"/>
        <pt x="543" y="1611" on="1"/>
        <pt x="615" y="1611" on="0"/>
        <pt x="737" y="1558" on="0"/>
        <pt x="826" y="1468" on="0"/>
        <pt x="876" y="1347" on="0"/>
        <pt x="875" y="1278" on="1"/>
        <pt x="874" y="1206" on="0"/>
        <pt x="820" y="1084" on="0"/>
        <pt x="725" y="995" on="0"/>
        <pt x="598" y="945" on="0"/>
      </contour>
      <contour>
        <pt x="530" y="1084" on="1"/>
        <pt x="570" y="1084" on="0"/>
        <pt x="638" y="1113" on="0"/>
        <pt x="688" y="1165" on="0"/>
        <pt x="717" y="1236" on="0"/>
        <pt x="717" y="1278" on="1"/>
        <pt x="718" y="1318" on="0"/>
        <pt x="690" y="1389" on="0"/>
        <pt x="642" y="1441" on="0"/>
        <pt x="575" y="1472" on="0"/>
        <pt x="537" y="1472" on="1"/>
        <pt x="497" y="1472" on="0"/>
        <pt x="429" y="1443" on="0"/>
        <pt x="380" y="1391" on="0"/>
        <pt x="352" y="1320" on="0"/>
        <pt x="351" y="1278" on="1"/>
        <pt x="350" y="1238" on="0"/>
        <pt x="377" y="1167" on="0"/>
        <pt x="426" y="1115" on="0"/>
        <pt x="492" y="1084" on="0"/>
      </contour>
    </TTGlyph>
    <TTGlyph name="dieresis" xMin="38" yMin="1363" xMax="773" yMax="1676">
      <contour>
        <pt x="604" y="1363" on="1"/>
        <pt x="577" y="1363" on="0"/>
        <pt x="529" y="1387" on="0"/>
        <pt x="494" y="1427" on="0"/>
        <pt x="474" y="1479" on="0"/>
        <pt x="475" y="1507" on="1"/>
        <pt x="476" y="1541" on="0"/>
        <pt x="501" y="1603" on="0"/>
        <pt x="543" y="1649" on="0"/>
        <pt x="601" y="1676" on="0"/>
        <pt x="636" y="1676" on="1"/>
        <pt x="668" y="1676" on="0"/>
        <pt x="719" y="1653" on="0"/>
        <pt x="754" y="1614" on="0"/>
        <pt x="773" y="1565" on="0"/>
        <pt x="772" y="1538" on="1"/>
        <pt x="771" y="1503" on="0"/>
        <pt x="747" y="1439" on="0"/>
        <pt x="704" y="1391" on="0"/>
        <pt x="643" y="1363" on="0"/>
      </contour>
      <contour>
        <pt x="168" y="1363" on="1"/>
        <pt x="141" y="1363" on="0"/>
        <pt x="93" y="1387" on="0"/>
        <pt x="58" y="1427" on="0"/>
        <pt x="38" y="1479" on="0"/>
        <pt x="39" y="1507" on="1"/>
        <pt x="40" y="1541" on="0"/>
        <pt x="65" y="1603" on="0"/>
        <pt x="107" y="1649" on="0"/>
        <pt x="165" y="1676" on="0"/>
        <pt x="200" y="1676" on="1"/>
        <pt x="232" y="1676" on="0"/>
        <pt x="283" y="1653" on="0"/>
        <pt x="318" y="1614" on="0"/>
        <pt x="337" y="1565" on="0"/>
        <pt x="336" y="1538" on="1"/>
        <pt x="335" y="1503" on="0"/>
        <pt x="311" y="1439" on="0"/>
        <pt x="268" y="1391" on="0"/>
        <pt x="207" y="1363" on="0"/>
      </contour>
    </TTGlyph>
    <TTGlyph name="dieresis.cap" xMin="39" yMin="1679" xMax="764" yMax="1972">
      <contour>
        <pt x="599" y="1679" on="1"/>
        <pt x="572" y="1679" on="0"/>
        <pt x="526" y="1699" on="0"/>
        <pt x="493" y="1735" on="0"/>
        <pt x="474" y="1784" on="0"/>
        <pt x="474" y="1812" on="1"/>
        <pt x="474" y="1847" on="0"/>
        <pt x="500" y="1906" on="0"/>
        <pt x="543" y="1948" on="0"/>
        <pt x="600" y="1972" on="0"/>
        <pt x="631" y="1972" on="1"/>
        <pt x="663" y="1972" on="0"/>
        <pt x="713" y="1952" on="0"/>
        <pt x="747" y="1917" on="0"/>
        <pt x="764" y="1870" on="0"/>
        <pt x="763" y="1843" on="1"/>
        <pt x="762" y="1808" on="0"/>
        <pt x="738" y="1748" on="0"/>
        <pt x="696" y="1704" on="0"/>
        <pt x="636" y="1679" on="0"/>
      </contour>
      <contour>
        <pt x="164" y="1679" on="1"/>
        <pt x="137" y="1679" on="0"/>
        <pt x="91" y="1700" on="0"/>
        <pt x="57" y="1736" on="0"/>
        <pt x="39" y="1784" on="0"/>
        <pt x="40" y="1812" on="1"/>
        <pt x="41" y="1847" on="0"/>
        <pt x="66" y="1906" on="0"/>
        <pt x="108" y="1948" on="0"/>
        <pt x="164" y="1972" on="0"/>
        <pt x="195" y="1972" on="1"/>
        <pt x="227" y="1972" on="0"/>
        <pt x="277" y="1952" on="0"/>
        <pt x="311" y="1917" on="0"/>
        <pt x="328" y="1870" on="0"/>
        <pt x="327" y="1843" on="1"/>
        <pt x="326" y="1808" on="0"/>
        <pt x="303" y="1748" on="0"/>
        <pt x="260" y="1704" on="0"/>
        <pt x="201" y="1679" on="0"/>
      </contour>
    </TTGlyph>
    <TTGlyph name="divide" xMin="259" yMin="201" xMax="1181" yMax="1347">
      <contour>
        <pt x="746" y="1031" on="1"/>
        <pt x="719" y="1031" on="0"/>
        <pt x="670" y="1052" on="0"/>
        <pt x="634" y="1089" on="0"/>
        <pt x="614" y="1142" on="0"/>
        <pt x="616" y="1174" on="1"/>
        <pt x="618" y="1213" on="0"/>
        <pt x="652" y="1277" on="0"/>
        <pt x="704" y="1322" on="0"/>
        <pt x="768" y="1347" on="0"/>
        <pt x="799" y="1347" on="1"/>
        <pt x="835" y="1347" on="0"/>
        <pt x="887" y="1323" on="0"/>
        <pt x="921" y="1284" on="0"/>
        <pt x="935" y="1232" on="0"/>
        <pt x="934" y="1204" on="1"/>
        <pt x="932" y="1162" on="0"/>
        <pt x="897" y="1098" on="0"/>
        <pt x="844" y="1054" on="0"/>
        <pt x="778" y="1031" on="0"/>
      </contour>
      <contour>
        <pt x="277" y="862" on="1"/>
        <pt x="1181" y="862" on="1"/>
        <pt x="1163" y="685" on="1"/>
        <pt x="259" y="685" on="1"/>
      </contour>
      <contour>
        <pt x="512" y="344" on="1"/>
        <pt x="514" y="383" on="0"/>
        <pt x="548" y="447" on="0"/>
        <pt x="600" y="492" on="0"/>
        <pt x="663" y="517" on="0"/>
        <pt x="695" y="517" on="1"/>
        <pt x="731" y="517" on="0"/>
        <pt x="783" y="493" on="0"/>
        <pt x="816" y="454" on="0"/>
        <pt x="830" y="402" on="0"/>
        <pt x="829" y="374" on="1"/>
        <pt x="827" y="332" on="0"/>
        <pt x="792" y="268" on="0"/>
        <pt x="739" y="224" on="0"/>
        <pt x="674" y="201" on="0"/>
        <pt x="641" y="201" on="1"/>
        <pt x="614" y="201" on="0"/>
        <pt x="565" y="222" on="0"/>
        <pt x="529" y="259" on="0"/>
        <pt x="510" y="312" on="0"/>
      </contour>
    </TTGlyph>
    <TTGlyph name="dollar" xMin="63" yMin="-230" xMax="1127" yMax="1729">
      <contour>
        <pt x="117" y="368" on="1"/>
        <pt x="282" y="368" on="1"/>
        <pt x="297" y="171" on="1"/>
        <pt x="340" y="139" on="0"/>
        <pt x="456" y="94" on="0"/>
        <pt x="526" y="94" on="1"/>
        <pt x="587" y="94" on="0"/>
        <pt x="689" y="126" on="0"/>
        <pt x="763" y="187" on="0"/>
        <pt x="806" y="275" on="0"/>
        <pt x="809" y="330" on="1"/>
        <pt x="811" y="384" on="0"/>
        <pt x="775" y="471" on="0"/>
        <pt x="706" y="548" on="0"/>
        <pt x="606" y="619" on="0"/>
        <pt x="545" y="658" on="1"/>
        <pt x="481" y="698" on="0"/>
        <pt x="360" y="789" on="0"/>
        <pt x="266" y="897" on="0"/>
        <pt x="209" y="1029" on="0"/>
        <pt x="209" y="1110" on="1"/>
        <pt x="209" y="1206" on="0"/>
        <pt x="280" y="1361" on="0"/>
        <pt x="405" y="1472" on="0"/>
        <pt x="575" y="1539" on="0"/>
        <pt x="674" y="1547" on="1"/>
        <pt x="703" y="1729" on="1"/>
        <pt x="884" y="1729" on="1"/>
        <pt x="854" y="1545" on="1"/>
        <pt x="957" y="1535" on="0"/>
        <pt x="1092" y="1492" on="0"/>
        <pt x="1127" y="1470" on="1"/>
        <pt x="1076" y="1197" on="1"/>
        <pt x="923" y="1197" on="1"/>
        <pt x="892" y="1377" on="1"/>
        <pt x="854" y="1404" on="0"/>
        <pt x="753" y="1433" on="0"/>
        <pt x="697" y="1433" on="1"/>
        <pt x="650" y="1433" on="0"/>
        <pt x="565" y="1406" on="0"/>
        <pt x="500" y="1352" on="0"/>
        <pt x="460" y="1271" on="0"/>
        <pt x="458" y="1216" on="1"/>
        <pt x="456" y="1158" on="0"/>
        <pt x="495" y="1064" on="0"/>
        <pt x="569" y="982" on="0"/>
        <pt x="674" y="907" on="0"/>
        <pt x="738" y="868" on="1"/>
        <pt x="800" y="830" on="0"/>
        <pt x="918" y="745" on="0"/>
        <pt x="1010" y="642" on="0"/>
        <pt x="1066" y="516" on="0"/>
        <pt x="1066" y="437" on="1"/>
        <pt x="1066" y="345" on="0"/>
        <pt x="1001" y="188" on="0"/>
        <pt x="878" y="68" on="0"/>
        <pt x="700" y="-9" on="0"/>
        <pt x="587" y="-19" on="1"/>
        <pt x="553" y="-230" on="1"/>
        <pt x="373" y="-230" on="1"/>
        <pt x="407" y="-19" on="1"/>
        <pt x="345" y="-14" on="0"/>
        <pt x="233" y="7" on="0"/>
        <pt x="142" y="32" on="0"/>
        <pt x="77" y="58" on="0"/>
        <pt x="63" y="70" on="1"/>
      </contour>
    </TTGlyph>
    <TTGlyph name="dotaccent" xMin="35" yMin="1363" xMax="354" yMax="1676">
      <contour>
        <pt x="175" y="1363" on="1"/>
        <pt x="146" y="1363" on="0"/>
        <pt x="95" y="1387" on="0"/>
        <pt x="57" y="1427" on="0"/>
        <pt x="35" y="1479" on="0"/>
        <pt x="36" y="1507" on="1"/>
        <pt x="37" y="1542" on="0"/>
        <pt x="65" y="1603" on="0"/>
        <pt x="111" y="1649" on="0"/>
        <pt x="172" y="1676" on="0"/>
        <pt x="207" y="1676" on="1"/>
        <pt x="241" y="1676" on="0"/>
        <pt x="297" y="1653" on="0"/>
        <pt x="335" y="1614" on="0"/>
        <pt x="354" y="1565" on="0"/>
        <pt x="353" y="1538" on="1"/>
        <pt x="352" y="1503" on="0"/>
        <pt x="327" y="1439" on="0"/>
        <pt x="281" y="1391" on="0"/>
        <pt x="216" y="1363" on="0"/>
      </contour>
    </TTGlyph>
    <TTGlyph name="dotaccent.cap" xMin="30" yMin="1652" xMax="360" yMax="1965">
      <contour>
        <pt x="175" y="1652" on="1"/>
        <pt x="146" y="1652" on="0"/>
        <pt x="93" y="1676" on="0"/>
        <pt x="53" y="1716" on="0"/>
        <pt x="30" y="1767" on="0"/>
        <pt x="31" y="1795" on="1"/>
        <pt x="32" y="1830" on="0"/>
        <pt x="61" y="1892" on="0"/>
        <pt x="109" y="1938" on="0"/>
        <pt x="172" y="1965" on="0"/>
        <pt x="207" y="1965" on="1"/>
        <pt x="241" y="1965" on="0"/>
        <pt x="298" y="1942" on="0"/>
        <pt x="338" y="1903" on="0"/>
        <pt x="360" y="1853" on="0"/>
        <pt x="359" y="1826" on="1"/>
        <pt x="358" y="1791" on="0"/>
        <pt x="331" y="1728" on="0"/>
        <pt x="283" y="1680" on="0"/>
        <pt x="216" y="1652" on="0"/>
      </contour>
    </TTGlyph>
    <TTGlyph name="dotlessi" xMin="99" yMin="-20" xMax="567" yMax="1163">
      <contour>
        <pt x="136" y="121" on="1"/>
        <pt x="143" y="181" on="0"/>
        <pt x="167" y="356" on="0"/>
        <pt x="198" y="577" on="0"/>
        <pt x="235" y="836" on="0"/>
        <pt x="255" y="980" on="1"/>
        <pt x="99" y="1031" on="1"/>
        <pt x="117" y="1112" on="1"/>
        <pt x="491" y="1163" on="1"/>
        <pt x="543" y="1139" on="1"/>
        <pt x="409" y="207" on="1"/>
        <pt x="398" y="131" on="0"/>
        <pt x="438" y="131" on="1"/>
        <pt x="455" y="131" on="0"/>
        <pt x="499" y="155" on="0"/>
        <pt x="537" y="188" on="1"/>
        <pt x="567" y="125" on="1"/>
        <pt x="559" y="114" on="0"/>
        <pt x="514" y="66" on="0"/>
        <pt x="445" y="17" on="0"/>
        <pt x="352" y="-20" on="0"/>
        <pt x="297" y="-20" on="1"/>
        <pt x="213" y="-20" on="0"/>
        <pt x="128" y="52" on="0"/>
      </contour>
    </TTGlyph>
    <TTGlyph name="dotlessj" xMin="-230" yMin="-523" xMax="543" yMax="1163">
      <contour>
        <pt x="253" y="980" on="1"/>
        <pt x="92" y="1031" on="1"/>
        <pt x="112" y="1112" on="1"/>
        <pt x="493" y="1163" on="1"/>
        <pt x="543" y="1139" on="1"/>
        <pt x="409" y="0" on="1"/>
        <pt x="394" y="-129" on="0"/>
        <pt x="306" y="-325" on="0"/>
        <pt x="177" y="-456" on="0"/>
        <pt x="15" y="-523" on="0"/>
        <pt x="-74" y="-523" on="1"/>
        <pt x="-128" y="-523" on="0"/>
        <pt x="-211" y="-505" on="0"/>
        <pt x="-230" y="-486" on="1"/>
        <pt x="-193" y="-385" on="1"/>
        <pt x="-186" y="-388" on="0"/>
        <pt x="-165" y="-392" on="0"/>
        <pt x="-144" y="-395" on="0"/>
        <pt x="-125" y="-397" on="0"/>
        <pt x="-121" y="-397" on="1"/>
        <pt x="-49" y="-397" on="0"/>
        <pt x="47" y="-320" on="0"/>
        <pt x="108" y="-191" on="0"/>
        <pt x="142" y="-24" on="0"/>
        <pt x="152" y="65" on="1"/>
      </contour>
    </TTGlyph>
    <TTGlyph name="e" xMin="73" yMin="-20" xMax="1001" yMax="1163">
      <contour>
        <pt x="74" y="430" on="1"/>
        <pt x="75" y="530" on="0"/>
        <pt x="119" y="717" on="0"/>
        <pt x="198" y="880" on="0"/>
        <pt x="310" y="1014" on="0"/>
        <pt x="447" y="1110" on="0"/>
        <pt x="606" y="1163" on="0"/>
        <pt x="693" y="1163" on="1"/>
        <pt x="772" y="1163" on="0"/>
        <pt x="887" y="1125" on="0"/>
        <pt x="962" y="1057" on="0"/>
        <pt x="999" y="966" on="0"/>
        <pt x="1000" y="913" on="1"/>
        <pt x="1001" y="833" on="0"/>
        <pt x="938" y="704" on="0"/>
        <pt x="832" y="604" on="0"/>
        <pt x="696" y="531" on="0"/>
        <pt x="552" y="484" on="0"/>
        <pt x="413" y="459" on="0"/>
        <pt x="358" y="458" on="1"/>
        <pt x="355" y="395" on="0"/>
        <pt x="376" y="280" on="0"/>
        <pt x="424" y="191" on="0"/>
        <pt x="503" y="139" on="0"/>
        <pt x="559" y="139" on="1"/>
        <pt x="656" y="139" on="0"/>
        <pt x="815" y="224" on="0"/>
        <pt x="878" y="290" on="1"/>
        <pt x="933" y="197" on="1"/>
        <pt x="912" y="166" on="0"/>
        <pt x="833" y="90" on="0"/>
        <pt x="720" y="24" on="0"/>
        <pt x="577" y="-20" on="0"/>
        <pt x="493" y="-20" on="1"/>
        <pt x="380" y="-20" on="0"/>
        <pt x="220" y="56" on="0"/>
        <pt x="119" y="182" on="0"/>
        <pt x="73" y="344" on="0"/>
      </contour>
      <contour>
        <pt x="360" y="573" on="1"/>
        <pt x="395" y="575" on="0"/>
        <pt x="478" y="595" on="0"/>
        <pt x="563" y="633" on="0"/>
        <pt x="641" y="686" on="0"/>
        <pt x="702" y="756" on="0"/>
        <pt x="738" y="841" on="0"/>
        <pt x="737" y="891" on="1"/>
        <pt x="735" y="965" on="0"/>
        <pt x="681" y="1036" on="0"/>
        <pt x="633" y="1036" on="1"/>
        <pt x="588" y="1036" on="0"/>
        <pt x="515" y="992" on="0"/>
        <pt x="457" y="919" on="0"/>
        <pt x="414" y="823" on="0"/>
        <pt x="383" y="720" on="0"/>
        <pt x="364" y="617" on="0"/>
      </contour>
    </TTGlyph>
    <TTGlyph name="eacute" xMin="73" yMin="-20" xMax="1047" yMax="1743">
      <component glyphName="acute" x="513" y="0" flags="0x4"/>
      <component glyphName="e" x="0" y="0" flags="0x4"/>
    </TTGlyph>
    <TTGlyph name="ebreve" xMin="73" yMin="-20" xMax="1022" yMax="1666">
      <component glyphName="e" x="0" y="0" flags="0x204"/>
      <component glyphName="breve" x="327" y="0" flags="0x4"/>
    </TTGlyph>
    <TTGlyph name="ecaron" xMin="73" yMin="-20" xMax="1071" yMax="1660">
      <component glyphName="caron" x="286" y="0" flags="0x4"/>
      <component glyphName="e" x="0" y="0" flags="0x4"/>
    </TTGlyph>
    <TTGlyph name="ecircumflex" xMin="73" yMin="-20" xMax="1033" yMax="1660">
      <component glyphName="circumflex" x="258" y="0" flags="0x4"/>
      <component glyphName="e" x="0" y="0" flags="0x4"/>
    </TTGlyph>
    <TTGlyph name="edieresis" xMin="73" yMin="-20" xMax="1065" yMax="1676">
      <component glyphName="dieresis" x="292" y="0" flags="0x4"/>
      <component glyphName="e" x="0" y="0" flags="0x4"/>
    </TTGlyph>
    <TTGlyph name="edotaccent" xMin="73" yMin="-20" xMax="1001" yMax="1676">
      <component glyphName="e" x="0" y="0" flags="0x204"/>
      <component glyphName="dotaccent" x="507" y="0" flags="0x4"/>
    </TTGlyph>
    <TTGlyph name="egrave" xMin="73" yMin="-20" xMax="1001" yMax="1743">
      <component glyphName="e" x="0" y="0" flags="0x204"/>
      <component glyphName="grave" x="235" y="0" flags="0x4"/>
    </TTGlyph>
    <TTGlyph name="eight" xMin="112" yMin="-20" xMax="1159" yMax="1569">
      <contour>
        <pt x="112" y="354" on="1"/>
        <pt x="112" y="429" on="0"/>
        <pt x="170" y="564" on="0"/>
        <pt x="266" y="681" on="0"/>
        <pt x="392" y="780" on="0"/>
        <pt x="461" y="818" on="1"/>
        <pt x="421" y="851" on="0"/>
        <pt x="350" y="928" on="0"/>
        <pt x="298" y="1017" on="0"/>
        <pt x="267" y="1119" on="0"/>
        <pt x="267" y="1176" on="1"/>
        <pt x="267" y="1267" on="0"/>
        <pt x="338" y="1412" on="0"/>
        <pt x="465" y="1514" on="0"/>
        <pt x="643" y="1569" on="0"/>
        <pt x="750" y="1569" on="1"/>
        <pt x="835" y="1569" on="0"/>
        <pt x="985" y="1524" on="0"/>
        <pt x="1095" y="1439" on="0"/>
        <pt x="1159" y="1314" on="0"/>
        <pt x="1159" y="1235" on="1"/>
        <pt x="1159" y="1164" on="0"/>
        <pt x="1105" y="1042" on="0"/>
        <pt x="1015" y="937" on="0"/>
        <pt x="899" y="849" on="0"/>
        <pt x="837" y="813" on="1"/>
        <pt x="892" y="775" on="0"/>
        <pt x="989" y="684" on="0"/>
        <pt x="1063" y="581" on="0"/>
        <pt x="1106" y="466" on="0"/>
        <pt x="1106" y="403" on="1"/>
        <pt x="1106" y="303" on="0"/>
        <pt x="1014" y="146" on="0"/>
        <pt x="863" y="37" on="0"/>
        <pt x="670" y="-20" on="0"/>
        <pt x="568" y="-20" on="1"/>
        <pt x="488" y="-20" on="0"/>
        <pt x="326" y="21" on="0"/>
        <pt x="195" y="110" on="0"/>
        <pt x="112" y="252" on="0"/>
      </contour>
      <contour>
        <pt x="720" y="900" on="1"/>
        <pt x="764" y="923" on="0"/>
        <pt x="841" y="989" on="0"/>
        <pt x="899" y="1073" on="0"/>
        <pt x="932" y="1176" on="0"/>
        <pt x="932" y="1235" on="1"/>
        <pt x="932" y="1296" on="0"/>
        <pt x="898" y="1381" on="0"/>
        <pt x="843" y="1435" on="0"/>
        <pt x="771" y="1460" on="0"/>
        <pt x="734" y="1460" on="1"/>
        <pt x="687" y="1460" on="0"/>
        <pt x="607" y="1427" on="0"/>
        <pt x="548" y="1364" on="0"/>
        <pt x="514" y="1272" on="0"/>
        <pt x="514" y="1212" on="1"/>
        <pt x="514" y="1166" on="0"/>
        <pt x="544" y="1082" on="0"/>
        <pt x="598" y="1004" on="0"/>
        <pt x="674" y="933" on="0"/>
      </contour>
      <contour>
        <pt x="356" y="373" on="1"/>
        <pt x="356" y="320" on="0"/>
        <pt x="386" y="221" on="0"/>
        <pt x="445" y="143" on="0"/>
        <pt x="532" y="96" on="0"/>
        <pt x="588" y="96" on="1"/>
        <pt x="641" y="96" on="0"/>
        <pt x="736" y="131" on="0"/>
        <pt x="807" y="198" on="0"/>
        <pt x="849" y="294" on="0"/>
        <pt x="849" y="355" on="1"/>
        <pt x="849" y="410" on="0"/>
        <pt x="808" y="511" on="0"/>
        <pt x="734" y="605" on="0"/>
        <pt x="632" y="693" on="0"/>
        <pt x="572" y="736" on="1"/>
        <pt x="526" y="710" on="0"/>
        <pt x="448" y="636" on="0"/>
        <pt x="390" y="543" on="0"/>
        <pt x="357" y="434" on="0"/>
      </contour>
    </TTGlyph>
    <TTGlyph name="ellipsis" xMin="60" yMin="-21" xMax="1424" yMax="296">
      <contour>
        <pt x="1114" y="122" on="1"/>
        <pt x="1116" y="161" on="0"/>
        <pt x="1147" y="225" on="0"/>
        <pt x="1196" y="271" on="0"/>
        <pt x="1257" y="296" on="0"/>
        <pt x="1288" y="296" on="1"/>
        <pt x="1324" y="296" on="0"/>
        <pt x="1377" y="272" on="0"/>
        <pt x="1410" y="233" on="0"/>
        <pt x="1424" y="181" on="0"/>
        <pt x="1422" y="153" on="1"/>
        <pt x="1420" y="111" on="0"/>
        <pt x="1386" y="46" on="0"/>
        <pt x="1334" y="2" on="0"/>
        <pt x="1270" y="-21" on="0"/>
        <pt x="1237" y="-21" on="1"/>
        <pt x="1210" y="-21" on="0"/>
        <pt x="1163" y="0" on="0"/>
        <pt x="1130" y="37" on="0"/>
        <pt x="1112" y="90" on="0"/>
      </contour>
      <contour>
        <pt x="588" y="122" on="1"/>
        <pt x="590" y="161" on="0"/>
        <pt x="621" y="225" on="0"/>
        <pt x="670" y="271" on="0"/>
        <pt x="731" y="296" on="0"/>
        <pt x="762" y="296" on="1"/>
        <pt x="798" y="296" on="0"/>
        <pt x="851" y="272" on="0"/>
        <pt x="884" y="233" on="0"/>
        <pt x="898" y="181" on="0"/>
        <pt x="896" y="153" on="1"/>
        <pt x="894" y="111" on="0"/>
        <pt x="860" y="46" on="0"/>
        <pt x="808" y="2" on="0"/>
        <pt x="744" y="-21" on="0"/>
        <pt x="711" y="-21" on="1"/>
        <pt x="684" y="-21" on="0"/>
        <pt x="637" y="0" on="0"/>
        <pt x="604" y="37" on="0"/>
        <pt x="586" y="90" on="0"/>
      </contour>
      <contour>
        <pt x="62" y="122" on="1"/>
        <pt x="64" y="161" on="0"/>
        <pt x="95" y="225" on="0"/>
        <pt x="144" y="271" on="0"/>
        <pt x="205" y="296" on="0"/>
        <pt x="236" y="296" on="1"/>
        <pt x="272" y="296" on="0"/>
        <pt x="325" y="272" on="0"/>
        <pt x="358" y="233" on="0"/>
        <pt x="372" y="181" on="0"/>
        <pt x="370" y="153" on="1"/>
        <pt x="368" y="111" on="0"/>
        <pt x="334" y="46" on="0"/>
        <pt x="282" y="2" on="0"/>
        <pt x="218" y="-21" on="0"/>
        <pt x="185" y="-21" on="1"/>
        <pt x="158" y="-21" on="0"/>
        <pt x="111" y="0" on="0"/>
        <pt x="78" y="37" on="0"/>
        <pt x="60" y="90" on="0"/>
      </contour>
    </TTGlyph>
    <TTGlyph name="emacron" xMin="73" yMin="-20" xMax="1001" yMax="1594">
      <component glyphName="e" x="0" y="0" flags="0x204"/>
      <component glyphName="macron" x="358" y="0" flags="0x4"/>
    </TTGlyph>
    <TTGlyph name="emdash" xMin="240" yMin="684" xMax="1863" yMax="861">
      <contour>
        <pt x="272" y="861" on="1"/>
        <pt x="1863" y="861" on="1"/>
        <pt x="1830" y="684" on="1"/>
        <pt x="240" y="684" on="1"/>
      </contour>
    </TTGlyph>
    <TTGlyph name="endash" xMin="240" yMin="684" xMax="1372" yMax="861">
      <contour>
        <pt x="275" y="861" on="1"/>
        <pt x="1372" y="861" on="1"/>
        <pt x="1337" y="684" on="1"/>
        <pt x="240" y="684" on="1"/>
      </contour>
    </TTGlyph>
    <TTGlyph name="eng" xMin="109" yMin="-523" xMax="1136" yMax="1162">
      <contour>
        <pt x="238" y="954" on="1"/>
        <pt x="135" y="1014" on="1"/>
        <pt x="152" y="1103" on="1"/>
        <pt x="460" y="1155" on="1"/>
        <pt x="510" y="1131" on="1"/>
        <pt x="494" y="931" on="1"/>
        <pt x="528" y="978" on="0"/>
        <pt x="613" y="1062" on="0"/>
        <pt x="712" y="1125" on="0"/>
        <pt x="824" y="1162" on="0"/>
        <pt x="885" y="1162" on="1"/>
        <pt x="939" y="1162" on="0"/>
        <pt x="1033" y="1133" on="0"/>
        <pt x="1101" y="1063" on="0"/>
        <pt x="1136" y="947" on="0"/>
        <pt x="1131" y="861" on="1"/>
        <pt x="1123" y="743" on="0"/>
        <pt x="1102" y="511" on="0"/>
        <pt x="1075" y="291" on="0"/>
        <pt x="1044" y="88" on="0"/>
        <pt x="1026" y="0" on="1"/>
        <pt x="997" y="-146" on="0"/>
        <pt x="912" y="-346" on="0"/>
        <pt x="795" y="-469" on="0"/>
        <pt x="641" y="-523" on="0"/>
        <pt x="542" y="-523" on="1"/>
        <pt x="491" y="-523" on="0"/>
        <pt x="404" y="-504" on="0"/>
        <pt x="387" y="-486" on="1"/>
        <pt x="423" y="-385" on="1"/>
        <pt x="430" y="-388" on="0"/>
        <pt x="451" y="-393" on="0"/>
        <pt x="472" y="-396" on="0"/>
        <pt x="491" y="-397" on="0"/>
        <pt x="495" y="-397" on="1"/>
        <pt x="561" y="-397" on="0"/>
        <pt x="652" y="-332" on="0"/>
        <pt x="714" y="-217" on="0"/>
        <pt x="754" y="-59" on="0"/>
        <pt x="769" y="33" on="1"/>
        <pt x="773" y="64" on="0"/>
        <pt x="787" y="165" on="0"/>
        <pt x="803" y="294" on="0"/>
        <pt x="820" y="444" on="0"/>
        <pt x="837" y="602" on="0"/>
        <pt x="852" y="763" on="0"/>
        <pt x="858" y="838" on="1"/>
        <pt x="860" y="881" on="0"/>
        <pt x="850" y="938" on="0"/>
        <pt x="825" y="971" on="0"/>
        <pt x="787" y="985" on="0"/>
        <pt x="762" y="985" on="1"/>
        <pt x="730" y="985" on="0"/>
        <pt x="656" y="951" on="0"/>
        <pt x="579" y="889" on="0"/>
        <pt x="503" y="800" on="0"/>
        <pt x="470" y="745" on="1"/>
        <pt x="368" y="0" on="1"/>
        <pt x="109" y="0" on="1"/>
      </contour>
    </TTGlyph>
    <TTGlyph name="eogonek" xMin="73" yMin="-448" xMax="1001" yMax="1163">
      <contour>
        <pt x="400" y="-174" on="1"/>
        <pt x="436" y="-121" on="0"/>
        <pt x="516" y="-45" on="0"/>
        <pt x="557" y="-16" on="1"/>
        <pt x="541" y="-18" on="0"/>
        <pt x="510" y="-20" on="0"/>
        <pt x="493" y="-20" on="1"/>
        <pt x="380" y="-20" on="0"/>
        <pt x="220" y="56" on="0"/>
        <pt x="119" y="182" on="0"/>
        <pt x="73" y="344" on="0"/>
        <pt x="74" y="430" on="1"/>
        <pt x="75" y="530" on="0"/>
        <pt x="119" y="717" on="0"/>
        <pt x="198" y="880" on="0"/>
        <pt x="310" y="1014" on="0"/>
        <pt x="447" y="1110" on="0"/>
        <pt x="606" y="1163" on="0"/>
        <pt x="693" y="1163" on="1"/>
        <pt x="772" y="1163" on="0"/>
        <pt x="887" y="1125" on="0"/>
        <pt x="962" y="1057" on="0"/>
        <pt x="999" y="966" on="0"/>
        <pt x="1000" y="913" on="1"/>
        <pt x="1001" y="833" on="0"/>
        <pt x="938" y="704" on="0"/>
        <pt x="832" y="604" on="0"/>
        <pt x="696" y="531" on="0"/>
        <pt x="552" y="484" on="0"/>
        <pt x="413" y="459" on="0"/>
        <pt x="358" y="458" on="1"/>
        <pt x="355" y="395" on="0"/>
        <pt x="376" y="280" on="0"/>
        <pt x="424" y="191" on="0"/>
        <pt x="503" y="139" on="0"/>
        <pt x="559" y="139" on="1"/>
        <pt x="656" y="139" on="0"/>
        <pt x="815" y="224" on="0"/>
        <pt x="878" y="290" on="1"/>
        <pt x="933" y="197" on="1"/>
        <pt x="910" y="161" on="0"/>
        <pt x="865" y="121" on="1"/>
        <pt x="867" y="122" on="1"/>
        <pt x="864" y="120" on="0"/>
        <pt x="859" y="116" on="0"/>
        <pt x="856" y="114" on="1"/>
        <pt x="834" y="96" on="1"/>
        <pt x="830" y="93" on="1"/>
        <pt x="779" y="55" on="0"/>
        <pt x="642" y="-6" on="0"/>
        <pt x="557" y="-16" on="1"/>
        <pt x="591" y="7" on="0"/>
        <pt x="655" y="45" on="0"/>
        <pt x="684" y="62" on="1"/>
        <pt x="741" y="101" on="1"/>
        <pt x="865" y="121" on="1"/>
        <pt x="856" y="114" on="1"/>
        <pt x="834" y="96" on="1"/>
        <pt x="830" y="93" on="1"/>
        <pt x="788" y="59" on="0"/>
        <pt x="706" y="-21" on="0"/>
        <pt x="641" y="-100" on="0"/>
        <pt x="600" y="-175" on="0"/>
        <pt x="600" y="-203" on="1"/>
        <pt x="599" y="-226" on="0"/>
        <pt x="609" y="-258" on="0"/>
        <pt x="626" y="-278" on="0"/>
        <pt x="648" y="-287" on="0"/>
        <pt x="660" y="-287" on="1"/>
        <pt x="694" y="-287" on="0"/>
        <pt x="759" y="-253" on="0"/>
        <pt x="801" y="-220" on="1"/>
        <pt x="832" y="-324" on="1"/>
        <pt x="807" y="-348" on="0"/>
        <pt x="745" y="-393" on="0"/>
        <pt x="671" y="-428" on="0"/>
        <pt x="584" y="-448" on="0"/>
        <pt x="535" y="-448" on="1"/>
        <pt x="491" y="-448" on="0"/>
        <pt x="425" y="-423" on="0"/>
        <pt x="382" y="-381" on="0"/>
        <pt x="362" y="-325" on="0"/>
        <pt x="362" y="-293" on="1"/>
        <pt x="363" y="-266" on="0"/>
        <pt x="383" y="-199" on="0"/>
      </contour>
      <contour>
        <pt x="360" y="573" on="1"/>
        <pt x="395" y="575" on="0"/>
        <pt x="478" y="595" on="0"/>
        <pt x="563" y="633" on="0"/>
        <pt x="641" y="686" on="0"/>
        <pt x="702" y="756" on="0"/>
        <pt x="738" y="841" on="0"/>
        <pt x="737" y="891" on="1"/>
        <pt x="735" y="965" on="0"/>
        <pt x="681" y="1036" on="0"/>
        <pt x="633" y="1036" on="1"/>
        <pt x="588" y="1036" on="0"/>
        <pt x="515" y="992" on="0"/>
        <pt x="457" y="919" on="0"/>
        <pt x="414" y="823" on="0"/>
        <pt x="383" y="720" on="0"/>
        <pt x="364" y="617" on="0"/>
      </contour>
    </TTGlyph>
    <TTGlyph name="equal" xMin="78" yMin="324" xMax="985" yMax="1020">
      <contour>
        <pt x="170" y="1020" on="1"/>
        <pt x="985" y="1020" on="1"/>
        <pt x="965" y="843" on="1"/>
        <pt x="150" y="843" on="1"/>
      </contour>
      <contour>
        <pt x="99" y="501" on="1"/>
        <pt x="914" y="501" on="1"/>
        <pt x="893" y="324" on="1"/>
        <pt x="78" y="324" on="1"/>
      </contour>
    </TTGlyph>
    <TTGlyph name="estimated" xMin="120" yMin="-16" xMax="1298" yMax="1358">
      <contour>
        <pt x="438" y="241" on="1"/>
        <pt x="499" y="177" on="0"/>
        <pt x="670" y="124" on="0"/>
        <pt x="770" y="124" on="1"/>
        <pt x="829" y="124" on="0"/>
        <pt x="941" y="145" on="0"/>
        <pt x="1039" y="177" on="0"/>
        <pt x="1118" y="214" on="0"/>
        <pt x="1144" y="231" on="1"/>
        <pt x="1200" y="99" on="1"/>
        <pt x="1167" y="76" on="0"/>
        <pt x="1067" y="34" on="0"/>
        <pt x="948" y="3" on="0"/>
        <pt x="818" y="-16" on="0"/>
        <pt x="755" y="-16" on="1"/>
        <pt x="605" y="-16" on="0"/>
        <pt x="369" y="78" on="0"/>
        <pt x="206" y="255" on="0"/>
        <pt x="120" y="510" on="0"/>
        <pt x="120" y="671" on="1"/>
        <pt x="120" y="818" on="0"/>
        <pt x="198" y="1067" on="0"/>
        <pt x="355" y="1249" on="0"/>
        <pt x="593" y="1353" on="0"/>
        <pt x="754" y="1356" on="1"/>
        <pt x="865" y="1358" on="0"/>
        <pt x="1059" y="1287" on="0"/>
        <pt x="1206" y="1151" on="0"/>
        <pt x="1294" y="955" on="0"/>
        <pt x="1298" y="832" on="1"/>
        <pt x="1298" y="767" on="0"/>
        <pt x="1296" y="660" on="0"/>
        <pt x="1288" y="622" on="1"/>
        <pt x="438" y="622" on="1"/>
      </contour>
      <contour>
        <pt x="995" y="768" on="1"/>
        <pt x="995" y="1142" on="1"/>
        <pt x="953" y="1177" on="0"/>
        <pt x="829" y="1216" on="0"/>
        <pt x="740" y="1216" on="1"/>
        <pt x="648" y="1216" on="0"/>
        <pt x="495" y="1160" on="0"/>
        <pt x="438" y="1097" on="1"/>
        <pt x="438" y="768" on="1"/>
      </contour>
    </TTGlyph>
    <TTGlyph name="eth" xMin="65" yMin="-20" xMax="1104" yMax="1800">
      <contour>
        <pt x="65" y="443" on="1"/>
        <pt x="65" y="599" on="0"/>
        <pt x="155" y="846" on="0"/>
        <pt x="308" y="1019" on="0"/>
        <pt x="510" y="1110" on="0"/>
        <pt x="623" y="1110" on="1"/>
        <pt x="692" y="1110" on="0"/>
        <pt x="799" y="1079" on="0"/>
        <pt x="833" y="1038" on="1"/>
        <pt x="825" y="1087" on="0"/>
        <pt x="802" y="1180" on="0"/>
        <pt x="765" y="1268" on="0"/>
        <pt x="711" y="1355" on="0"/>
        <pt x="672" y="1398" on="1"/>
        <pt x="532" y="1238" on="1"/>
        <pt x="421" y="1331" on="1"/>
        <pt x="570" y="1493" on="1"/>
        <pt x="516" y="1538" on="0"/>
        <pt x="400" y="1610" on="0"/>
        <pt x="349" y="1625" on="1"/>
        <pt x="398" y="1764" on="1"/>
        <pt x="427" y="1756" on="0"/>
        <pt x="499" y="1728" on="0"/>
        <pt x="575" y="1691" on="0"/>
        <pt x="654" y="1646" on="0"/>
        <pt x="690" y="1621" on="1"/>
        <pt x="714" y="1649" on="0"/>
        <pt x="767" y="1711" on="0"/>
        <pt x="789" y="1738" on="1"/>
        <pt x="815" y="1769" on="0"/>
        <pt x="839" y="1800" on="1"/>
        <pt x="947" y="1704" on="1"/>
        <pt x="799" y="1536" on="1"/>
        <pt x="880" y="1462" on="0"/>
        <pt x="996" y="1293" on="0"/>
        <pt x="1070" y="1109" on="0"/>
        <pt x="1104" y="913" on="0"/>
        <pt x="1104" y="812" on="1"/>
        <pt x="1104" y="636" on="0"/>
        <pt x="1022" y="333" on="0"/>
        <pt x="865" y="108" on="0"/>
        <pt x="634" y="-20" on="0"/>
        <pt x="486" y="-20" on="1"/>
        <pt x="379" y="-20" on="0"/>
        <pt x="220" y="63" on="0"/>
        <pt x="116" y="196" on="0"/>
        <pt x="65" y="361" on="0"/>
      </contour>
      <contour>
        <pt x="515" y="98" on="1"/>
        <pt x="572" y="98" on="0"/>
        <pt x="669" y="169" on="0"/>
        <pt x="745" y="292" on="0"/>
        <pt x="798" y="457" on="0"/>
        <pt x="810" y="551" on="1"/>
        <pt x="812" y="563" on="0"/>
        <pt x="818" y="610" on="0"/>
        <pt x="824" y="662" on="0"/>
        <pt x="828" y="712" on="0"/>
        <pt x="829" y="728" on="1"/>
        <pt x="830" y="745" on="0"/>
        <pt x="823" y="796" on="0"/>
        <pt x="806" y="854" on="0"/>
        <pt x="776" y="911" on="0"/>
        <pt x="730" y="957" on="0"/>
        <pt x="667" y="986" on="0"/>
        <pt x="625" y="986" on="1"/>
        <pt x="575" y="986" on="0"/>
        <pt x="493" y="935" on="0"/>
        <pt x="429" y="847" on="0"/>
        <pt x="383" y="731" on="0"/>
        <pt x="353" y="602" on="0"/>
        <pt x="339" y="468" on="0"/>
        <pt x="339" y="406" on="1"/>
        <pt x="339" y="344" on="0"/>
        <pt x="360" y="232" on="0"/>
        <pt x="403" y="148" on="0"/>
        <pt x="469" y="98" on="0"/>
      </contour>
    </TTGlyph>
    <TTGlyph name="exclam" xMin="121" yMin="-21" xMax="669" yMax="1778">
      <contour>
        <pt x="379" y="1778" on="1"/>
        <pt x="669" y="1778" on="1"/>
        <pt x="419" y="508" on="1"/>
        <pt x="248" y="508" on="1"/>
      </contour>
      <contour>
        <pt x="123" y="122" on="1"/>
        <pt x="125" y="161" on="0"/>
        <pt x="160" y="225" on="0"/>
        <pt x="212" y="271" on="0"/>
        <pt x="276" y="296" on="0"/>
        <pt x="307" y="296" on="1"/>
        <pt x="343" y="296" on="0"/>
        <pt x="395" y="272" on="0"/>
        <pt x="428" y="233" on="0"/>
        <pt x="442" y="181" on="0"/>
        <pt x="441" y="153" on="1"/>
        <pt x="439" y="111" on="0"/>
        <pt x="403" y="46" on="0"/>
        <pt x="349" y="2" on="0"/>
        <pt x="284" y="-21" on="0"/>
        <pt x="251" y="-21" on="1"/>
        <pt x="224" y="-21" on="0"/>
        <pt x="176" y="0" on="0"/>
        <pt x="140" y="37" on="0"/>
        <pt x="121" y="90" on="0"/>
      </contour>
    </TTGlyph>
    <TTGlyph name="exclamdbl" xMin="121" yMin="-21" xMax="1285" yMax="1778">
      <component glyphName="exclam" x="0" y="0" flags="0x4"/>
      <component glyphName="exclam" x="616" y="0" flags="0x4"/>
    </TTGlyph>
    <TTGlyph name="exclamdown" xMin="64" yMin="-434" xMax="612" yMax="1364">
      <component glyphName="exclam" x="733" y="1344" scale="-0.999938964844" flags="0x4"/>
    </TTGlyph>
    <TTGlyph name="f" xMin="-230" yMin="-513" xMax="901" yMax="1670">
      <contour>
        <pt x="247" y="998" on="1"/>
        <pt x="115" y="998" on="1"/>
        <pt x="133" y="1087" on="1"/>
        <pt x="275" y="1150" on="1"/>
        <pt x="290" y="1237" on="1"/>
        <pt x="306" y="1330" on="0"/>
        <pt x="385" y="1488" on="0"/>
        <pt x="501" y="1604" on="0"/>
        <pt x="648" y="1670" on="0"/>
        <pt x="733" y="1670" on="1"/>
        <pt x="774" y="1670" on="0"/>
        <pt x="861" y="1661" on="0"/>
        <pt x="901" y="1644" on="1"/>
        <pt x="840" y="1471" on="1"/>
        <pt x="831" y="1478" on="0"/>
        <pt x="805" y="1495" on="0"/>
        <pt x="771" y="1510" on="0"/>
        <pt x="728" y="1519" on="0"/>
        <pt x="702" y="1519" on="1"/>
        <pt x="663" y="1519" on="0"/>
        <pt x="611" y="1488" on="0"/>
        <pt x="576" y="1426" on="0"/>
        <pt x="554" y="1335" on="0"/>
        <pt x="545" y="1274" on="1"/>
        <pt x="529" y="1155" on="1"/>
        <pt x="762" y="1155" on="1"/>
        <pt x="743" y="998" on="1"/>
        <pt x="508" y="998" on="1"/>
        <pt x="383" y="-25" on="1"/>
        <pt x="370" y="-127" on="0"/>
        <pt x="302" y="-304" on="0"/>
        <pt x="192" y="-436" on="0"/>
        <pt x="42" y="-513" on="0"/>
        <pt x="-53" y="-513" on="1"/>
        <pt x="-80" y="-513" on="0"/>
        <pt x="-133" y="-510" on="0"/>
        <pt x="-180" y="-505" on="0"/>
        <pt x="-218" y="-498" on="0"/>
        <pt x="-230" y="-495" on="1"/>
        <pt x="-175" y="-319" on="1"/>
        <pt x="-170" y="-321" on="0"/>
        <pt x="-132" y="-336" on="0"/>
        <pt x="-83" y="-351" on="0"/>
        <pt x="-32" y="-362" on="0"/>
        <pt x="-14" y="-362" on="1"/>
        <pt x="35" y="-362" on="0"/>
        <pt x="95" y="-248" on="0"/>
        <pt x="109" y="-145" on="1"/>
      </contour>
    </TTGlyph>
    <TTGlyph name="f_f" xMin="-229" yMin="-513" xMax="1609" yMax="1670">
      <component glyphName="f" x="1" y="0" flags="0x4"/>
      <component glyphName="f" x="708" y="0" flags="0x4"/>
    </TTGlyph>
    <TTGlyph name="f_f_i" xMin="-229" yMin="-513" xMax="2028" yMax="1676">
      <component glyphName="dotlessi" x="1414" y="0" flags="0x4"/>
      <component glyphName="dotaccent" x="1674" y="0" flags="0x4"/>
      <component glyphName="f" x="1" y="0" flags="0x4"/>
      <component glyphName="f" x="708" y="0" flags="0x4"/>
    </TTGlyph>
    <TTGlyph name="f_f_l" xMin="-229" yMin="-513" xMax="1988" yMax="1670">
      <component glyphName="l" x="1414" y="0" flags="0x4"/>
      <component glyphName="f" x="1" y="0" flags="0x4"/>
      <component glyphName="f" x="708" y="0" flags="0x4"/>
    </TTGlyph>
    <TTGlyph name="f_i" xMin="-229" yMin="-513" xMax="1321" yMax="1676">
      <component glyphName="dotlessi" x="707" y="0" flags="0x4"/>
      <component glyphName="dotaccent" x="967" y="0" flags="0x4"/>
      <component glyphName="f" x="1" y="0" flags="0x4"/>
    </TTGlyph>
    <TTGlyph name="f_l" xMin="-229" yMin="-513" xMax="1281" yMax="1670">
      <component glyphName="l" x="707" y="0" flags="0x4"/>
      <component glyphName="f" x="1" y="0" flags="0x4"/>
    </TTGlyph>
</ttFont>
